<?xml version="1.0" standalone="no"?>
<!DOCTYPE svg PUBLIC "-//W3C//DTD SVG 20010904//EN"
 "http://www.w3.org/TR/2001/REC-SVG-20010904/DTD/svg10.dtd">
<svg version="1.0" xmlns="http://www.w3.org/2000/svg"
 width="171.000000pt" height="171.000000pt" viewBox="0 0 171.000000 171.000000"
 preserveAspectRatio="xMidYMid meet">
<metadata>
Created by potrace 1.11, written by Peter Selinger 2001-2013
</metadata>
<g transform="translate(0.000000,171.000000) scale(0.100000,-0.100000)"
fill="#000000" stroke="none">
<path d="M758 1635 c-2 -2 -32 -6 -68 -10 -54 -5 -153 -25 -195 -39 -5 -2 -13
-4 -18 -5 -4 0 -35 -15 -70 -32 -125 -63 -219 -198 -256 -370 -19 -90 -26
-301 -11 -363 4 -17 13 -56 20 -86 7 -30 17 -61 23 -67 5 -7 6 -13 3 -13 -11
0 45 -101 83 -148 50 -64 68 -79 133 -109 l57 -28 -16 -25 c-81 -124 -250
-220 -402 -229 -22 -1 -7 -11 25 -17 16 -3 45 -9 65 -13 40 -9 257 -7 304 3
106 22 292 97 337 135 92 79 97 81 224 86 145 5 222 13 244 25 10 5 20 7 22 4
10 -9 164 46 213 77 71 44 120 102 164 194 58 121 75 220 68 406 -7 228 -49
348 -157 458 -77 79 -205 131 -380 156 -46 7 -406 15 -412 10z m535 -284 c45
-28 60 -57 63 -121 2 -47 -1 -61 -22 -88 -105 -134 -308 -35 -264 128 25 92
139 133 223 81z m-783 -470 c0 -14 107 -82 167 -106 159 -64 389 -57 538 17
80 39 85 42 85 55 0 7 4 12 8 10 4 -1 22 12 39 30 36 37 64 35 82 -4 23 -51
-79 -212 -192 -300 -22 -17 -111 -63 -133 -68 -10 -3 -44 -11 -74 -18 -69 -17
-143 -15 -245 7 -106 22 -231 112 -301 216 -65 96 -82 156 -51 182 17 16 22
16 48 2 16 -8 29 -18 29 -23z"/>
</g>
</svg>
