<svg xmlns="http://www.w3.org/2000/svg" viewBox="0 0 591.17 164.38"><defs><style>.cls-1,.cls-2{fill:#006cb7;}.cls-2,.cls-3{fill-rule:evenodd;}.cls-3{fill:#171112;}</style></defs><title>Asset 1</title><g id="Layer_2" data-name="Layer 2"><g id="Layer_1-2" data-name="Layer 1"><path class="cls-1" d="M146.42,60.35v-.09A14.88,14.88,0,0,1,161.7,45.11c5.54,0,8.84,1.84,11.57,4.52l-4.11,4.73c-2.25-2-4.57-3.31-7.5-3.31-4.95,0-8.51,4.1-8.51,9.14v.07c0,5,3.49,9.23,8.51,9.23,3.36,0,5.4-1.35,7.72-3.44l4.11,4.14a15,15,0,0,1-12.05,5.25,14.79,14.79,0,0,1-15-15.09"/><path class="cls-1" d="M178.74,60.35v-.09c0-8.34,6.59-15.15,15.62-15.15s15.57,6.75,15.57,15.08v.07c0,8.35-6.59,15.18-15.64,15.18s-15.55-6.76-15.55-15.09m24.45,0v-.09a8.91,8.91,0,0,0-8.9-9.21c-5.19,0-8.79,4.1-8.79,9.14v.07a8.92,8.92,0,0,0,8.86,9.23c5.23,0,8.83-4.11,8.83-9.13"/><polyline class="cls-1" points="218.38 45.62 225.33 45.62 233.03 58.02 240.75 45.62 247.71 45.62 247.71 74.94 241.29 74.94 241.29 55.79 233.03 68.31 232.87 68.31 224.7 55.92 224.7 74.94 218.38 74.94"/><polyline class="cls-1" points="257.76 45.62 264.71 45.62 272.43 58.02 280.13 45.62 287.08 45.62 287.08 74.94 280.67 74.94 280.67 55.79 272.43 68.31 272.25 68.31 264.08 55.92 264.08 74.94 257.76 74.94"/><path class="cls-1" d="M296.83,62.37V45.62h6.45V62.2c0,4.78,2.38,7.23,6.32,7.23s6.33-2.38,6.33-7V45.62h6.44V62.16c0,8.87-5,13.23-12.86,13.23s-12.68-4.4-12.68-13"/><polyline class="cls-1" points="332.09 45.62 338.04 45.62 351.78 63.66 351.78 45.62 358.15 45.62 358.15 74.94 352.66 74.94 338.45 56.28 338.45 74.94 332.09 74.94"/><polyline class="cls-1" points="368.31 45.62 368.31 74.94 374.76 74.94 374.76 45.62"/><path class="cls-1" d="M383.32,60.35v-.09a14.91,14.91,0,0,1,15.3-15.15c5.52,0,8.84,1.84,11.55,4.52l-4.1,4.73c-2.26-2-4.56-3.31-7.5-3.31-4.93,0-8.5,4.1-8.5,9.14v.07c0,5,3.48,9.23,8.5,9.23,3.37,0,5.39-1.35,7.71-3.44l4.11,4.14a15,15,0,0,1-12,5.25,14.81,14.81,0,0,1-15.05-15.09"/><path class="cls-1" d="M428.12,45.4h5.95l12.57,29.53H439.9l-2.68-6.58h-12.4l-2.69,6.58h-6.58m19.37-12.27L431,53.14l-3.9,9.52Z"/><polyline class="cls-1" points="456.68 51.56 447.76 51.56 447.76 45.62 472.06 45.62 472.06 51.56 463.13 51.56 463.13 74.94 456.68 74.94"/><polyline class="cls-1" points="479.34 45.62 479.34 74.94 485.79 74.94 485.79 45.62"/><path class="cls-1" d="M494.36,60.35v-.09c0-8.34,6.58-15.15,15.63-15.15s15.54,6.75,15.54,15.08v.07c0,8.35-6.58,15.18-15.62,15.18s-15.55-6.76-15.55-15.09m24.43,0v-.09a8.92,8.92,0,0,0-8.88-9.21c-5.2,0-8.8,4.1-8.8,9.14v.07A8.91,8.91,0,0,0,510,69.49c5.21,0,8.8-4.11,8.8-9.13"/><polyline class="cls-1" points="533.99 45.62 539.95 45.62 553.67 63.66 553.67 45.62 560.04 45.62 560.04 74.94 554.56 74.94 540.35 56.28 540.35 74.94 533.99 74.94"/><path class="cls-1" d="M568,70.66l3.81-4.57c2.64,2.18,5.39,3.56,8.76,3.56,2.65,0,4.21-1,4.21-2.76v-.08c0-1.64-1-2.47-5.89-3.74-5.9-1.5-9.72-3.14-9.72-9V54c0-5.32,4.27-8.84,10.28-8.84a16.94,16.94,0,0,1,10.87,3.73l-3.35,4.86c-2.59-1.8-5.14-2.9-7.61-2.9s-3.78,1.14-3.78,2.56v.09c0,1.92,1.25,2.56,6.33,3.85,5.94,1.55,9.3,3.7,9.3,8.79v.09c0,5.82-4.45,9.09-10.78,9.09A18.68,18.68,0,0,1,568,70.66"/><path class="cls-1" d="M157.51,92.13h5.26l11.1,26.08h-6l-2.36-5.81h-11l-2.37,5.81h-5.81m17.09-10.85L160.08,99l-3.46,8.4Z"/><path class="cls-1" d="M176.34,107.11V92.31H182V107c0,4.22,2.11,6.4,5.59,6.4s5.58-2.1,5.58-6.21V92.31h5.72v14.61c0,7.85-4.43,11.7-11.38,11.7s-11.2-3.89-11.2-11.51"/><polyline class="cls-1" points="210.77 97.57 202.89 97.57 202.89 92.31 224.36 92.31 224.36 97.57 216.48 97.57 216.48 118.21 210.77 118.21"/><polyline class="cls-1" points="228.52 92.31 234.22 92.31 234.22 102.56 244.73 102.56 244.73 92.31 250.42 92.31 250.42 118.21 244.73 118.21 244.73 107.81 234.22 107.81 234.22 118.21 228.52 118.21"/><path class="cls-1" d="M255.81,105.34v-.07a13.4,13.4,0,0,1,13.8-13.4c8,0,13.73,5.95,13.73,13.31v.09c0,7.36-5.8,13.38-13.8,13.38s-13.73-6-13.73-13.31m21.57,0v-.07a7.88,7.88,0,0,0-7.84-8.16,7.75,7.75,0,0,0-7.77,8.07v.09a7.85,7.85,0,0,0,7.84,8.13,7.75,7.75,0,0,0,7.77-8.06"/><path class="cls-1" d="M288.66,92.31H300.5c3.29,0,5.82.92,7.53,2.63a8.14,8.14,0,0,1,2.22,5.92v.06a8,8,0,0,1-5.54,8l6.33,9.25h-6.67l-5.54-8.29h-4.48v8.29h-5.69m11.45-13.32c2.78,0,4.37-1.48,4.37-3.66v-.07c0-2.44-1.7-3.7-4.48-3.7h-5.65v7.43Z"/><polyline class="cls-1" points="315.94 92.31 315.94 118.21 321.63 118.21 321.63 92.31"/><polyline class="cls-1" points="333.74 97.57 325.87 97.57 325.87 92.31 347.32 92.31 347.32 97.57 339.44 97.57 339.44 118.21 333.74 118.21"/><polyline class="cls-1" points="360.23 107.99 350.29 92.31 356.94 92.31 363.13 102.71 369.41 92.31 375.87 92.31 365.93 107.89 365.93 118.21 360.23 118.21"/><path class="cls-1" d="M390.87,105.34v-.07a13.39,13.39,0,0,1,13.79-13.4c8,0,13.76,5.95,13.76,13.31v.09c0,7.36-5.84,13.38-13.82,13.38s-13.73-6-13.73-13.31m21.57,0v-.07a7.88,7.88,0,0,0-7.84-8.16,7.77,7.77,0,0,0-7.79,8.07v.09a7.88,7.88,0,0,0,7.85,8.13,7.75,7.75,0,0,0,7.78-8.06"/><polyline class="cls-1" points="423.71 92.31 443.43 92.31 443.43 97.49 429.42 97.49 429.42 103 441.78 103 441.78 108.18 429.42 108.18 429.42 118.21 423.71 118.21"/><polyline class="cls-1" points="460.56 92.31 466.26 92.31 466.26 103.64 476.77 92.31 483.65 92.31 473.1 103.31 484.13 118.21 477.29 118.21 469.26 107.18 466.26 110.3 466.26 118.21 460.56 118.21"/><polyline class="cls-1" points="487.91 92.31 507.43 92.31 507.43 97.38 493.57 97.38 493.57 102.64 505.77 102.64 505.77 107.7 493.57 107.7 493.57 113.14 507.63 113.14 507.63 118.21 487.91 118.21"/><polyline class="cls-1" points="513.37 92.31 518.61 92.31 530.75 108.26 530.75 92.31 536.37 92.31 536.37 118.21 531.53 118.21 518.99 101.75 518.99 118.21 513.37 118.21"/><polyline class="cls-1" points="550.13 107.99 540.18 92.31 546.83 92.31 553 102.71 559.3 92.31 565.78 92.31 555.83 107.89 555.83 118.21 550.13 118.21"/><path class="cls-1" d="M574.82,92.13h5.25l11.1,26.08h-6l-2.36-5.81h-11l-2.37,5.81h-5.8m17.08-10.85L577.35,99l-3.42,8.4Z"/><polyline class="cls-2" points="20.51 164.38 53.79 158.67 72.72 129.47 89.98 152.44 114.85 148.17 72.63 88.67"/><polyline class="cls-2" points="114.46 16.08 89.62 11.8 73.03 34.08 54.24 5.73 20.92 0 72.7 74.99"/><polyline class="cls-3" points="0 19.25 0 57.92 27.52 81.95 0 105.46 0 145.22 66.74 81.69"/><polyline class="cls-3" points="127.61 128.86 127.61 99.85 110.49 81.69 127.61 64.02 127.61 34.59 78.38 81.83"/></g></g></svg>