<svg xmlns="http://www.w3.org/2000/svg" viewBox="0 0 500 500"><g id="freepik--Floor--inject-59"><ellipse cx="250" cy="339.82" rx="224.54" ry="127.55" style="fill:#f5f5f5"></ellipse></g><g id="freepik--Shadows--inject-59"><polygon points="202.84 255.35 260.24 223.59 330.05 263.9 272.66 295.66 202.84 255.35" style="fill:#e0e0e0"></polygon><ellipse cx="383" cy="319.67" rx="58.09" ry="33" style="fill:#e0e0e0"></ellipse><path d="M300.26,402.59,178.59,333.51l-1.27.74c-12.53-7.2-29.92-11.66-49.15-11.66C90,322.59,59,340.17,59,361.86S90,401.13,128.17,401.13c1.32,0,2.64,0,3.94-.07l81.57,46.73a19.51,19.51,0,0,0,19.26.08L300.24,410A4.24,4.24,0,0,0,300.26,402.59Z" style="fill:#e0e0e0"></path></g><g id="freepik--Symbol--inject-59"><path d="M312.18,124.28C312.18,88,291.89,55.42,265,39.9c-13.52-7.81-25.36-9.39-33.81-4.43h0l-22.68,13h0c-.41.23-.82.47-1.22.73l.25-.17-.37.22h0c-7.94,5.13-12.7,16.31-12.7,33.88,0,36.62,20.3,68.85,47.19,84.38,13.51,7.8,25.35,9.46,33.8,4.54L298.28,159q.39-.21.78-.45l.4-.23v0C307.42,153.2,312.18,142,312.18,124.28Z" style="fill:#C53F3F"></path><ellipse cx="241.66" cy="110.4" rx="39.41" ry="68.42" transform="translate(-23.63 124.81) rotate(-27.66)" style="fill:#fff;opacity:0.5"></ellipse><path d="M252.83,116.84c0-19.63-5.58-28.71-11.17-31.94s-11.16-.58-11.16,19,5.58,28.71,11.16,31.94S252.83,136.47,252.83,116.84Z" style="fill:#C53F3F"></path><path d="M252.83,116.84c0-19.63-5.58-28.71-11.17-31.94s-11.16-.58-11.16,19,5.58,28.71,11.16,31.94S252.83,136.47,252.83,116.84Z" style="opacity:0.30000000000000004"></path><path d="M442.87,295.87c0-36.33-20.3-68.85-47.2-84.38-13.51-7.8-25.36-9.39-33.8-4.43h0l-22.67,13h0q-.63.33-1.23.72l.25-.16-.37.21v0c-7.94,5.12-12.7,16.3-12.7,33.87,0,36.62,20.3,68.85,47.19,84.38,13.51,7.8,25.35,9.46,33.8,4.55L429,330.58l.78-.45.4-.23v0C438.1,324.79,442.87,313.6,442.87,295.87Z" style="fill:#C53F3F"></path><ellipse cx="372.34" cy="281.99" rx="39.41" ry="68.42" transform="translate(-88.36 205.1) rotate(-27.66)" style="fill:#fff;opacity:0.5"></ellipse><path d="M383.51,288.43c0-19.63-5.58-28.71-11.17-31.93s-11.16-.59-11.16,19,5.58,28.72,11.16,31.94S383.51,308.07,383.51,288.43Z" style="fill:#C53F3F"></path><path d="M383.51,288.43c0-19.63-5.58-28.71-11.17-31.93s-11.16-.59-11.16,19,5.58,28.72,11.16,31.94S383.51,308.07,383.51,288.43Z" style="opacity:0.30000000000000004"></path><polygon points="369.28 103.04 345.95 116.4 224.66 251.47 267.55 276.23 290.87 262.86 412.16 127.79 369.28 103.04" style="fill:#C53F3F"></polygon><polygon points="388.83 141.16 267.55 276.23 290.87 262.86 412.16 127.79 388.83 141.16" style="opacity:0.30000000000000004"></polygon><polygon points="345.95 116.4 388.83 141.16 267.55 276.23 224.66 251.47 345.95 116.4" style="fill:#fff;opacity:0.5"></polygon></g><g id="freepik--Stars--inject-59"><path d="M176.91,105.29l2.39,7a5.41,5.41,0,0,0,1.8,2.55l5.33,4c2,1.46,2.75,4.69,1.33,5.47l-3.86,2.11a1.92,1.92,0,0,0-.69,2l.91,6.66c.33,2.45-1.71,3-3.47.91l-4.77-5.65a3.1,3.1,0,0,0-2.22-1.29l-4.78.14c-1.75.06-3.8-2.85-3.46-4.91l.91-5.61a4.56,4.56,0,0,0-.69-2.84l-3.86-6.57c-1.42-2.42-.64-4.75,1.32-3.94l5.34,2.18a1.32,1.32,0,0,0,1.8-.47l2.38-4.2C173.5,101.27,176,102.73,176.91,105.29Z" style="fill:#455a64"></path><path d="M423.24,154.48l2.39,7a5.51,5.51,0,0,0,1.79,2.55l5.34,4c2,1.46,2.74,4.7,1.33,5.47l-3.87,2.12a1.91,1.91,0,0,0-.68,2l.91,6.66c.33,2.45-1.72,3-3.47.91l-4.77-5.66a3.12,3.12,0,0,0-2.23-1.28l-4.77.14c-1.75,0-3.8-2.85-3.47-4.91l.92-5.61A4.56,4.56,0,0,0,412,165l-3.86-6.58c-1.42-2.41-.64-4.74,1.32-3.94l5.34,2.19a1.33,1.33,0,0,0,1.8-.47L419,152C419.83,150.46,422.36,151.92,423.24,154.48Z" style="fill:#455a64"></path><path d="M400.66,179.43l1.47,4.3a3.44,3.44,0,0,0,1.11,1.58l3.3,2.46c1.22.9,1.7,2.9.82,3.38L405,192.46a1.2,1.2,0,0,0-.43,1.27l.56,4.12c.21,1.51-1.06,1.84-2.14.56l-3-3.5a1.89,1.89,0,0,0-1.38-.79l-2.95.09c-1.08,0-2.35-1.77-2.14-3l.56-3.47a2.87,2.87,0,0,0-.42-1.76l-2.39-4.06c-.88-1.5-.4-2.94.82-2.44l3.3,1.35a.82.82,0,0,0,1.11-.29l1.48-2.6C398.55,176.94,400.11,177.85,400.66,179.43Z" style="fill:#455a64"></path><path d="M161.89,72.39l1.47,4.3a3.46,3.46,0,0,0,1.12,1.58l3.3,2.46c1.21.9,1.69,2.9.82,3.38l-2.39,1.31a1.18,1.18,0,0,0-.43,1.26l.57,4.12c.2,1.52-1.06,1.85-2.15.56l-2.95-3.49a1.93,1.93,0,0,0-1.37-.8l-3,.09c-1.08,0-2.35-1.76-2.14-3l.56-3.47a2.73,2.73,0,0,0-.42-1.76l-2.39-4.07c-.88-1.49-.39-2.93.82-2.43l3.3,1.35a.82.82,0,0,0,1.11-.29l1.48-2.61C159.78,69.9,161.35,70.8,161.89,72.39Z" style="fill:#455a64"></path></g><g id="freepik--Character--inject-59"><path d="M150.45,209.32s-1.34,58.58-10.9,74.19-49.31,48.37-49.31,48.37l-6.75-9.07s21.36-39.43,31.13-44.28L122.26,209Z" style="fill:#263238"></path><polygon points="76.22 352.77 81.46 350.52 79.19 346.2 76.22 352.77" style="fill:#C53F3F"></polygon><path d="M73.51,334.24h0a11.86,11.86,0,0,0-1.32,4.47l-.78,8.73,4.81,5.33,3-6.57Z" style="fill:#C53F3F"></path><polygon points="76.22 352.77 81.46 350.52 79.19 346.2 76.22 352.77" style="opacity:0.5;mix-blend-mode:overlay"></polygon><path d="M73.51,334.24h0a11.86,11.86,0,0,0-1.32,4.47l-.78,8.73,4.81,5.33,3-6.57Z" style="opacity:0.2;mix-blend-mode:overlay"></path><path d="M89.81,311.88s1.78,9.94,10.73,10.93c0,0,1.24,1.44-1.77,4.65s-8.53,9.92-8.53,9.92.57,10.46,4.63,14.41c2,2,4.11,4,5.69,5.66a2.79,2.79,0,0,1-.75,4.47h0a13.86,13.86,0,0,1-15.25-2l-1.63-1.43a9.07,9.07,0,0,1-3-5.85l-.7-6.42-5.49-8a3.76,3.76,0,0,1-.19-3.93C77,328,87.51,309.48,89.81,311.88Z" style="fill:#C53F3F"></path><path d="M115.58,205.48S97.4,224.38,104,247.25s21.37,54.28,21.37,54.28-2.23,6.81,4,21.28,12,30.58,12,30.58,6,3.41,11.56-2.53L137.1,231.39s12.08-8.47,10.5-22.53Z" style="fill:#37474f"></path><polygon points="142.5 368.49 144.66 378.05 150.12 381.02 149.91 374.05 142.5 368.49" style="fill:#C53F3F"></polygon><polygon points="142.5 368.49 144.66 378.05 150.12 381.02 149.91 374.05 142.5 368.49" style="opacity:0.2"></polygon><polygon points="150.12 381.02 152.87 379.21 149.91 374.05 150.12 381.02" style="fill:#C53F3F"></polygon><polygon points="150.12 381.02 152.87 379.21 149.91 374.05 150.12 381.02" style="opacity:0.5"></polygon><path d="M138.47,345.58s7.69,3.52,13.47-2.17l-.26-1.8s2-.59,2.68,3,4.31,21.05,4.31,21.05S165.22,374.09,170,376s5.75,4.59,2.61,6.92l-.09.07a12.49,12.49,0,0,1-12.85,1.23l-3.71-1.77a7.21,7.21,0,0,1-3.35-3.35l-.45-.93a13.25,13.25,0,0,0-5.12-5.6l-2.74-1.64a3.87,3.87,0,0,1-1.76-2.4l-5-20.92a1.76,1.76,0,0,1,.94-2Z" style="fill:#C53F3F"></path><path d="M144.32,278.73a1.86,1.86,0,0,1-.93-3.47L203,240.78a1.86,1.86,0,1,1,1.86,3.22l-59.57,34.48A1.93,1.93,0,0,1,144.32,278.73Z" style="fill:#37474f"></path><path d="M147.2,331.23a1.83,1.83,0,0,1-1.6-.93,1.86,1.86,0,0,1,.67-2.54l59.57-34.47a1.85,1.85,0,1,1,1.86,3.21L148.13,331A1.83,1.83,0,0,1,147.2,331.23Z" style="fill:#37474f"></path><path d="M144.11,291.24a.91.91,0,0,1-.8-.46.92.92,0,0,1,.34-1.27l60-34.72a.93.93,0,1,1,.93,1.61l-60,34.72A1,1,0,0,1,144.11,291.24Z" style="fill:#37474f"></path><path d="M145.8,304.54a.93.93,0,0,1-.47-1.73l60-34.72a.93.93,0,0,1,.93,1.61l-60,34.72A.93.93,0,0,1,145.8,304.54Z" style="fill:#37474f"></path><path d="M145.8,317.9a.93.93,0,0,1-.47-1.73l60-34.72a.93.93,0,0,1,.93,1.61l-60,34.72A.93.93,0,0,1,145.8,317.9Z" style="fill:#37474f"></path><path d="M200.28,300.08a.93.93,0,0,1-.93-.88l-3-52.93a.93.93,0,0,1,1.86-.11l3,52.94a.94.94,0,0,1-.88,1Z" style="fill:#37474f"></path><path d="M192.6,304.55a.93.93,0,0,1-.93-.87l-3-52.94a.93.93,0,1,1,1.85-.1l3,52.93a.92.92,0,0,1-.87,1Z" style="fill:#37474f"></path><path d="M184.91,309a.92.92,0,0,1-.92-.88l-3-52.93a.92.92,0,0,1,.87-1,.93.93,0,0,1,1,.87l3,52.94a.93.93,0,0,1-.87,1Z" style="fill:#37474f"></path><path d="M177.23,313.5a.93.93,0,0,1-.93-.87l-3-52.94a.93.93,0,1,1,1.85-.1l3,52.93a.93.93,0,0,1-.88,1Z" style="fill:#37474f"></path><path d="M169.55,318a.94.94,0,0,1-.93-.88l-3-52.94a.93.93,0,1,1,1.86-.1l3,52.94a.94.94,0,0,1-.88,1Z" style="fill:#37474f"></path><path d="M161.87,322.45a.93.93,0,0,1-.93-.88l-3-52.93a.93.93,0,0,1,1.86-.11l3,52.94a.93.93,0,0,1-.87,1Z" style="fill:#37474f"></path><path d="M154.18,326.93a.94.94,0,0,1-.92-.88l-3-52.94a.93.93,0,1,1,1.85-.1l3,52.94a.91.91,0,0,1-.87,1Z" style="fill:#37474f"></path><path d="M235.32,185l-40.48-23.37v27.3l40.48,23.37,9.54-2.49V198.46Zm3.45,18.38a5.1,5.1,0,0,1-2.3-4c0-1.47,1-2.06,2.3-1.33a5.07,5.07,0,0,1,2.3,4C241.07,203.48,240,204.07,238.77,203.34Z" style="fill:#C53F3F"></path><path d="M235.32,185l-40.48-23.37v27.3l40.48,23.37,9.54-2.49V198.46Zm3.45,18.38a5.1,5.1,0,0,1-2.3-4c0-1.47,1-2.06,2.3-1.33a5.07,5.07,0,0,1,2.3,4C241.07,203.48,240,204.07,238.77,203.34Z" style="fill:#fff;opacity:0.5"></path><path d="M239.2,250.31a1,1,0,0,1-.51-1.81L246,244a16.4,16.4,0,0,0,7.77-13.88V216.45a9.85,9.85,0,0,0-4.68-8.35L239,201.89a1,1,0,1,1,1-1.66l10.16,6.21a11.81,11.81,0,0,1,5.61,10v13.67a18.36,18.36,0,0,1-8.7,15.54l-7.34,4.5A1,1,0,0,1,239.2,250.31Z" style="fill:#C53F3F"></path><path d="M239.2,250.31a1,1,0,0,1-.51-1.81L246,244a16.4,16.4,0,0,0,7.77-13.88V216.45a9.85,9.85,0,0,0-4.68-8.35L239,201.89a1,1,0,1,1,1-1.66l10.16,6.21a11.81,11.81,0,0,1,5.61,10v13.67a18.36,18.36,0,0,1-8.7,15.54l-7.34,4.5A1,1,0,0,1,239.2,250.31Z" style="opacity:0.9"></path><path d="M226,371.85c0,4.29-3,6-6.72,3.88a14.85,14.85,0,0,1-6.73-11.65c0-4.29,3-6,6.73-3.88A14.87,14.87,0,0,1,226,371.85Z" style="fill:#455a64"></path><path d="M221.56,369.29c0,1.46-1,2.06-2.29,1.33a5.1,5.1,0,0,1-2.3-4c0-1.47,1-2.06,2.3-1.33A5.08,5.08,0,0,1,221.56,369.29Z" style="fill:#263238"></path><path d="M229.06,370.08a14.88,14.88,0,0,0-6.73-11.66c-2.65-1.53-4.93-1.07-6,.87a6.09,6.09,0,0,1,3,.91A14.87,14.87,0,0,1,226,371.85c0,2.12-.74,3.61-1.93,4.32l2.93-1.68h0C228.26,373.81,229.06,372.28,229.06,370.08Z" style="fill:#263238"></path><path d="M219.56,357.14c-4.68-2.71-8.47-.52-8.47,4.88L228,371.8C228,366.4,224.23,359.84,219.56,357.14Z" style="fill:#C53F3F"></path><path d="M222.6,354.76c-3.44-2-6.39-1.32-7.72,1.3a7,7,0,0,1,4.68,1.08c4.67,2.7,8.47,9.26,8.47,14.66l3-2.37C231.07,364,227.28,357.46,222.6,354.76Z" style="fill:#C53F3F"></path><path d="M222.6,354.76c-3.44-2-6.39-1.32-7.72,1.3a7,7,0,0,1,4.68,1.08c4.67,2.7,8.47,9.26,8.47,14.66l3-2.37C231.07,364,227.28,357.46,222.6,354.76Z" style="opacity:0.5"></path><path d="M275.46,400.43c0,4.29-3,6-6.73,3.88A14.85,14.85,0,0,1,262,392.66c0-4.29,3-6,6.73-3.88A14.88,14.88,0,0,1,275.46,400.43Z" style="fill:#455a64"></path><path d="M271,397.87c0,1.46-1,2.06-2.3,1.33a5.1,5.1,0,0,1-2.3-4c0-1.47,1-2.06,2.3-1.33A5.07,5.07,0,0,1,271,397.87Z" style="fill:#263238"></path><path d="M278.52,398.66A14.9,14.9,0,0,0,271.8,387c-2.65-1.53-4.94-1.07-6,.87a6.09,6.09,0,0,1,3,.91,14.88,14.88,0,0,1,6.73,11.65c0,2.12-.74,3.61-1.93,4.32l2.92-1.68h0C277.72,402.39,278.52,400.86,278.52,398.66Z" style="fill:#263238"></path><path d="M269,385.72c-4.68-2.71-8.47-.52-8.47,4.88l16.94,9.78C277.49,395,273.7,388.42,269,385.72Z" style="fill:#C53F3F"></path><path d="M272.06,383.34c-3.43-2-6.39-1.32-7.71,1.3a6.92,6.92,0,0,1,4.67,1.08c4.68,2.7,8.47,9.26,8.47,14.66l3-2.37C280.53,392.6,276.74,386,272.06,383.34Z" style="fill:#C53F3F"></path><path d="M272.06,383.34c-3.43-2-6.39-1.32-7.71,1.3a6.92,6.92,0,0,1,4.67,1.08c4.68,2.7,8.47,9.26,8.47,14.66l3-2.37C280.53,392.6,276.74,386,272.06,383.34Z" style="opacity:0.5"></path><path d="M216.06,434.86c0,4.29-3,6-6.72,3.88a14.85,14.85,0,0,1-6.73-11.65c0-4.29,3-6,6.73-3.88A14.87,14.87,0,0,1,216.06,434.86Z" style="fill:#455a64"></path><path d="M211.63,432.3c0,1.47-1,2.06-2.29,1.33a5.1,5.1,0,0,1-2.3-4c0-1.47,1-2.06,2.3-1.33A5.12,5.12,0,0,1,211.63,432.3Z" style="fill:#263238"></path><path d="M219.13,433.09a14.85,14.85,0,0,0-6.73-11.65c-2.65-1.53-4.93-1.08-6,.86a6.09,6.09,0,0,1,3,.91,14.87,14.87,0,0,1,6.72,11.65c0,2.12-.74,3.61-1.93,4.33l2.93-1.69h0C218.33,436.82,219.13,435.29,219.13,433.09Z" style="fill:#263238"></path><path d="M209.63,420.15c-4.68-2.7-8.47-.51-8.47,4.89l16.94,9.78C218.1,429.41,214.31,422.85,209.63,420.15Z" style="fill:#C53F3F"></path><path d="M212.67,417.77c-3.44-2-6.39-1.32-7.72,1.31a6.88,6.88,0,0,1,4.68,1.07c4.68,2.7,8.47,9.26,8.47,14.67l3-2.38C221.14,427,217.35,420.47,212.67,417.77Z" style="fill:#C53F3F"></path><path d="M212.67,417.77c-3.44-2-6.39-1.32-7.72,1.31a6.88,6.88,0,0,1,4.68,1.07c4.68,2.7,8.47,9.26,8.47,14.67l3-2.38C221.14,427,217.35,420.47,212.67,417.77Z" style="opacity:0.5"></path><path d="M278.15,399.07a1.86,1.86,0,0,1-.91-3.48,2.8,2.8,0,0,0,0-4.88L214.6,355.56a13.45,13.45,0,0,1-6.88-11L200.94,222.8a10.09,10.09,0,0,0-5-8.14l-4.38-2.56a3.89,3.89,0,0,0-3.85,0l-3.68,2.05a1.86,1.86,0,0,1-1.81-3.24l3.67-2a7.57,7.57,0,0,1,7.54.07l4.38,2.56a13.74,13.74,0,0,1,6.81,11.13l6.78,121.73a9.76,9.76,0,0,0,5,8l62.64,35.15a6.51,6.51,0,0,1,0,11.36A1.88,1.88,0,0,1,278.15,399.07Z" style="fill:#263238"></path><path d="M225.76,362.48a2.8,2.8,0,0,1-1.36-.36l-11.27-6.32a2.78,2.78,0,0,1,2.72-4.86l11.27,6.32a2.79,2.79,0,0,1-1.36,5.22Z" style="fill:#C53F3F"></path><path d="M230.66,364.3a1.88,1.88,0,0,1-.91-.24l-3.93-2.21a1.86,1.86,0,0,1,1.81-3.24l3.94,2.21a1.86,1.86,0,0,1-.91,3.48Z" style="fill:#253239"></path><path d="M276.25,390.81a2.69,2.69,0,0,1-1.36-.36l-11.27-6.32a2.78,2.78,0,0,1,2.72-4.86l11.28,6.33a2.78,2.78,0,0,1-1.37,5.21Z" style="fill:#C53F3F"></path><path d="M278.15,399.07a1.86,1.86,0,0,1-.91-3.48,2.8,2.8,0,0,0,0-4.88,1.86,1.86,0,0,1,1.82-3.24,6.51,6.51,0,0,1,0,11.36A1.88,1.88,0,0,1,278.15,399.07Z" style="fill:#455a64"></path><ellipse cx="159.87" cy="402.39" rx="5.49" ry="9.51" transform="translate(-179.78 133.85) rotate(-30)" style="fill:#455a64"></ellipse><path d="M162.17,403.72c0,1.47-1,2.06-2.3,1.33a5.09,5.09,0,0,1-2.29-4c0-1.47,1-2.06,2.29-1.33A5.1,5.1,0,0,1,162.17,403.72Z" style="fill:#263238"></path><path d="M169.67,404.51a14.88,14.88,0,0,0-6.73-11.65c-2.65-1.53-4.94-1.08-6,.86a6.06,6.06,0,0,1,3,.91,14.85,14.85,0,0,1,6.73,11.65c0,2.12-.74,3.61-1.93,4.33l2.92-1.69h0C168.87,408.24,169.67,406.71,169.67,404.51Z" style="fill:#263238"></path><path d="M160.16,391.57c-4.67-2.7-8.46-.51-8.46,4.89l16.93,9.78C168.63,400.83,164.84,394.27,160.16,391.57Z" style="fill:#C53F3F"></path><path d="M163.2,389.19c-3.43-2-6.38-1.32-7.71,1.31a6.84,6.84,0,0,1,4.67,1.07c4.68,2.7,8.47,9.26,8.47,14.67l3-2.38C171.67,398.46,167.88,391.89,163.2,389.19Z" style="fill:#C53F3F"></path><path d="M163.2,389.19c-3.43-2-6.38-1.32-7.71,1.31a6.84,6.84,0,0,1,4.67,1.07c4.68,2.7,8.47,9.26,8.47,14.67l3-2.38C171.67,398.46,167.88,391.89,163.2,389.19Z" style="opacity:0.5"></path><path d="M225,426.37a18.83,18.83,0,0,1-9.2-2.38l-61.6-34.57a13.45,13.45,0,0,1-6.88-11l-6.78-121.73a10.06,10.06,0,0,0-5-8.13L131,245.85a3.61,3.61,0,0,1,.06-6.27l51.2-28.7a1.86,1.86,0,1,1,1.81,3.24l-51,28.62,4.41,2.58a13.78,13.78,0,0,1,6.81,11.14L151,378.18a9.75,9.75,0,0,0,5,8l61.61,34.57a15.18,15.18,0,0,0,14.75,0l44.88-25.16a1.86,1.86,0,1,1,1.82,3.24L234.17,424A18.76,18.76,0,0,1,225,426.37Z" style="fill:#455a64"></path><path d="M166.37,396.91a2.73,2.73,0,0,1-1.37-.36l-11.27-6.32a2.79,2.79,0,0,1,2.73-4.86l11.27,6.33a2.78,2.78,0,0,1-1.36,5.21Z" style="fill:#C53F3F"></path><path d="M216.86,425.24a2.78,2.78,0,0,1-1.36-.35l-11.28-6.33A2.79,2.79,0,0,1,207,413.7L218.22,420a2.78,2.78,0,0,1-1.36,5.21Z" style="fill:#C53F3F"></path><path d="M225,426.39h0a18.78,18.78,0,0,1-7-1.35,1.86,1.86,0,1,1,1.38-3.45,15,15,0,0,0,5.61,1.09,1.86,1.86,0,1,1,0,3.71Z" style="fill:#455a64"></path><path d="M161.14,391.15a2.78,2.78,0,0,1-2.42-4.16l2.06-3.64a2.79,2.79,0,1,1,4.85,2.75l-2.07,3.64A2.78,2.78,0,0,1,161.14,391.15Z" style="fill:#C53F3F"></path><path d="M163.88,385.39a1.79,1.79,0,0,1-.91-.25,1.85,1.85,0,0,1-.7-2.53l9.2-16.22a7.8,7.8,0,0,1,6.79-3.95h4.57a6.89,6.89,0,0,0,6.88-6.88,1.86,1.86,0,1,1,3.71,0,10.6,10.6,0,0,1-10.59,10.59h-4.57a4.09,4.09,0,0,0-3.56,2.07l-9.2,16.22A1.85,1.85,0,0,1,163.88,385.39Z" style="fill:#455a64"></path><path d="M143.08,270.86a1.86,1.86,0,0,1-.94-3.46l60-34.72a1.85,1.85,0,1,1,1.86,3.21l-60,34.72A1.82,1.82,0,0,1,143.08,270.86Z" style="fill:#455a64"></path><path d="M171.27,398.73a1.88,1.88,0,0,1-.91-.24l-3.94-2.21a1.85,1.85,0,1,1,1.82-3.23l3.94,2.2a1.86,1.86,0,0,1-.91,3.48Z" style="fill:#455a64"></path><path d="M214,300a.93.93,0,0,1-.93-.93V248.66a.93.93,0,1,1,1.85,0v50.43A.93.93,0,0,1,214,300Z" style="fill:#263238"></path><path d="M221.57,304.35a.93.93,0,0,1-.93-.93V253a.93.93,0,1,1,1.85,0v50.43A.93.93,0,0,1,221.57,304.35Z" style="fill:#263238"></path><path d="M229.15,308.67a.92.92,0,0,1-.93-.93V257.31a.93.93,0,0,1,1.86,0v50.43A.93.93,0,0,1,229.15,308.67Z" style="fill:#263238"></path><path d="M236.73,313a.93.93,0,0,1-.93-.93V261.64a.93.93,0,1,1,1.86,0v50.43A.93.93,0,0,1,236.73,313Z" style="fill:#263238"></path><path d="M244.31,317.32a.93.93,0,0,1-.93-.93V266a.93.93,0,0,1,1.86,0v50.43A.93.93,0,0,1,244.31,317.32Z" style="fill:#263238"></path><path d="M251.89,321.65a.93.93,0,0,1-.93-.93V270.29a.93.93,0,1,1,1.86,0v50.43A.93.93,0,0,1,251.89,321.65Z" style="fill:#263238"></path><path d="M259.47,326a.93.93,0,0,1-.93-.93V274.61a.93.93,0,0,1,1.86,0V325A.93.93,0,0,1,259.47,326Z" style="fill:#263238"></path><path d="M267.05,330.3a.93.93,0,0,1-.93-.93V278.94a.93.93,0,0,1,1.86,0v50.43A.93.93,0,0,1,267.05,330.3Z" style="fill:#263238"></path><path d="M274.63,334.62a.93.93,0,0,1-.93-.93V283.26a.93.93,0,0,1,1.86,0v50.43A.93.93,0,0,1,274.63,334.62Z" style="fill:#263238"></path><path d="M282.21,339a.93.93,0,0,1-.93-.93V287.59a.93.93,0,1,1,1.86,0V338A.93.93,0,0,1,282.21,339Z" style="fill:#263238"></path><path d="M289.79,343.27a.93.93,0,0,1-.93-.93V291.91a.93.93,0,0,1,1.86,0v50.43A.92.92,0,0,1,289.79,343.27Z" style="fill:#263238"></path><path d="M297.37,347.6a.93.93,0,0,1-.92-.93V296.24a.93.93,0,1,1,1.85,0v50.43A.93.93,0,0,1,297.37,347.6Z" style="fill:#263238"></path><path d="M305,347.6a.93.93,0,0,1-.92-.93V300.56a.93.93,0,1,1,1.85,0v46.11A.93.93,0,0,1,305,347.6Z" style="fill:#263238"></path><path d="M312.54,341.1a.92.92,0,0,1-.93-.92V304.89a.93.93,0,1,1,1.85,0v35.29A.92.92,0,0,1,312.54,341.1Z" style="fill:#263238"></path><path d="M320.12,333.56a.93.93,0,0,1-.93-.93V309.21a.93.93,0,0,1,1.86,0v23.42A.93.93,0,0,1,320.12,333.56Z" style="fill:#263238"></path><path d="M327.7,326.73a.93.93,0,0,1-.93-.93V313.54a.93.93,0,0,1,1.86,0V325.8A.93.93,0,0,1,327.7,326.73Z" style="fill:#263238"></path><path d="M327.74,327.59a.84.84,0,0,1-.46-.13L203.92,256.79a.93.93,0,1,1,.92-1.61L328.2,325.85a.93.93,0,0,1,.34,1.27A.92.92,0,0,1,327.74,327.59Z" style="fill:#263238"></path><path d="M319,335.2a1,1,0,0,1-.46-.12L205.35,270.23A.92.92,0,0,1,205,269a.93.93,0,0,1,1.27-.35l113.18,64.85a.92.92,0,0,1-.46,1.73Z" style="fill:#263238"></path><path d="M310.9,343.19a.89.89,0,0,1-.46-.13L206.08,283.27a.93.93,0,0,1-.35-1.27.94.94,0,0,1,1.27-.34l104.37,59.79a.94.94,0,0,1,.34,1.27A.92.92,0,0,1,310.9,343.19Z" style="fill:#263238"></path><path d="M302.69,351.56a1.83,1.83,0,0,1-.93-.25L207.1,297.08a1.86,1.86,0,0,1,1.85-3.23l93.48,53.56L333.31,319l-128.46-73.6a1.86,1.86,0,0,1,1.85-3.22L337.36,317a1.89,1.89,0,0,1,.92,1.41,1.86,1.86,0,0,1-.59,1.57l-33.75,31.1A1.86,1.86,0,0,1,302.69,351.56Z" style="fill:#263238"></path><path d="M154,333.14a.91.91,0,0,1-.8-.46.92.92,0,0,1,.34-1.27l57.71-33.55a.93.93,0,1,1,.93,1.61L154.51,333A1,1,0,0,1,154,333.14Z" style="fill:#37474f"></path><path d="M161.62,337.47a.93.93,0,0,1-.8-.46.92.92,0,0,1,.34-1.27l57.71-33.55a.93.93,0,1,1,.93,1.6l-57.71,33.55A.9.9,0,0,1,161.62,337.47Z" style="fill:#37474f"></path><path d="M169.21,341.79a.93.93,0,0,1-.47-1.73l57.71-33.55a.93.93,0,0,1,.93,1.61l-57.71,33.55A1,1,0,0,1,169.21,341.79Z" style="fill:#37474f"></path><path d="M176.79,346.12a1,1,0,0,1-.81-.46.94.94,0,0,1,.34-1.27L234,310.84a.93.93,0,1,1,.93,1.6L177.25,346A.87.87,0,0,1,176.79,346.12Z" style="fill:#37474f"></path><path d="M184.37,350.44a.93.93,0,0,1-.47-1.73l57.71-33.55a.93.93,0,0,1,.94,1.61l-57.72,33.55A.93.93,0,0,1,184.37,350.44Z" style="fill:#37474f"></path><path d="M192,354.77a1,1,0,0,1-.81-.46.94.94,0,0,1,.34-1.27l57.71-33.55a.93.93,0,1,1,.94,1.6l-57.72,33.55A.84.84,0,0,1,192,354.77Z" style="fill:#37474f"></path><path d="M199.53,359.09a.91.91,0,0,1-.8-.46.93.93,0,0,1,.33-1.27l57.71-33.55a.92.92,0,0,1,1.27.34.93.93,0,0,1-.33,1.27L200,359A.93.93,0,0,1,199.53,359.09Z" style="fill:#37474f"></path><path d="M207.11,363.42a.93.93,0,0,1-.47-1.73l57.71-33.55a.93.93,0,0,1,.94,1.6l-57.71,33.55A.9.9,0,0,1,207.11,363.42Z" style="fill:#37474f"></path><path d="M214.69,367.74a.91.91,0,0,1-.8-.46.93.93,0,0,1,.33-1.27l57.72-33.55a.92.92,0,0,1,1.27.34.94.94,0,0,1-.34,1.27l-57.71,33.55A1,1,0,0,1,214.69,367.74Z" style="fill:#37474f"></path><path d="M222.27,372.07a.93.93,0,0,1-.47-1.73l57.72-33.55a.93.93,0,0,1,1.27.33.94.94,0,0,1-.34,1.27l-57.71,33.55A.9.9,0,0,1,222.27,372.07Z" style="fill:#37474f"></path><path d="M229.85,376.39a.91.91,0,0,1-.8-.46.92.92,0,0,1,.34-1.27l57.71-33.55a.93.93,0,1,1,.93,1.61l-57.71,33.55A1,1,0,0,1,229.85,376.39Z" style="fill:#37474f"></path><path d="M237.43,380.72a.93.93,0,0,1-.8-.46A.92.92,0,0,1,237,379l57.71-33.55a.93.93,0,1,1,.93,1.6L237.9,380.59A.9.9,0,0,1,237.43,380.72Z" style="fill:#37474f"></path><polygon points="214.99 357.2 168.85 330.57 168.85 267.32 214.99 293.96 214.99 357.2" style="fill:#C53F3F"></polygon><polygon points="214.99 357.2 214.99 293.96 261.12 267.32 261.12 330.57 214.99 357.2" style="fill:#C53F3F"></polygon><polygon points="214.99 357.2 168.85 330.57 168.85 267.32 214.99 293.96 214.99 357.2" style="opacity:0.5"></polygon><polygon points="214.99 357.2 214.99 293.96 261.12 267.32 261.12 330.57 214.99 357.2" style="opacity:0.7000000000000001"></polygon><polygon points="214.99 291.38 165.27 262.68 214.99 233.97 264.7 262.68 214.99 291.38" style="fill:#C53F3F"></polygon><polygon points="186.89 250.19 236.61 278.9 243.08 275.16 193.37 246.46 186.89 250.19" style="fill:#C53F3F"></polygon><polygon points="186.89 250.19 236.61 278.9 243.08 275.16 193.37 246.46 186.89 250.19" style="fill:#fff;opacity:0.8"></polygon><polygon points="243.08 250.19 193.37 278.9 186.89 275.16 236.61 246.46 243.08 250.19" style="fill:#C53F3F"></polygon><polygon points="243.08 250.19 193.37 278.9 186.89 275.16 236.61 246.46 243.08 250.19" style="fill:#fff;opacity:0.8"></polygon><polygon points="214.99 301.31 165.27 272.6 165.27 262.68 214.99 291.38 214.99 301.31" style="fill:#C53F3F"></polygon><polygon points="214.99 301.31 214.99 291.38 264.7 262.68 264.7 272.61 214.99 301.31" style="fill:#C53F3F"></polygon><polygon points="214.99 301.31 165.27 272.6 165.27 262.68 214.99 291.38 214.99 301.31" style="opacity:0.30000000000000004"></polygon><polygon points="214.99 301.31 214.99 291.38 264.7 262.68 264.7 272.61 214.99 301.31" style="opacity:0.5"></polygon><polygon points="193.37 344.76 186.89 341.05 186.89 275.16 193.37 278.9 193.37 344.76" style="fill:#C53F3F"></polygon><polygon points="236.61 344.76 243.08 341.05 243.08 275.16 236.61 278.9 236.61 344.76" style="fill:#C53F3F"></polygon><path d="M238.71,288.74a4.44,4.44,0,0,1-2,3.49c-1.11.65-2,.12-2-1.16a4.49,4.49,0,0,1,2-3.5C237.81,286.93,238.71,287.45,238.71,288.74Z" style="fill:#C53F3F"></path><path d="M259.7,276.62a4.46,4.46,0,0,1-2,3.49c-1.12.64-2,.12-2-1.16a4.46,4.46,0,0,1,2-3.5C258.8,274.81,259.7,275.33,259.7,276.62Z" style="fill:#C53F3F"></path><path d="M236.69,290.43a1,1,0,0,1-1-1V275.51a16.83,16.83,0,0,1,8.12-14.35l4.92-3a6.53,6.53,0,0,1,9.9,5.6v13.52a1,1,0,1,1-2,0V263.81a4.58,4.58,0,0,0-6.94-3.93l-4.92,2.95a14.88,14.88,0,0,0-7.19,12.68v13.95A1,1,0,0,1,236.69,290.43Z" style="fill:#C53F3F"></path><path d="M236.69,290.43a1,1,0,0,1-1-1V275.51a16.83,16.83,0,0,1,8.12-14.35l4.92-3a6.53,6.53,0,0,1,9.9,5.6v13.52a1,1,0,1,1-2,0V263.81a4.58,4.58,0,0,0-6.94-3.93l-4.92,2.95a14.88,14.88,0,0,0-7.19,12.68v13.95A1,1,0,0,1,236.69,290.43Z" style="opacity:0.9"></path><polygon points="268.41 264.85 292.34 279.83 292.34 347.65 268.41 332.67 268.41 264.85" style="fill:#C53F3F"></polygon><polygon points="221.02 360.03 221.02 292.21 268.41 264.85 268.41 332.67 221.02 360.03" style="fill:#C53F3F"></polygon><polygon points="221.02 360.03 221.02 292.21 268.41 264.85 268.41 332.67 221.02 360.03" style="opacity:0.30000000000000004"></polygon><path d="M224.45,340l6.62-38.78a24.27,24.27,0,0,1,11.77-16.9L267.67,270a9.9,9.9,0,0,1,14.75,7.2L289,323.9a24.78,24.78,0,0,1-20.29,27.86L241,356.56A14.35,14.35,0,0,1,224.45,340Z" style="fill:#C53F3F"></path><path d="M224.45,340l6.62-38.78a24.27,24.27,0,0,1,11.77-16.9L267.67,270a9.9,9.9,0,0,1,14.75,7.2L289,323.9a24.78,24.78,0,0,1-20.29,27.86L241,356.56A14.35,14.35,0,0,1,224.45,340Z" style="fill:#fff;opacity:0.8"></path><polygon points="244.96 375.01 244.96 307.19 292.34 279.83 292.34 347.65 244.96 375.01" style="fill:#C53F3F"></polygon><polygon points="244.96 375.01 244.96 307.19 292.34 279.83 292.34 347.65 244.96 375.01" style="opacity:0.5"></polygon><polygon points="221.02 292.21 244.96 307.19 244.96 375.01 221.02 360.03 221.02 292.21" style="fill:#C53F3F"></polygon><polygon points="232.99 355.4 232.99 299.71 244.96 307.19 244.96 375.01 232.99 355.4" style="opacity:0.30000000000000004"></polygon><path d="M260.17,304.78a4.46,4.46,0,0,1-2,3.5c-1.11.64-2,.12-2-1.17a4.44,4.44,0,0,1,2-3.49C259.27,303,260.17,303.5,260.17,304.78Z" style="fill:#C53F3F"></path><path d="M281.17,292.66a4.45,4.45,0,0,1-2,3.49c-1.12.65-2,.13-2-1.16a4.43,4.43,0,0,1,2-3.49C280.26,290.85,281.17,291.38,281.17,292.66Z" style="fill:#C53F3F"></path><path d="M258.15,306.47a1,1,0,0,1-1-1V291.56a16.82,16.82,0,0,1,8.13-14.36l4.92-2.95a6.53,6.53,0,0,1,9.89,5.6v13.53a1,1,0,1,1-1.94,0V279.85a4.59,4.59,0,0,0-6.95-3.93l-4.92,2.95a14.87,14.87,0,0,0-7.18,12.69V305.5A1,1,0,0,1,258.15,306.47Z" style="fill:#C53F3F"></path><path d="M258.15,306.47a1,1,0,0,1-1-1V291.56a16.82,16.82,0,0,1,8.13-14.36l4.92-2.95a6.53,6.53,0,0,1,9.89,5.6v13.53a1,1,0,1,1-1.94,0V279.85a4.59,4.59,0,0,0-6.95-3.93l-4.92,2.95a14.87,14.87,0,0,0-7.18,12.69V305.5A1,1,0,0,1,258.15,306.47Z" style="opacity:0.9"></path><path d="M274.89,354.34a1.86,1.86,0,0,1-.9-3.49L335.54,317a1.86,1.86,0,0,1,1.79,3.25L275.78,354.1A1.8,1.8,0,0,1,274.89,354.34Z" style="fill:#37474f"></path><path d="M241.14,385.43a1.83,1.83,0,0,1-1.62-1,1.85,1.85,0,0,1,.73-2.52l61.54-33.88a1.86,1.86,0,0,1,1.79,3.26L242,385.2A1.83,1.83,0,0,1,241.14,385.43Z" style="fill:#37474f"></path><path d="M286.74,359.74a.91.91,0,0,1-.68-.3.93.93,0,0,1,.05-1.31L319.86,327a.93.93,0,0,1,1.31.05.94.94,0,0,1-.05,1.32l-33.75,31.09A.9.9,0,0,1,286.74,359.74Z" style="fill:#37474f"></path><path d="M257.24,375.88a.91.91,0,0,1-.68-.3.92.92,0,0,1,.05-1.31l33.75-31.1a.93.93,0,0,1,1.26,1.37l-33.75,31.1A.94.94,0,0,1,257.24,375.88Z" style="fill:#37474f"></path><path d="M271.62,367.76a.91.91,0,0,1-.68-.3.92.92,0,0,1,.05-1.31l33.75-31.1a.92.92,0,1,1,1.25,1.36l-33.74,31.1A.9.9,0,0,1,271.62,367.76Z" style="fill:#37474f"></path><path d="M241.14,385.43a1.89,1.89,0,0,1-.92-.24L145.56,331a1.85,1.85,0,0,1,1.84-3.22l93.48,53.56,30.89-28.46-128.46-73.6a1.85,1.85,0,0,1,1.84-3.22l130.66,74.86a1.86,1.86,0,0,1,.34,3l-33.75,31.1A1.82,1.82,0,0,1,241.14,385.43Z" style="fill:#455a64"></path><path d="M153.11,334.07a.92.92,0,0,1-.92-.93V282.71a.93.93,0,1,1,1.85,0v50.43A.92.92,0,0,1,153.11,334.07Z" style="fill:#455a64"></path><path d="M160.7,338.4a.93.93,0,0,1-.93-.93V287a.93.93,0,1,1,1.85,0v50.43A.93.93,0,0,1,160.7,338.4Z" style="fill:#455a64"></path><path d="M168.28,342.72a.92.92,0,0,1-.93-.93V291.36a.93.93,0,0,1,1.86,0v50.43A.93.93,0,0,1,168.28,342.72Z" style="fill:#455a64"></path><path d="M175.86,347.05a.93.93,0,0,1-.93-.93V295.69a.93.93,0,0,1,1.86,0v50.43A.93.93,0,0,1,175.86,347.05Z" style="fill:#455a64"></path><path d="M183.44,351.37a.93.93,0,0,1-.93-.93V300a.93.93,0,1,1,1.86,0v50.43A.93.93,0,0,1,183.44,351.37Z" style="fill:#455a64"></path><path d="M191,355.7a.93.93,0,0,1-.93-.93V304.34a.93.93,0,1,1,1.86,0v50.43A.93.93,0,0,1,191,355.7Z" style="fill:#455a64"></path><path d="M198.6,360a.93.93,0,0,1-.93-.93V308.66a.93.93,0,0,1,1.86,0v50.43A.93.93,0,0,1,198.6,360Z" style="fill:#455a64"></path><path d="M206.18,364.35a.93.93,0,0,1-.93-.93V313a.93.93,0,1,1,1.86,0v50.43A.93.93,0,0,1,206.18,364.35Z" style="fill:#455a64"></path><path d="M213.76,368.67a.93.93,0,0,1-.93-.93V317.31a.93.93,0,0,1,1.86,0v50.43A.93.93,0,0,1,213.76,368.67Z" style="fill:#455a64"></path><path d="M221.34,373a.93.93,0,0,1-.93-.93V321.64a.93.93,0,0,1,1.86,0v50.43A.93.93,0,0,1,221.34,373Z" style="fill:#455a64"></path><path d="M228.92,377.32a.93.93,0,0,1-.93-.93V326a.93.93,0,0,1,1.86,0v50.43A.92.92,0,0,1,228.92,377.32Z" style="fill:#455a64"></path><path d="M236.5,381.65a.93.93,0,0,1-.92-.93V330.29a.93.93,0,1,1,1.85,0v50.43A.93.93,0,0,1,236.5,381.65Z" style="fill:#455a64"></path><path d="M244.08,381.65a.93.93,0,0,1-.92-.93V334.61a.93.93,0,1,1,1.85,0v46.11A.93.93,0,0,1,244.08,381.65Z" style="fill:#455a64"></path><path d="M251.67,375.15a.92.92,0,0,1-.93-.92V338.94a.93.93,0,1,1,1.85,0v35.29A.92.92,0,0,1,251.67,375.15Z" style="fill:#455a64"></path><path d="M259.25,367.61a.93.93,0,0,1-.93-.93V343.26a.93.93,0,1,1,1.85,0v23.42A.93.93,0,0,1,259.25,367.61Z" style="fill:#455a64"></path><path d="M266.83,360.78a.93.93,0,0,1-.93-.93V347.59a.93.93,0,1,1,1.86,0v12.26A.93.93,0,0,1,266.83,360.78Z" style="fill:#455a64"></path><path d="M266.87,361.64a.84.84,0,0,1-.46-.13L143.05,290.84a.93.93,0,1,1,.92-1.61L267.33,359.9a.93.93,0,0,1,.34,1.27A.92.92,0,0,1,266.87,361.64Z" style="fill:#455a64"></path><path d="M258.13,369.25a1,1,0,0,1-.46-.12L144.48,304.28a.93.93,0,0,1,.92-1.61l113.19,64.85a.92.92,0,0,1-.46,1.73Z" style="fill:#455a64"></path><path d="M250,377.24a.89.89,0,0,1-.46-.13L145.21,317.32a.92.92,0,0,1-.35-1.26.94.94,0,0,1,1.27-.35L250.5,375.5a.93.93,0,0,1-.47,1.74Z" style="fill:#455a64"></path><path d="M137.29,241a2.79,2.79,0,0,1-1.36-5.22l45.86-25.71a2.79,2.79,0,0,1,2.73,4.86l-45.87,25.71A2.8,2.8,0,0,1,137.29,241Z" style="fill:#C53F3F"></path><path d="M132,243.06a1.86,1.86,0,0,1-.91-3.48l4.53-2.54a1.86,1.86,0,1,1,1.81,3.24l-4.52,2.54A1.88,1.88,0,0,1,132,243.06Z" style="fill:#455a64"></path><path d="M195.63,210.91c-1.22-2.57-3-6.66-5.5-8L177.24,195h0l-27.52-18.55-16.07,7.61c8.42,9.17,35.67,19,35.67,19a14.18,14.18,0,0,0,1.12,2.38l-.08,0c.19.43,6.38,14.31,8.43,14.1.9-.08,1.06-1.29,1-2.62l-1.11-5.37c1.37.4,2.62.64,3.53.88,1.36.36,2.7,3,3.41,4.2a2.67,2.67,0,0,0,3.72.93l5.38-3.32a2.55,2.55,0,0,0,1.19-2.32A2.37,2.37,0,0,0,195.63,210.91Z" style="fill:#ffa8a7"></path><path d="M110.35,127.38,99.86,172.72a12.79,12.79,0,0,0,1.07,8.66h0a12.72,12.72,0,0,0,17.78,5.15l23.62-13.95v-45.2Z" style="fill:#263238"></path><path d="M115,163.15l24-9.79A11.53,11.53,0,0,1,154.94,164v12.7l-36.33,11.33Z" style="fill:#ffa8a7"></path><path d="M137.22,154.64s7.59,4.74,8.62,12.61c0,0-4.12,6.59-17.2,6.21,0,0-3-10.46-8.14-12.54L115,163.15l-.41,26.28,3.74,5.36a4.36,4.36,0,0,1,.33,4.46l-3.11,6.23s5.61,9.64,20.27,9.64a22.51,22.51,0,0,0,14.6-5.8L150,192.67s18.57-12.54-8.3-39.74Z" style="fill:#C53F3F"></path><path d="M117,117.63s-1.39-5.29-2.33-5.2-.83,4.73-.83,4.73-4.4-.39-3.94.87,5.59,2.56,5.59,2.56Z" style="fill:#263238"></path><path d="M110.16,136c2,14.94,14.59,14.94,14.59,14.94l26.39-11.61a9.81,9.81,0,0,0,2.6-5.75,17.28,17.28,0,0,0,0-4.94v-.05c-.85-6.28-5.54-13-15.78-15.11a33.8,33.8,0,0,0-6.81-.65,32,32,0,0,0-3.3.16c-8,.78-13.53,4.5-16.18,10.27a18.74,18.74,0,0,0-1.32,4.08A25.88,25.88,0,0,0,110.16,136Z" style="fill:#263238"></path><path d="M127.72,164.93h0a6.09,6.09,0,0,0,9.83-4.8V140.84h-12.8v18A7.73,7.73,0,0,0,127.72,164.93Z" style="fill:#ffa8a7"></path><path d="M137.55,157.7a22.39,22.39,0,0,1-12.8-12.17v-4.69h12.8Z" style="fill:#f28f8f"></path><path d="M134.78,117.32c4.86,0,15.17,2.71,16.37,15.4s0,22.55-6.52,23.5-21.76-3.8-23.8-20.24S130.05,117.32,134.78,117.32Z" style="fill:#ffa8a7"></path><polygon points="142.42 138.1 142.42 145.59 146.81 144.24 142.42 138.1" style="fill:#f28f8f"></polygon><path d="M136,139.39a1.53,1.53,0,1,0,1.53-1.52A1.53,1.53,0,0,0,136,139.39Z" style="fill:#263238"></path><path d="M146.05,138.33a1.53,1.53,0,1,0,1.53-1.53A1.53,1.53,0,0,0,146.05,138.33Z" style="fill:#263238"></path><path d="M149.44,135.15l-3-1.77s1.14-1.19,2.28-.48A2.09,2.09,0,0,1,149.44,135.15Z" style="fill:#263238"></path><path d="M144.49,148.62a6.52,6.52,0,0,1-4.11-1.1s-.28,2.16,1.53,2.58A2.36,2.36,0,0,0,144.49,148.62Z" style="fill:#f28f8f"></path><path d="M147.09,121.64s-1.83,17.53-25.67,18.08c0,0-7.2-17.42,7-23.08S147.09,121.64,147.09,121.64Z" style="fill:#263238"></path><path d="M125.41,140.35c1.53,2.66,1.14,5.88-1,7-1.37.71-5.43-.82-7-3.48s-.67-4.93,1.41-6.13S123.88,137.7,125.41,140.35Z" style="fill:#ffa8a7"></path><path d="M118.53,180.74l-3.91,8.69a7.5,7.5,0,0,0,3.14-.67l1.73-7.7A.51.51,0,0,0,118.53,180.74Z" style="fill:#f28f8f"></path><path d="M155.93,236.18a13.89,13.89,0,0,0-5.27-6.43l-2.26-1.48s6.18,1.42,6.26-.66S140,220.12,140,220.12l-29.49-22.37s2.08-3.4,4.54-8.35c4.21-.23,6.67-3.65,8.06-7a16.17,16.17,0,0,0-3.21-17.51,10.31,10.31,0,0,0-.92-.86,7.26,7.26,0,0,0-2.26-1.59l-2,.81a21.29,21.29,0,0,0-11.25,10.55c-3.78,7.9-9.19,20-10,26.53-1.26,10.14,36.7,26.22,36.7,26.22,2.3,8,9.23,10.93,12.27,11.94a5.27,5.27,0,0,1,3.06,2.63h0a2.67,2.67,0,0,0,3.65,1.17l5.59-3A2.53,2.53,0,0,0,155.93,236.18Z" style="fill:#ffa8a7"></path><path d="M117.76,188.76l1.73-7.7a.5.5,0,0,0-.44-.61c-1.26,3.24-2.67,6.31-4,9A7.43,7.43,0,0,0,117.76,188.76Z" style="fill:#f28f8f"></path></g></svg>