<?xml version="1.0" encoding="utf-8"?>
<svg viewBox="0 0 259.2 89.579" xmlns="http://www.w3.org/2000/svg">
  <path style="fill:#73ab54;fill-rule:evenodd;stroke:none" d="M 33.554 3.144 C 26.404 4.121 20.14 9.407 18.129 16.162 C 17.274 19.032 17.286 18.512 17.283 51.528 L 17.28 82.259 L 18.521 82.147 C 22.326 81.802 26.158 79.05 28.292 75.13 C 28.591 74.58 28.997 73.867 29.194 73.547 C 29.688 72.743 30.551 70.486 30.787 69.38 C 31.608 65.541 31.649 65.025 31.759 56.963 L 31.863 49.297 L 34.28 49.198 C 35.609 49.144 36.997 49.044 37.363 48.976 C 41.364 48.231 41.531 48.18 44.113 46.885 C 46.4 45.738 46.882 45.443 47.96 44.53 C 48.549 44.031 49.182 43.512 49.368 43.376 C 51.049 42.154 52.752 38.696 53.001 36.005 L 53.089 35.047 L 42.428 35.047 L 31.767 35.047 L 31.815 27.408 L 31.863 19.77 L 32.369 18.953 C 32.756 18.327 33.105 18.017 33.856 17.633 L 34.839 17.13 L 42.268 17.025 C 46.354 16.968 49.922 16.87 50.197 16.808 C 50.472 16.746 51.334 16.581 52.113 16.441 C 57.873 15.408 64.234 10.778 65.462 6.723 C 65.811 5.568 66.102 4.122 66.107 3.505 L 66.113 2.88 L 50.655 2.9 C 38.712 2.915 34.823 2.97 33.554 3.144 M 123.28 34.616 C 123.28 70.84 123.09 67.36 125.329 72.213 C 127.005 75.846 131.389 79.692 135.48 81.117 C 138.462 82.155 138.011 82.13 153.613 82.13 L 167.863 82.13 L 169.53 81.725 C 177.017 79.907 182.694 73.664 183.702 66.141 C 184.059 63.476 184.058 42.891 183.701 40.367 C 183.022 35.575 180.95 31.964 176.767 28.283 C 174.801 26.552 170.99 24.91 168.118 24.555 C 165.388 24.217 140.242 24.323 140.338 24.672 C 140.383 24.832 140.467 25.387 140.526 25.905 C 140.922 29.392 144.682 33.789 148.947 35.752 C 152.974 37.606 155.89 38.192 162.017 38.375 C 167.313 38.533 167.798 38.683 168.889 40.504 L 169.363 41.297 L 169.363 53.297 L 169.363 65.297 L 168.998 65.979 C 167.885 68.059 168.636 67.963 153.447 67.963 C 138.852 67.963 139.72 68.031 138.64 66.802 C 137.661 65.687 137.711 66.84 137.602 42.463 C 137.532 26.768 137.444 19.636 137.311 18.88 C 135.907 10.884 130.612 4.947 124.155 4.127 L 123.28 4.015 L 123.28 34.616 M 118.28 4.383 C 115.547 4.861 112.065 7.262 110.327 9.869 C 109.986 10.379 109.58 10.947 109.424 11.13 C 108.697 11.985 107.185 15.55 106.702 17.547 C 106.207 19.597 106.112 20.344 106.006 23.052 L 105.895 25.88 L 106.41 25.88 C 113.76 25.88 119.899 17.477 120.382 6.755 L 120.496 4.213 L 119.763 4.233 C 119.36 4.244 118.692 4.311 118.28 4.383 M 58.518 25.375 C 59.044 30.708 63.985 35.284 71.53 37.425 C 74.088 38.15 75.031 38.248 80.613 38.367 C 89.392 38.554 88.697 37.278 88.697 53.213 C 88.697 67.023 88.751 66.594 86.863 67.606 C 86.197 67.963 86.184 67.963 72.517 67.963 L 58.837 67.963 L 58.024 67.461 C 56.612 66.587 56.279 65.701 56.284 62.819 C 56.291 58.409 57.215 57.607 62.566 57.37 C 65.545 57.238 66.272 57.147 68.697 56.607 C 75.473 55.097 81.78 49.06 81.78 44.083 L 81.78 43.36 L 69.988 43.422 C 56.135 43.494 55.481 43.572 51.78 45.579 C 44.343 49.612 41.019 56.55 41.948 66.102 C 42.711 73.95 49.771 80.961 58.011 82.053 C 59.877 82.3 87.495 82.195 88.197 81.938 C 88.472 81.837 89.109 81.659 89.613 81.543 C 95.815 80.108 101.592 73.861 102.85 67.231 C 103.221 65.277 103.245 41.545 102.878 39.462 C 101.915 33.988 98.399 29.251 93.233 26.465 C 92.127 25.868 91.137 25.38 91.034 25.38 C 90.931 25.38 90.775 25.316 90.688 25.238 C 90.489 25.059 89.35 24.762 87.947 24.522 C 87.237 24.401 81.961 24.313 72.633 24.266 L 58.402 24.194 L 58.518 25.375 M 203.114 25.162 C 203.119 29.59 207.947 34.679 214.197 36.844 C 217.695 38.056 218.925 38.225 225.28 38.37 C 234.202 38.573 233.615 37.508 233.611 53.477 C 233.608 66.162 233.568 66.471 231.821 67.499 L 231.03 67.963 L 217.363 67.963 C 209.847 67.963 203.492 67.906 203.241 67.836 C 201.675 67.398 200.947 65.803 200.947 62.811 C 200.947 58.39 201.851 57.594 207.131 57.371 C 208.862 57.298 210.71 57.15 211.237 57.042 C 214.813 56.312 216.34 55.808 218.169 54.753 C 218.734 54.428 219.548 53.964 219.978 53.723 C 220.739 53.296 222.52 51.823 223.53 50.786 C 225.012 49.264 226.306 46.451 226.502 44.328 L 226.591 43.358 L 214.561 43.425 C 200.504 43.503 200.057 43.557 196.363 45.617 C 193.251 47.352 189.113 51.307 189.113 52.547 C 189.113 52.719 189.043 52.904 188.957 52.957 C 188.436 53.279 187.202 56.744 186.855 58.861 C 185.02 70.05 190.796 79.307 201.197 81.845 C 202.773 82.23 231.4 82.284 232.947 81.906 C 237.027 80.906 239.42 79.664 242.044 77.184 C 243.537 75.773 245.887 72.708 246.042 71.969 C 246.101 71.691 246.244 71.238 246.361 70.963 C 247.714 67.785 247.693 68.062 247.695 53.463 C 247.697 39.336 247.705 39.488 246.743 36.713 C 246.473 35.934 246.194 35.072 246.124 34.797 C 245.669 33.009 241.724 28.594 239.31 27.17 C 234.391 24.267 234.931 24.339 217.322 24.259 L 203.113 24.195 L 203.114 25.162 M 117.947 24.615 C 113.257 25.495 108.455 30.978 106.764 37.38 C 106.034 40.145 106.055 39.509 105.991 61.445 L 105.931 82.261 L 107.182 82.147 C 108.725 82.008 109.07 81.903 111.28 80.912 C 114.399 79.512 118.391 73.974 119.531 69.463 C 120.355 66.203 120.317 67.273 120.393 45.172 L 120.464 24.38 L 119.747 24.396 C 119.353 24.405 118.543 24.503 117.947 24.615 M 408.652 57.88 C 408.652 58.201 408.686 58.332 408.728 58.172 C 408.77 58.011 408.77 57.749 408.728 57.588 C 408.686 57.428 408.652 57.559 408.652 57.88" id="path0" role="presentation"/>
  <path style="fill:#87b566;fill-rule:evenodd;stroke:none" d="m 48.879,0.667 c 0,0.412 0.032,0.581 0.072,0.375 0.04,-0.207 0.04,-0.544 0,-0.75 -0.04,-0.207 -0.072,-0.038 -0.072,0.375 M 15.708,0.282 c 0.161,0.041 0.423,0.041 0.584,0 C 16.452,0.24 16.321,0.205 16,0.205 c -0.321,0 -0.452,0.035 -0.292,0.077 M 97.042,2.998 C 96.744,3.18 96.5,3.365 96.5,3.409 c 0,0.044 0.263,-0.075 0.583,-0.264 0.321,-0.19 0.584,-0.375 0.584,-0.411 0,-0.107 -0.053,-0.085 -0.625,0.264 M 103.045,5 c 0,0.412 0.033,0.581 0.073,0.375 0.039,-0.206 0.039,-0.544 0,-0.75 -0.04,-0.206 -0.073,-0.038 -0.073,0.375 m 11.622,0.219 c 0,0.029 0.243,0.272 0.541,0.541 l 0.542,0.49 -0.49,-0.542 C 114.804,5.203 114.667,5.09 114.667,5.219 m -93.47,9.072 c 1.805,0.027 4.805,0.027 6.667,10e-4 1.862,-0.027 0.386,-0.049 -3.281,-0.049 -3.666,0 -5.19,0.022 -3.386,0.048 M 120.414,40.5 c 0,11.779 0.02,16.598 0.044,10.708 0.025,-5.889 0.025,-15.527 0,-21.416 -0.024,-5.89 -0.044,-1.071 -0.044,10.708 m 9.057,-19.042 c 3.604,0.025 9.454,0.025 13,0 3.545,-0.025 0.596,-0.045 -6.554,-0.045 -7.15,0 -10.051,0.02 -6.446,0.045 m 56.238,0.459 c 0.002,0.366 0.036,0.497 0.076,0.289 0.039,-0.207 0.038,-0.507 -0.004,-0.666 -0.042,-0.16 -0.074,0.01 -0.072,0.377 m -91.132,3.291 -0.827,0.875 0.875,-0.827 c 0.813,-0.768 0.951,-0.923 0.827,-0.923 -0.026,0 -0.42,0.394 -0.875,0.875 m -15.41,0.542 c 0.311,0.321 0.603,0.583 0.648,0.583 0.046,0 -0.171,-0.262 -0.482,-0.583 -0.311,-0.321 -0.603,-0.583 -0.648,-0.583 -0.046,0 0.171,0.262 0.482,0.583 m 145.5,0.667 c 0.311,0.321 0.603,0.583 0.648,0.583 0.046,0 -0.171,-0.262 -0.482,-0.583 -0.311,-0.321 -0.603,-0.584 -0.648,-0.584 -0.046,0 0.171,0.263 0.482,0.584 m -32.417,5.336 c 0.183,0.149 0.483,0.345 0.667,0.435 l 0.333,0.164 -0.333,-0.272 c -0.184,-0.149 -0.484,-0.345 -0.667,-0.435 l -0.333,-0.163 0.333,0.271 m -56,2.914 c 0.183,0.078 0.446,0.143 0.583,0.143 0.158,0 0.127,-0.053 -0.083,-0.143 -0.183,-0.079 -0.446,-0.144 -0.583,-0.144 -0.158,0 -0.127,0.053 0.083,0.144 m -66.417,1.552 c 0,0.029 0.244,0.272 0.542,0.541 l 0.542,0.49 -0.49,-0.542 C 69.971,36.203 69.833,36.09 69.833,36.219 m 160.548,1.531 c 0.001,0.458 0.034,0.626 0.072,0.373 0.038,-0.254 0.037,-0.629 -0.002,-0.834 -0.04,-0.205 -0.071,0.003 -0.07,0.461 M 85.912,50.333 c 0,6.738 0.021,9.494 0.046,6.125 0.025,-3.368 0.025,-8.881 0,-12.25 -0.025,-3.368 -0.046,-0.612 -0.046,6.125 m 2.793,-11.166 c 0,0.32 0.035,0.452 0.077,0.291 0.041,-0.16 0.041,-0.423 0,-0.583 -0.042,-0.16 -0.077,-0.029 -0.077,0.292 M 71.412,50.5 c 0,6.188 0.021,8.719 0.046,5.625 0.026,-3.094 0.026,-8.156 0,-11.25 -0.025,-3.094 -0.046,-0.562 -0.046,5.625 m 144.833,0 c 0,6.004 0.021,8.46 0.047,5.458 0.025,-3.002 0.025,-7.914 0,-10.916 -0.026,-3.002 -0.047,-0.546 -0.047,5.458 M 41.042,40.619 c 0.252,0.039 0.664,0.039 0.916,0 0.252,-0.038 0.046,-0.069 -0.458,-0.069 -0.504,0 -0.71,0.031 -0.458,0.069 m 144.669,10e-4 c 0.253,0.038 0.628,0.037 0.833,-0.003 0.205,-0.039 -0.002,-0.071 -0.461,-0.069 -0.458,10e-4 -0.626,0.033 -0.372,0.072 m -7.901,2.723 -0.393,0.343 0.5,-0.292 C 178.575,43.008 178.585,43 178.38,43 c -0.097,0 -0.353,0.154 -0.57,0.343 m -147.899,2.699 -0.994,1.041 1.041,-0.994 C 30.926,45.164 31.076,45 30.953,45 c -0.026,0 -0.494,0.469 -1.042,1.042 m -15.302,0.416 c -0.043,0.069 0.421,0.105 1.031,0.079 1.934,-0.08 2.161,-0.149 0.578,-0.177 -0.842,-0.015 -1.567,0.03 -1.609,0.098 m 45.558,2.625 c -0.405,0.413 -0.699,0.75 -0.653,0.75 0.046,0 0.414,-0.337 0.819,-0.75 0.405,-0.412 0.699,-0.75 0.653,-0.75 -0.046,0 -0.414,0.338 -0.819,0.75 m -4.375,3.012 c -0.623,0.338 -0.585,0.479 0.041,0.155 0.275,-0.142 0.5,-0.294 0.5,-0.338 0,-0.107 -0.018,-0.101 -0.541,0.183 m -8.248,2.358 c 0.253,0.038 0.628,0.037 0.833,-0.002 0.205,-0.04 -0.002,-0.071 -0.46,-0.07 -0.459,10e-4 -0.626,0.034 -0.373,0.072 m 144.581,-0.002 c 0.206,0.04 0.544,0.04 0.75,0 0.206,-0.04 0.037,-0.072 -0.375,-0.072 -0.412,0 -0.581,0.032 -0.375,0.072 M 43.881,54.623 c 0.531,0.034 1.356,0.033 1.833,0 0.478,-0.034 0.044,-0.061 -0.964,-0.061 -1.008,0.001 -1.399,0.028 -0.869,0.061 m 144.494,0 c 0.527,0.033 1.39,0.033 1.917,0 0.527,-0.033 0.095,-0.06 -0.959,-0.06 -1.054,0 -1.485,0.027 -0.958,0.06 m -19.141,5.294 c 0,1.466 0.026,2.044 0.057,1.283 0.031,-0.76 0.031,-1.96 -0.001,-2.666 -0.031,-0.706 -0.056,-0.084 -0.056,1.383 m -130.167,0 c 0,1.375 0.026,1.915 0.057,1.2 0.031,-0.714 0.031,-1.839 0,-2.5 -0.032,-0.66 -0.058,-0.075 -0.057,1.3 m -24.686,1.166 c 10e-4,0.459 0.034,0.626 0.072,0.373 0.038,-0.253 0.037,-0.628 -0.002,-0.833 -0.04,-0.205 -0.071,0.002 -0.07,0.46 m 309.828,0 c 0.002,0.367 0.036,0.497 0.076,0.29 0.039,-0.207 0.038,-0.507 -0.004,-0.667 -0.042,-0.159 -0.074,0.011 -0.072,0.377 M 103.045,61.5 c 0,0.413 0.033,0.581 0.073,0.375 0.039,-0.206 0.039,-0.544 0,-0.75 -0.04,-0.206 -0.073,-0.038 -0.073,0.375 m -88.833,1.333 c 0,0.413 0.033,0.582 0.072,0.375 0.04,-0.206 0.04,-0.543 0,-0.75 -0.039,-0.206 -0.072,-0.037 -0.072,0.375 m 216.169,0.084 c 0.001,0.458 0.034,0.626 0.072,0.372 0.038,-0.253 0.037,-0.628 -0.002,-0.833 -0.04,-0.205 -0.071,0.002 -0.07,0.461 m -218.776,8.291 -0.299,0.542 0.343,-0.417 c 0.305,-0.369 0.44,-0.666 0.304,-0.666 -0.026,0 -0.183,0.243 -0.348,0.541 m 69.14,2.334 -0.995,1.041 1.042,-0.994 c 0.967,-0.925 1.118,-1.089 0.994,-1.089 -0.025,0 -0.494,0.469 -1.041,1.042 m 29.422,-0.823 c 0,0.029 0.243,0.272 0.541,0.541 l 0.542,0.49 -0.49,-0.542 c -0.456,-0.505 -0.593,-0.618 -0.593,-0.489 m 115.166,1.031 c -0.405,0.412 -0.698,0.75 -0.652,0.75 0.045,0 0.414,-0.338 0.819,-0.75 0.405,-0.413 0.699,-0.75 0.653,-0.75 -0.046,0 -0.415,0.337 -0.82,0.75 m -128.258,1.958 -0.658,0.709 0.708,-0.659 C 97.784,75.145 97.91,75 97.784,75 c -0.027,0 -0.346,0.319 -0.709,0.708 M 7.991,76.125 7.417,76.75 8.042,76.176 C 8.623,75.641 8.743,75.5 8.616,75.5 c -0.028,0 -0.309,0.281 -0.625,0.625 m 68.866,0.545 c -0.988,0.649 -1.093,0.799 -0.223,0.32 0.395,-0.217 0.798,-0.492 0.896,-0.609 0.245,-0.295 0.162,-0.26 -0.673,0.289 M 1.708,79.282 c 0.161,0.041 0.423,0.041 0.584,0 C 2.452,79.24 2.321,79.205 2,79.205 c -0.321,0 -0.452,0.035 -0.292,0.077 m 38.834,0 c 0.16,0.041 0.423,0.041 0.583,0 0.16,-0.042 0.029,-0.077 -0.292,-0.077 -0.321,0 -0.452,0.035 -0.291,0.077 m 28.752,0.003 c 0.207,0.039 0.507,0.038 0.666,-0.004 0.16,-0.042 -0.01,-0.074 -0.377,-0.072 -0.366,0.002 -0.497,0.036 -0.289,0.076 m 52.581,-0.003 c 0.16,0.041 0.423,0.041 0.583,0 0.161,-0.042 0.029,-0.077 -0.291,-0.077 -0.321,0 -0.452,0.035 -0.292,0.077 m 28.085,0.003 c 0.208,0.039 0.508,0.038 0.667,-0.004 0.159,-0.042 -0.01,-0.074 -0.377,-0.072 -0.367,0.002 -0.497,0.036 -0.29,0.076 m 35.082,-0.003 c 0.16,0.041 0.423,0.041 0.583,0 0.16,-0.042 0.029,-0.077 -0.292,-0.077 -0.321,0 -0.452,0.035 -0.291,0.077 m 29.085,0.003 c 0.207,0.039 0.507,0.038 0.667,-0.004 0.159,-0.042 -0.011,-0.074 -0.377,-0.072 -0.367,0.002 -0.497,0.036 -0.29,0.076 M 0.208,79.448 c 0.161,0.042 0.423,0.042 0.584,0 0.16,-0.042 0.029,-0.076 -0.292,-0.076 -0.321,0 -0.452,0.034 -0.292,0.076 m 48.334,0.01 c 3.643,0.025 9.606,0.025 13.25,0 3.643,-0.025 0.662,-0.045 -6.625,-0.045 -7.288,0 -10.269,0.02 -6.625,0.045 m 40.333,-0.01 c 0.16,0.042 0.423,0.042 0.583,0 0.161,-0.042 0.029,-0.076 -0.291,-0.076 -0.321,0 -0.452,0.034 -0.292,0.076 m 40.929,0.01 c 3.605,0.025 9.455,0.025 13,0 3.545,-0.025 0.596,-0.045 -6.554,-0.045 -7.15,0 -10.051,0.02 -6.446,0.045 m 63.321,0 c 3.69,0.025 9.727,0.025 13.417,0 3.689,-0.025 0.671,-0.045 -6.709,-0.045 -7.379,0 -10.398,0.02 -6.708,0.045" id="path3" role="presentation"/>
  <path style="fill:none;fill-rule:evenodd;stroke:none" d="m 12.197,1.025 c -0.488,0.187 -0.859,0.369 -0.824,0.404 0.063,0.062 1.812,-0.561 1.946,-0.694 0.148,-0.145 -0.271,-0.037 -1.122,0.29 m 93.678,30.767 0.041,30.791 0.042,-30.698 0.043,-30.698 0.624,-0.066 L 107.25,1.056 106.542,1.028 105.833,1 105.875,31.792 M 101.627,1.285 c 0.207,0.039 0.507,0.038 0.667,-0.004 0.159,-0.042 -0.011,-0.074 -0.377,-0.072 -0.367,0.002 -0.497,0.036 -0.29,0.076 m 1.501,1.34 c 0.079,2.589 0.146,2.843 0.176,0.667 0.016,-1.169 -0.027,-2.126 -0.096,-2.126 -0.068,0 -0.105,0.656 -0.08,1.459 M 8.051,3.262 7.583,3.691 8.125,3.314 C 8.423,3.107 8.667,2.914 8.667,2.885 8.667,2.754 8.482,2.867 8.051,3.262 M 112.94,3.554 c 0.537,0.396 1.497,1.277 2.133,1.958 0.636,0.681 1,1.013 0.809,0.738 -0.659,-0.947 -3.407,-3.417 -3.801,-3.417 -0.065,0 0.322,0.324 0.859,0.721 m -17.216,0.382 -0.807,0.769 0.75,-0.626 c 1.006,-0.84 1.083,-0.912 0.966,-0.912 -0.056,0 -0.464,0.346 -0.909,0.769 M 5.329,5.625 4.25,6.75 5.375,5.671 C 5.994,5.078 6.5,4.572 6.5,4.546 6.5,4.424 6.33,4.58 5.329,5.625 m 97.716,0.708 c 0,0.413 0.033,0.582 0.073,0.375 0.039,-0.206 0.039,-0.543 0,-0.75 -0.04,-0.206 -0.073,-0.037 -0.073,0.375 M 46.5,6.833 c -0.196,0.275 -0.319,0.5 -0.273,0.5 0.046,0 0.244,-0.225 0.44,-0.5 0.195,-0.275 0.318,-0.5 0.272,-0.5 -0.045,0 -0.243,0.225 -0.439,0.5 M 44.833,8.597 C 43.366,9.876 42.978,10.273 43.917,9.535 44.79,8.848 46.273,7.514 46.167,7.51 46.121,7.509 45.521,7.998 44.833,8.597 M 3.167,8.083 C 2.952,8.311 2.808,8.527 2.847,8.561 2.885,8.595 3.091,8.408 3.304,8.145 3.782,7.556 3.697,7.518 3.167,8.083 m 114.868,1.828 c 0.292,0.593 0.559,1.051 0.592,1.017 0.075,-0.074 -0.933,-2.095 -1.045,-2.095 -0.043,0 0.16,0.485 0.453,1.078 m -76.077,0.851 c -0.623,0.338 -0.585,0.479 0.042,0.155 0.275,-0.143 0.5,-0.294 0.5,-0.338 0,-0.107 -0.018,-0.101 -0.542,0.183 M 0.852,12.519 c -0.103,0.294 -0.158,0.564 -0.122,0.6 0.036,0.036 0.149,-0.176 0.251,-0.471 0.103,-0.294 0.158,-0.565 0.122,-0.6 -0.035,-0.036 -0.148,0.176 -0.251,0.471 m 100.038,1.439 c -0.143,0.344 -0.336,0.775 -0.429,0.959 -0.118,0.234 -0.116,0.283 0.008,0.166 0.211,-0.199 0.89,-1.75 0.767,-1.75 -0.048,0 -0.203,0.282 -0.346,0.625 m -69.307,0.217 c -0.328,0.089 -0.157,0.104 0.5,0.043 0.55,-0.051 1.032,-0.121 1.07,-0.156 0.124,-0.111 -1.056,-0.026 -1.57,0.113 m -13.708,0.273 c 0.16,0.042 0.423,0.042 0.583,0 0.161,-0.042 0.029,-0.076 -0.291,-0.076 -0.321,0 -0.452,0.034 -0.292,0.076 m -2.302,1.094 -0.49,0.541 0.542,-0.489 c 0.298,-0.269 0.542,-0.513 0.542,-0.542 0,-0.129 -0.138,-0.015 -0.594,0.49 m 104.713,2.208 c 0.051,0.733 0.12,1.365 0.153,1.403 0.116,0.132 0.041,-1.407 -0.101,-2.07 -0.103,-0.478 -0.118,-0.291 -0.052,0.667 m -31.577,0.167 c 0.002,0.366 0.036,0.497 0.076,0.289 0.039,-0.207 0.038,-0.507 -0.004,-0.666 -0.042,-0.16 -0.074,0.01 -0.072,0.377 m -74.128,7.166 0.002,7 10.615,0.043 10.614,0.043 0.074,0.541 c 0.074,0.538 0.074,0.538 0.052,-0.043 L 35.917,32.083 25.293,32.04 14.67,31.998 14.624,25.04 l -0.046,-6.957 0.003,7 m 82.994,-6.208 -0.658,0.708 0.708,-0.658 c 0.659,-0.613 0.785,-0.758 0.659,-0.758 -0.027,0 -0.346,0.318 -0.709,0.708 m 22.976,22.042 c -0.015,11.641 0.023,21.295 0.086,21.452 0.102,0.259 0.092,-25.678 -0.015,-37.702 -0.024,-2.705 -0.056,4.608 -0.071,16.25 M 88.573,21.75 l 0.01,1.333 0.627,0.018 c 0.625,0.017 0.625,0.017 0.048,-0.052 l -0.578,-0.068 -0.059,-1.282 -0.058,-1.282 0.01,1.333 M 41.067,21.399 c -0.049,0.128 -0.059,0.522 -0.023,0.875 0.063,0.611 0.068,0.604 0.095,-0.148 L 41.167,21.335 54.875,21.292 68.583,21.248 54.87,21.207 C 43.266,21.173 41.142,21.202 41.067,21.399 m 81.83,0.008 c -0.05,0.132 -0.057,0.376 -0.014,0.542 0.051,0.197 0.085,0.144 0.098,-0.156 L 123,21.335 135.875,21.292 148.75,21.248 135.87,21.207 c -11.09,-0.035 -12.893,-0.007 -12.973,0.2 m 69.645,-0.115 c 3.827,0.025 10.089,0.025 13.916,0 3.827,-0.025 0.696,-0.046 -6.958,-0.046 -7.654,0 -10.785,0.021 -6.958,0.046 M 69.044,21.453 c 0.253,0.038 0.628,0.037 0.833,-0.002 0.205,-0.04 -0.002,-0.071 -0.46,-0.07 -0.459,0.001 -0.626,0.034 -0.373,0.072 m 33.33,0.003 0.791,0.062 0.043,20.199 0.043,20.2 0.041,-20.292 0.041,-20.292 -0.875,0.03 -0.875,0.03 0.791,0.063 m 46.751,-0.005 c 0.206,0.04 0.544,0.04 0.75,0 0.206,-0.04 0.037,-0.072 -0.375,-0.072 -0.413,0 -0.581,0.032 -0.375,0.072 m 64.667,0 c 0.206,0.04 0.543,0.04 0.75,0 0.206,-0.04 0.037,-0.072 -0.375,-0.072 -0.413,0 -0.582,0.032 -0.375,0.072 m -63.084,0.164 c 0.161,0.042 0.423,0.042 0.584,0 0.16,-0.042 0.029,-0.076 -0.292,-0.076 -0.321,0 -0.452,0.034 -0.292,0.076 m 142.901,0.177 c -0.043,0.068 1.747,0.103 3.978,0.077 l 4.055,-0.047 0.073,0.381 c 0.064,0.333 0.076,0.323 0.096,-0.078 l 0.022,-0.458 h -4.073 c -2.241,0 -4.109,0.056 -4.151,0.125 m -170.57,1.041 c 0,0.321 0.034,0.452 0.076,0.292 0.042,-0.16 0.042,-0.423 0,-0.583 -0.042,-0.161 -0.076,-0.03 -0.076,0.291 M 75.75,23.288 c 0.092,0.087 0.467,0.327 0.833,0.533 0.367,0.206 0.517,0.25 0.334,0.097 -0.373,-0.309 -1.429,-0.88 -1.167,-0.63 m 19.907,0.772 c -0.59,0.492 -1.261,1.11 -1.49,1.374 -0.229,0.263 -0.005,0.105 0.5,-0.354 0.504,-0.458 1.216,-1.073 1.583,-1.367 0.367,-0.294 0.625,-0.538 0.574,-0.541 -0.051,-0.003 -0.576,0.397 -1.167,0.888 m 27.512,-0.296 c 0.002,0.176 0.079,0.432 0.172,0.569 0.123,0.183 0.139,0.115 0.057,-0.25 -0.137,-0.612 -0.232,-0.746 -0.229,-0.319 m 33.664,-0.189 c 0,0.046 0.225,0.199 0.5,0.342 0.275,0.142 0.5,0.221 0.5,0.175 0,-0.046 -0.225,-0.2 -0.5,-0.342 -0.275,-0.142 -0.5,-0.221 -0.5,-0.175 M 221,23.548 c 0,0.044 0.469,0.357 1.042,0.695 0.573,0.339 0.929,0.507 0.791,0.374 C 222.535,24.329 221,23.434 221,23.548 M 77.667,24.394 c 0,0.046 0.225,0.244 0.5,0.439 0.275,0.196 0.5,0.319 0.5,0.273 0,-0.046 -0.225,-0.244 -0.5,-0.439 -0.275,-0.196 -0.5,-0.319 -0.5,-0.273 m 81.5,0.643 c 0,0.032 0.356,0.352 0.791,0.71 0.436,0.358 0.642,0.478 0.459,0.267 -0.324,-0.373 -1.25,-1.097 -1.25,-0.977 m -79.417,1.13 c 0.451,0.458 0.858,0.833 0.904,0.833 0.046,0 -0.286,-0.375 -0.737,-0.833 -0.452,-0.459 -0.859,-0.834 -0.904,-0.834 -0.046,0 0.286,0.375 0.737,0.834 m 144.267,-0.459 c 0.041,0.023 0.484,0.417 0.987,0.875 l 0.913,0.834 -0.827,-0.875 c -0.455,-0.482 -0.899,-0.875 -0.987,-0.875 -0.087,0 -0.126,0.018 -0.086,0.041 M 92.801,27.125 c -0.293,0.342 -0.514,0.708 -0.426,0.708 0.034,0 0.229,-0.225 0.432,-0.5 0.402,-0.543 0.398,-0.678 -0.006,-0.208 m 69.496,0.958 c 1.279,1.546 1.399,1.67 0.865,0.889 -0.293,-0.429 -0.763,-0.991 -1.044,-1.25 -0.376,-0.347 -0.328,-0.252 0.179,0.361 m -37.007,0 c 0.189,0.275 0.556,0.688 0.814,0.917 0.312,0.277 0.254,0.165 -0.174,-0.333 -0.873,-1.018 -1.049,-1.178 -0.64,-0.584 m -81.654,0.375 c 0.274,0.344 0.707,0.813 0.962,1.042 0.256,0.229 0.059,-0.052 -0.437,-0.625 -0.996,-1.15 -1.303,-1.394 -0.525,-0.417 m 182.87,-0.346 c 0.004,0.076 0.277,0.438 0.608,0.805 0.603,0.668 0.475,0.411 -0.235,-0.471 -0.208,-0.26 -0.376,-0.41 -0.373,-0.334 m 65.513,0.916 c -0.01,0.153 -0.062,0.415 -0.115,0.583 -0.091,0.29 -0.086,0.29 0.095,0.009 0.104,-0.164 0.156,-0.426 0.115,-0.584 -0.068,-0.258 -0.077,-0.258 -0.095,-0.008 m -37.775,0.847 -0.827,0.875 0.875,-0.827 c 0.481,-0.455 0.875,-0.849 0.875,-0.875 0,-0.124 -0.155,0.014 -0.923,0.827 M 82.918,29.75 c 0.668,0.928 0.853,1.1 0.481,0.447 -0.174,-0.304 -0.461,-0.679 -0.638,-0.833 -0.188,-0.163 -0.122,-0.002 0.157,0.386 M 45.5,30.222 c 0,0.046 0.3,0.321 0.667,0.611 0.366,0.291 0.666,0.491 0.666,0.445 0,-0.046 -0.3,-0.321 -0.666,-0.611 C 45.8,30.376 45.5,30.176 45.5,30.222 m 82.209,0.224 c 0.304,0.345 1.791,1.458 1.791,1.341 0,-0.037 -0.469,-0.428 -1.042,-0.87 -0.573,-0.441 -0.91,-0.653 -0.749,-0.471 m -37.134,0.403 c -0.146,0.283 -0.237,0.545 -0.2,0.581 0.036,0.036 0.19,-0.196 0.342,-0.515 0.343,-0.719 0.224,-0.774 -0.142,-0.066 m 99.91,-0.293 c 0.244,0.303 1.182,1.018 1.182,0.9 0,-0.037 -0.319,-0.32 -0.709,-0.63 -0.389,-0.309 -0.602,-0.431 -0.473,-0.27 M 164.583,31.5 c 0.233,0.458 0.46,0.833 0.506,0.833 0.046,0 -0.107,-0.375 -0.339,-0.833 -0.232,-0.458 -0.46,-0.833 -0.506,-0.833 -0.045,0 0.107,0.375 0.339,0.833 m 0.603,1.083 c 0.003,0.092 0.15,0.467 0.326,0.834 0.176,0.366 0.274,0.479 0.217,0.25 -0.118,-0.472 -0.552,-1.339 -0.543,-1.084 m -114.353,1 c 0.23,0.131 0.492,0.239 0.584,0.239 0.091,0 -0.021,-0.108 -0.25,-0.239 -0.229,-0.131 -0.492,-0.238 -0.584,-0.238 -0.091,0 0.021,0.107 0.25,0.238 m -15.144,0.25 c -0.015,0.23 -0.065,0.605 -0.113,0.834 l -0.085,0.416 0.179,-0.41 c 0.098,-0.226 0.149,-0.601 0.113,-0.833 l -0.066,-0.423 -0.028,0.416 M 195.833,33.75 c 0.23,0.131 0.492,0.238 0.584,0.238 0.091,0 -0.021,-0.107 -0.25,-0.238 -0.229,-0.131 -0.492,-0.238 -0.584,-0.238 -0.091,0 0.021,0.107 0.25,0.238 m -61.75,0.339 c 0.275,0.126 0.613,0.227 0.75,0.224 0.138,-0.003 -0.012,-0.106 -0.333,-0.23 -0.761,-0.293 -1.06,-0.288 -0.417,0.006 m 95.774,0.578 c 0,0.137 0.064,0.4 0.143,0.583 0.09,0.21 0.143,0.241 0.143,0.083 0,-0.137 -0.064,-0.4 -0.143,-0.583 -0.09,-0.21 -0.143,-0.241 -0.143,-0.083 M 85.362,35 c 0.008,0.433 0.271,1.144 0.276,0.75 C 85.641,35.567 85.579,35.267 85.5,35.083 85.412,34.879 85.359,34.847 85.362,35 m 192.048,0.875 -0.827,0.875 0.875,-0.827 c 0.482,-0.455 0.875,-0.849 0.875,-0.875 0,-0.124 -0.154,0.014 -0.923,0.827 M 57.96,35.451 c 0.208,0.04 0.508,0.039 0.667,-0.003 0.159,-0.042 -0.01,-0.074 -0.377,-0.073 -0.367,0.002 -0.497,0.036 -0.29,0.076 m 82.334,0 c 0.207,0.04 0.507,0.039 0.666,-0.003 0.16,-0.042 -0.01,-0.074 -0.377,-0.073 -0.366,0.002 -0.497,0.036 -0.289,0.076 m 62.333,0 c 0.207,0.04 0.507,0.039 0.667,-0.003 0.159,-0.042 -0.011,-0.074 -0.377,-0.073 -0.367,0.002 -0.497,0.036 -0.29,0.076 M 62.125,35.624 c 1.031,0.03 2.719,0.03 3.75,0 1.031,-0.029 0.188,-0.053 -1.875,-0.053 -2.062,0 -2.906,0.024 -1.875,0.053 m 81.833,0 c 0.757,0.031 1.994,0.031 2.75,0 0.757,-0.031 0.138,-0.056 -1.375,-0.056 -1.512,0 -2.131,0.025 -1.375,0.056 m 63.093,10e-4 c 1.082,0.029 2.807,0.029 3.833,-10e-4 1.026,-0.029 0.141,-0.053 -1.967,-0.053 -2.109,0.001 -2.948,0.024 -1.866,0.054 m 7.032,0.485 c 0.275,0.145 0.725,0.46 1,0.701 l 0.499,0.439 -0.416,-0.474 c -0.398,-0.453 -1.167,-0.95 -1.449,-0.936 -0.074,0.004 0.091,0.125 0.366,0.27 M 70.197,36.773 c 0.331,0.38 0.654,0.854 0.718,1.054 0.063,0.201 0.152,0.329 0.196,0.284 0.146,-0.146 -0.406,-1.019 -0.965,-1.528 -0.547,-0.496 -0.547,-0.495 0.051,0.19 m 80.136,-0.388 c 0,0.029 0.244,0.273 0.542,0.542 l 0.542,0.49 -0.49,-0.542 c -0.456,-0.505 -0.594,-0.618 -0.594,-0.49 m -64.461,1.282 c 0,0.32 0.034,0.452 0.076,0.291 0.042,-0.16 0.042,-0.423 0,-0.583 -0.042,-0.16 -0.076,-0.029 -0.076,0.292 m 222.586,-0.383 c 0.207,0.04 0.544,0.04 0.75,0 0.207,-0.039 0.038,-0.072 -0.375,-0.072 -0.412,0 -0.581,0.033 -0.375,0.072 m 1.753,0.002 c 0.253,0.039 0.628,0.038 0.833,-0.002 0.205,-0.04 -0.002,-0.071 -0.461,-0.07 -0.458,0.002 -0.626,0.034 -0.372,0.072 m 33.166,0 c 0.254,0.039 0.629,0.038 0.834,-0.002 0.205,-0.04 -0.003,-0.071 -0.461,-0.07 -0.458,0.002 -0.626,0.034 -0.373,0.072 m 1.834,0 c 0.253,0.039 0.628,0.038 0.833,-0.002 0.205,-0.04 -0.002,-0.071 -0.461,-0.07 -0.458,0.002 -0.626,0.034 -0.372,0.072 m 42.914,-0.002 c 0.206,0.04 0.544,0.04 0.75,0 0.206,-0.039 0.037,-0.072 -0.375,-0.072 -0.413,0 -0.581,0.033 -0.375,0.072 m 1.667,0 c 0.206,0.04 0.543,0.04 0.75,0 0.206,-0.039 0.037,-0.072 -0.375,-0.072 -0.413,0 -0.582,0.033 -0.375,0.072 M 34,38.25 C 33.716,38.662 33.521,39 33.567,39 c 0.046,0 0.316,-0.338 0.6,-0.75 0.283,-0.413 0.478,-0.75 0.432,-0.75 -0.045,0 -0.315,0.337 -0.599,0.75 m 54.709,-0.167 c 0.002,0.367 0.036,0.497 0.076,0.29 0.039,-0.207 0.038,-0.507 -0.004,-0.667 -0.042,-0.159 -0.074,0.011 -0.072,0.377 M 250.372,38 c 0,0.321 0.034,0.452 0.076,0.292 0.042,-0.161 0.042,-0.423 0,-0.584 -0.042,-0.16 -0.076,-0.029 -0.076,0.292 m -19.793,12.333 c 0,7.013 0.021,9.882 0.046,6.375 0.025,-3.506 0.025,-9.243 0,-12.75 -0.025,-3.506 -0.046,-0.637 -0.046,6.375 M 370.444,38.111 c -0.061,0.061 -0.11,0.192 -0.108,0.292 10e-4,0.11 0.053,0.1 0.132,-0.024 0.094,-0.148 1.055,-0.219 3.456,-0.254 l 3.326,-0.049 -3.347,-0.038 c -1.841,-0.021 -3.397,0.012 -3.459,0.073 M 86.079,50.417 c 0,6.416 0.021,9.017 0.046,5.779 0.025,-3.238 0.025,-8.488 0,-11.667 C 86.1,41.351 86.079,44 86.079,50.417 m 66,0 c 0,6.141 0.021,8.63 0.046,5.529 0.025,-3.1 0.025,-8.125 0,-11.166 -0.026,-3.042 -0.046,-0.505 -0.046,5.637 M 396.417,40 c 0.358,0.367 0.688,0.667 0.734,0.667 0.046,0 -0.21,-0.3 -0.568,-0.667 -0.358,-0.367 -0.688,-0.667 -0.734,-0.667 -0.046,0 0.21,0.3 0.568,0.667 m -364.759,0.958 -0.575,0.625 0.625,-0.574 c 0.582,-0.535 0.702,-0.676 0.575,-0.676 -0.028,0 -0.309,0.282 -0.625,0.625 m 21.207,-0.5 11.615,0.044 0.065,0.624 0.066,0.624 0.028,-0.708 0.028,-0.709 -11.709,0.041 -11.708,0.04 11.615,0.044 m 138.927,0 c 3.231,0.026 8.518,0.026 11.75,0 3.231,-0.025 0.587,-0.046 -5.875,-0.046 -6.463,0 -9.107,0.021 -5.875,0.046 M 88.54,59.948 c -0.022,10.743 0.016,19.567 0.085,19.61 0.113,0.07 0.112,-13.699 -0.002,-32.141 -0.024,-3.85 -0.061,1.789 -0.083,12.531 M 250.372,41 c 0,0.321 0.034,0.452 0.076,0.292 0.042,-0.161 0.042,-0.423 0,-0.584 -0.042,-0.16 -0.076,-0.029 -0.076,0.292 m 126.67,0.083 c 0.002,0.367 0.036,0.497 0.076,0.29 0.04,-0.207 0.038,-0.507 -0.003,-0.667 -0.042,-0.159 -0.075,0.011 -0.073,0.377 m -22.875,-0.364 c 0,0.029 0.243,0.272 0.541,0.541 l 0.542,0.49 -0.49,-0.542 c -0.456,-0.505 -0.593,-0.618 -0.593,-0.489 M 38.25,41 c -0.21,0.09 -0.241,0.143 -0.083,0.143 0.137,0 0.4,-0.064 0.583,-0.143 0.21,-0.09 0.241,-0.143 0.083,-0.143 -0.137,0 -0.4,0.064 -0.583,0.143 m 143.833,0.244 c -0.643,0.295 -0.344,0.299 0.417,0.006 0.321,-0.124 0.471,-0.227 0.333,-0.23 -0.137,-0.003 -0.475,0.098 -0.75,0.224 m -149.166,2.187 -0.5,0.43 L 33,43.484 c 0.748,-0.482 0.75,-0.484 0.569,-0.483 -0.084,0 -0.377,0.194 -0.652,0.43 m 144.243,0.248 -0.577,0.512 0.625,-0.449 c 0.553,-0.396 0.732,-0.575 0.577,-0.575 -0.026,0 -0.307,0.23 -0.625,0.512 m 166.128,0.275 c 0.296,0.036 0.821,0.037 1.167,10e-4 0.345,-0.036 0.103,-0.066 -0.538,-0.067 -0.642,-10e-4 -0.925,0.029 -0.629,0.066 m -37.994,0.331 c 0.207,0.039 0.507,0.038 0.666,-0.004 0.16,-0.042 -0.01,-0.074 -0.377,-0.072 -0.366,0.002 -0.497,0.036 -0.289,0.076 m -241.845,0.8 c -0.152,0.32 -0.243,0.582 -0.201,0.582 0.114,0 0.62,-1.021 0.544,-1.097 -0.036,-0.036 -0.19,0.196 -0.343,0.515 m 110.963,0.957 -1.162,1.208 1.208,-1.162 c 1.123,-1.08 1.285,-1.255 1.163,-1.255 -0.026,0 -0.57,0.544 -1.209,1.209 M 348,45.583 c 0.311,0.321 0.603,0.584 0.649,0.584 0.046,0 -0.171,-0.263 -0.482,-0.584 C 347.856,45.262 347.564,45 347.518,45 c -0.046,0 0.171,0.262 0.482,0.583 M 29.833,45.917 c -0.405,0.412 -0.698,0.75 -0.652,0.75 0.045,0 0.414,-0.338 0.819,-0.75 0.405,-0.413 0.699,-0.75 0.653,-0.75 -0.046,0 -0.415,0.337 -0.82,0.75 m 271.303,-0.245 c -0.338,0.179 -0.659,0.396 -0.712,0.484 -0.054,0.087 0.241,-0.031 0.655,-0.263 0.415,-0.232 0.754,-0.453 0.754,-0.491 0,-0.096 -0.011,-0.092 -0.697,0.27 m 36.697,0.911 c -0.405,0.413 -0.698,0.75 -0.652,0.75 0.045,0 0.414,-0.337 0.819,-0.75 0.405,-0.412 0.699,-0.75 0.653,-0.75 -0.046,0 -0.415,0.338 -0.82,0.75 M 18.417,46.333 c -0.805,0.111 -0.811,0.115 -0.167,0.131 0.367,0.009 0.967,-0.045 1.333,-0.121 0.851,-0.176 0.092,-0.182 -1.166,-0.01 m -3.841,7.5 c 0,3.988 0.022,5.619 0.049,3.625 0.026,-1.993 0.026,-5.256 0,-7.25 -0.027,-1.993 -0.049,-0.362 -0.049,3.625 m 363.499,-6.291 -0.658,0.708 0.708,-0.659 c 0.659,-0.613 0.785,-0.758 0.659,-0.758 -0.027,0 -0.346,0.319 -0.709,0.709 M 172.5,48.167 c -0.29,0.366 -0.491,0.666 -0.445,0.666 0.046,0 0.321,-0.3 0.612,-0.666 0.29,-0.367 0.49,-0.667 0.444,-0.667 -0.045,0 -0.321,0.3 -0.611,0.667 m 33.333,0.25 c -0.405,0.412 -0.698,0.75 -0.652,0.75 0.045,0 0.414,-0.338 0.819,-0.75 0.405,-0.413 0.699,-0.75 0.653,-0.75 -0.046,0 -0.415,0.337 -0.82,0.75 M 60.5,48.917 c -0.405,0.412 -0.699,0.75 -0.653,0.75 0.046,0 0.415,-0.338 0.82,-0.75 0.405,-0.413 0.698,-0.75 0.652,-0.75 -0.045,0 -0.414,0.337 -0.819,0.75 m 235.991,0.708 -0.574,0.625 0.625,-0.574 c 0.343,-0.316 0.625,-0.598 0.625,-0.625 0,-0.128 -0.141,-0.008 -0.676,0.574 m 13.548,0.208 c 0,0.321 0.034,0.452 0.076,0.292 0.042,-0.16 0.042,-0.423 0,-0.583 -0.042,-0.161 -0.076,-0.03 -0.076,0.291 M 203.024,50.67 c -0.989,0.649 -1.093,0.799 -0.223,0.32 0.395,-0.217 0.798,-0.492 0.896,-0.609 0.244,-0.295 0.161,-0.26 -0.673,0.289 M 358.55,51 c 0,0.504 0.031,0.71 0.069,0.458 0.039,-0.252 0.039,-0.664 0,-0.916 C 358.581,50.29 358.55,50.496 358.55,51 M 25.908,51.517 c -0.237,0.467 -0.402,0.877 -0.368,0.912 0.034,0.034 0.263,-0.349 0.509,-0.85 0.246,-0.502 0.412,-0.912 0.369,-0.912 -0.044,0 -0.273,0.382 -0.51,0.85 M 57.149,51.38 c -0.239,0.204 -0.576,0.465 -0.75,0.582 -0.266,0.178 -0.25,0.181 0.101,0.017 0.477,-0.224 1.428,-0.982 1.221,-0.974 -0.076,0.003 -0.333,0.172 -0.572,0.375 m 334.403,0.537 c 10e-4,0.55 0.032,0.755 0.069,0.455 0.037,-0.3 0.036,-0.75 -0.002,-1 -0.038,-0.25 -0.068,-0.005 -0.067,0.545 m -41.326,0.833 c -10e-4,0.825 0.028,1.184 0.062,0.797 0.035,-0.387 0.036,-1.062 10e-4,-1.5 -0.034,-0.438 -0.063,-0.122 -0.063,0.703 m -180.297,0.743 c -0.236,0.747 -0.424,1.447 -0.417,1.557 0.007,0.11 0.228,-0.473 0.491,-1.295 0.264,-0.822 0.451,-1.523 0.417,-1.557 -0.034,-0.034 -0.255,0.548 -0.491,1.295 m 188.623,0.59 c 10e-4,0.55 0.032,0.755 0.069,0.456 0.037,-0.3 0.036,-0.75 -0.002,-1 -0.038,-0.251 -0.068,-0.006 -0.067,0.544 M 195.5,53.917 c -0.412,0.119 -0.638,0.223 -0.5,0.23 0.137,0.007 0.625,-0.091 1.083,-0.219 0.459,-0.127 0.684,-0.231 0.5,-0.23 -0.183,10e-4 -0.671,0.099 -1.083,0.219 M 50.583,54 c -0.424,0.183 0.014,0.183 0.584,0 0.335,-0.107 0.351,-0.134 0.083,-0.138 -0.183,-0.003 -0.483,0.059 -0.667,0.138 m -1.666,0.341 c -0.233,0.105 -0.132,0.12 0.333,0.05 0.367,-0.056 0.698,-0.129 0.736,-0.163 0.143,-0.126 -0.749,-0.032 -1.069,0.113 m -2.04,0.279 c 0.254,0.038 0.629,0.037 0.834,-0.003 0.205,-0.039 -0.003,-0.071 -0.461,-0.069 -0.458,10e-4 -0.626,0.033 -0.373,0.072 m 144.581,-0.002 c 0.207,0.039 0.544,0.039 0.75,0 0.207,-0.04 0.038,-0.073 -0.375,-0.073 -0.412,0 -0.581,0.033 -0.375,0.073 M 42.875,54.782 c 0.16,0.041 0.423,0.041 0.583,0 0.161,-0.042 0.029,-0.077 -0.291,-0.077 -0.321,0 -0.452,0.035 -0.292,0.077 m 144.5,0 c 0.16,0.041 0.423,0.041 0.583,0 0.161,-0.042 0.029,-0.077 -0.291,-0.077 -0.321,0 -0.452,0.035 -0.292,0.077 m -2.635,1.093 -0.49,0.542 0.542,-0.49 c 0.505,-0.456 0.618,-0.594 0.489,-0.594 -0.029,0 -0.272,0.244 -0.541,0.542 m 81.927,1.344 c 0,0.029 0.243,0.272 0.541,0.541 l 0.542,0.49 -0.49,-0.542 c -0.456,-0.505 -0.593,-0.618 -0.593,-0.489 m -82.962,1.114 c 0,0.321 0.035,0.452 0.077,0.292 0.041,-0.16 0.041,-0.423 0,-0.583 -0.042,-0.161 -0.077,-0.03 -0.077,0.291 m 140.516,1.084 c 10e-4,0.641 0.031,0.883 0.067,0.538 0.036,-0.346 0.036,-0.871 -0.001,-1.167 -0.037,-0.296 -0.066,-0.013 -0.066,0.629 M 24.394,60.083 c 0.001,0.917 0.029,1.271 0.062,0.786 0.034,-0.484 0.034,-1.234 0,-1.666 -0.035,-0.433 -0.062,-0.036 -0.062,0.88 m 308.169,0.584 c 0,1.054 0.027,1.485 0.06,0.958 0.033,-0.527 0.033,-1.39 0,-1.917 -0.033,-0.527 -0.06,-0.096 -0.06,0.959 m -63.513,1.166 c 0,0.504 0.031,0.711 0.069,0.459 0.039,-0.252 0.039,-0.665 0,-0.917 -0.038,-0.252 -0.069,-0.046 -0.069,0.458 m 55.168,0.75 c 10e-4,0.55 0.032,0.755 0.069,0.456 0.038,-0.3 0.037,-0.75 -10e-4,-1 -0.038,-0.251 -0.069,-0.006 -0.068,0.544 M 14.372,62.333 c 0,0.321 0.034,0.452 0.076,0.292 0.042,-0.16 0.042,-0.423 0,-0.583 -0.042,-0.161 -0.076,-0.03 -0.076,0.291 m 88.673,0.5 c 0,0.413 0.033,0.582 0.073,0.375 0.039,-0.206 0.039,-0.543 0,-0.75 -0.04,-0.206 -0.073,-0.037 -0.073,0.375 m -17.17,0.25 c 0.002,0.367 0.036,0.497 0.076,0.29 0.04,-0.207 0.039,-0.507 -0.003,-0.667 -0.042,-0.159 -0.074,0.011 -0.073,0.377 m -15.613,0.901 -0.488,0.599 0.563,-0.536 c 0.309,-0.295 0.529,-0.565 0.488,-0.599 -0.041,-0.035 -0.295,0.207 -0.563,0.536 m 80.405,0.208 c -0.321,0.281 -0.433,0.435 -0.248,0.342 0.304,-0.154 1.059,-0.877 0.898,-0.861 -0.037,0.004 -0.33,0.237 -0.65,0.519 M 13.679,65.929 c -0.115,0.511 -0.177,0.962 -0.137,1.002 0.039,0.039 0.165,-0.348 0.279,-0.86 0.115,-0.511 0.177,-0.962 0.137,-1.002 -0.039,-0.039 -0.165,0.348 -0.279,0.86 m 28.863,-0.814 c 0.16,0.042 0.423,0.042 0.583,0 0.16,-0.042 0.029,-0.076 -0.292,-0.076 -0.321,0 -0.452,0.034 -0.291,0.076 m 24.833,0 c 0.16,0.042 0.423,0.042 0.583,0 0.161,-0.042 0.029,-0.076 -0.291,-0.076 -0.321,0 -0.452,0.034 -0.292,0.076 m 56.5,0 c 0.16,0.042 0.423,0.042 0.583,0 0.161,-0.042 0.029,-0.076 -0.291,-0.076 -0.321,0 -0.452,0.034 -0.292,0.076 m 24.167,0 c 0.16,0.042 0.423,0.042 0.583,0 0.16,-0.042 0.029,-0.076 -0.292,-0.076 -0.321,0 -0.452,0.034 -0.291,0.076 m 64.166,0 c 0.161,0.042 0.423,0.042 0.584,0 0.16,-0.042 0.029,-0.076 -0.292,-0.076 -0.321,0 -0.452,0.034 -0.292,0.076 m -42.518,0.302 c 0.002,0.347 0.444,1.625 0.461,1.333 0.006,-0.092 -0.096,-0.504 -0.226,-0.917 -0.13,-0.412 -0.235,-0.6 -0.235,-0.416 m 59.849,1.531 c -0.198,0.608 -0.297,1.038 -0.22,0.954 0.182,-0.197 0.736,-1.903 0.647,-1.991 -0.037,-0.038 -0.23,0.429 -0.427,1.037 m 12.994,-0.081 c -0.276,0.276 -0.25,0.551 0.077,0.821 0.252,0.208 0.257,0.197 0.052,-0.133 -0.186,-0.299 -0.187,-0.407 -0.007,-0.625 0.257,-0.308 0.169,-0.354 -0.122,-0.063 m -217.021,0.55 c 0,0.091 0.107,0.354 0.238,0.583 0.131,0.229 0.238,0.342 0.238,0.25 0,-0.092 -0.107,-0.354 -0.238,-0.583 -0.131,-0.229 -0.238,-0.342 -0.238,-0.25 m 139.439,1.171 c -0.246,0.502 -0.412,0.912 -0.369,0.912 0.113,0 0.953,-1.687 0.878,-1.762 -0.034,-0.034 -0.263,0.348 -0.509,0.85 m 93.676,0.53 c 0.207,0.04 0.507,0.038 0.667,-0.003 0.159,-0.042 -0.011,-0.075 -0.377,-0.073 -0.367,0.002 -0.497,0.036 -0.29,0.076 m 2.667,0 c 0.207,0.04 0.507,0.038 0.666,-0.003 0.16,-0.042 -0.01,-0.075 -0.377,-0.073 -0.366,0.002 -0.497,0.036 -0.289,0.076 m -16.877,0.715 c 0.358,0.367 0.688,0.667 0.734,0.667 0.046,0 -0.21,-0.3 -0.568,-0.667 -0.358,-0.366 -0.688,-0.666 -0.734,-0.666 -0.046,0 0.21,0.3 0.568,0.666 m -136.334,0 c 0.143,0.275 0.296,0.5 0.342,0.5 0.046,0 -0.033,-0.225 -0.175,-0.5 -0.142,-0.275 -0.296,-0.5 -0.342,-0.5 -0.046,0 0.033,0.225 0.175,0.5 m 243.159,0.709 -0.659,0.708 0.709,-0.659 c 0.658,-0.613 0.785,-0.758 0.658,-0.758 -0.027,0 -0.345,0.319 -0.708,0.709 m -77.502,0.166 -0.49,0.542 0.542,-0.49 c 0.505,-0.456 0.618,-0.593 0.489,-0.593 -0.029,0 -0.272,0.243 -0.541,0.541 m 118.004,0.334 -0.827,0.875 0.875,-0.827 c 0.813,-0.769 0.951,-0.923 0.827,-0.923 -0.027,0 -0.42,0.393 -0.875,0.875 M 82.999,70.875 c -0.245,0.335 -0.285,0.452 -0.105,0.305 0.273,-0.222 0.686,-0.847 0.56,-0.847 -0.032,0 -0.236,0.244 -0.455,0.542 m 88.668,-0.431 c 0,0.183 0.986,1.556 1.118,1.556 0.049,0 0.014,-0.094 -0.079,-0.208 -0.092,-0.115 -0.364,-0.5 -0.604,-0.857 -0.239,-0.356 -0.435,-0.577 -0.435,-0.491 m 55.66,1.064 c -0.294,0.371 -0.506,0.7 -0.472,0.731 0.034,0.032 0.308,-0.272 0.609,-0.674 0.687,-0.919 0.581,-0.964 -0.137,-0.057 M 27.814,71.64 c 0.186,0.26 0.469,0.579 0.63,0.708 0.161,0.129 0.039,-0.083 -0.27,-0.473 -0.636,-0.8 -0.872,-0.954 -0.36,-0.235 m 72.269,0.193 c -0.142,0.275 -0.221,0.5 -0.175,0.5 0.046,0 0.2,-0.225 0.342,-0.5 0.142,-0.275 0.221,-0.5 0.175,-0.5 -0.046,0 -0.199,0.225 -0.342,0.5 m 62.743,0.209 c -0.309,0.389 -0.431,0.602 -0.27,0.473 0.303,-0.244 1.018,-1.182 0.9,-1.182 -0.037,0 -0.32,0.319 -0.63,0.709 M 10.513,73.197 c -0.295,0.475 -0.435,0.779 -0.311,0.676 0.237,-0.196 1.037,-1.54 0.917,-1.54 -0.038,0 -0.311,0.389 -0.606,0.864 M 173.5,72.917 c 0.311,0.32 0.603,0.583 0.649,0.583 0.046,0 -0.171,-0.263 -0.482,-0.583 -0.311,-0.321 -0.603,-0.584 -0.649,-0.584 -0.046,0 0.171,0.263 0.482,0.584 m -92.756,0.791 -0.827,0.875 0.875,-0.827 c 0.481,-0.455 0.875,-0.848 0.875,-0.875 0,-0.124 -0.155,0.014 -0.923,0.827 m 30.423,0.209 c 0.59,0.595 1.111,1.083 1.157,1.083 0.046,0 -0.4,-0.488 -0.991,-1.083 -0.59,-0.596 -1.111,-1.084 -1.157,-1.084 -0.046,0 0.4,0.488 0.991,1.084 M 99,73.5 c -0.196,0.275 -0.319,0.5 -0.273,0.5 0.046,0 0.244,-0.225 0.44,-0.5 0.195,-0.275 0.318,-0.5 0.272,-0.5 -0.045,0 -0.243,0.225 -0.439,0.5 m -69,0.583 c 0.498,0.504 0.943,0.917 0.989,0.917 0.045,0 -0.324,-0.413 -0.822,-0.917 -0.498,-0.504 -0.943,-0.916 -0.989,-0.916 -0.046,0 0.324,0.412 0.822,0.916 m 131.077,-0.041 -0.827,0.875 0.875,-0.827 c 0.813,-0.769 0.951,-0.923 0.827,-0.923 -0.026,0 -0.42,0.393 -0.875,0.875 m 64.163,0 -0.49,0.541 0.542,-0.489 c 0.298,-0.269 0.541,-0.513 0.541,-0.542 0,-0.129 -0.137,-0.015 -0.593,0.49 M 9.158,74.958 8.583,75.583 9.208,75.009 c 0.582,-0.535 0.702,-0.676 0.575,-0.676 -0.028,0 -0.309,0.282 -0.625,0.625 m 167.675,1.013 c 0.321,0.278 0.809,0.634 1.084,0.791 0.694,0.396 0.342,0.084 -0.75,-0.667 -0.739,-0.508 -0.804,-0.532 -0.334,-0.124 m -99,0.216 c -0.581,0.509 -0.581,0.51 -0.046,0.154 0.295,-0.196 0.58,-0.428 0.634,-0.515 0.161,-0.261 0.028,-0.179 -0.588,0.361 M 7.872,76.338 c -0.299,0.273 -0.482,0.495 -0.406,0.495 0.076,0 0.354,-0.225 0.617,-0.5 0.613,-0.639 0.495,-0.636 -0.211,0.005 m 254.503,-0.223 c 0.16,0.042 0.423,0.042 0.583,0 0.161,-0.042 0.029,-0.076 -0.291,-0.076 -0.321,0 -0.452,0.034 -0.292,0.076 m -147.791,0.553 c 0.112,0.18 1.083,0.721 1.083,0.603 0,-0.039 -0.267,-0.229 -0.594,-0.421 -0.326,-0.193 -0.546,-0.275 -0.489,-0.182 m -77.316,1.908 c 0.286,0.132 0.736,0.282 1,0.334 0.413,0.081 0.398,0.062 -0.101,-0.134 -0.9,-0.353 -1.537,-0.494 -0.899,-0.2 M 72.5,78.688 c -0.54,0.189 -0.702,0.288 -0.393,0.241 0.515,-0.079 1.803,-0.572 1.476,-0.565 -0.091,0.002 -0.579,0.148 -1.083,0.324 m 46.083,-0.099 c 0.275,0.126 0.613,0.227 0.75,0.224 0.138,-0.003 -0.012,-0.106 -0.333,-0.23 -0.761,-0.293 -1.06,-0.288 -0.417,0.006 M 3.917,78.756 c -0.275,0.126 -0.388,0.23 -0.25,0.231 0.137,0 0.437,-0.106 0.666,-0.237 0.527,-0.301 0.246,-0.297 -0.416,0.006 m 148.666,0.077 c -0.21,0.091 -0.241,0.144 -0.083,0.144 0.137,0 0.4,-0.065 0.583,-0.144 0.21,-0.09 0.241,-0.143 0.084,-0.143 -0.138,0 -0.4,0.065 -0.584,0.143 m -32.666,0.148 c 0.183,0.079 0.67,0.189 1.083,0.244 0.494,0.067 0.608,0.054 0.333,-0.036 -0.622,-0.205 -1.82,-0.38 -1.416,-0.208 M 39.25,79.167 c 0.705,0.179 1.31,0.179 0.75,0 -0.229,-0.074 -0.604,-0.132 -0.833,-0.131 -0.375,0.003 -0.366,0.016 0.083,0.131 m 31.25,0 c -0.33,0.105 -0.347,0.133 -0.083,0.133 0.183,0 0.521,-0.06 0.75,-0.133 0.33,-0.106 0.347,-0.134 0.083,-0.134 -0.183,0 -0.521,0.06 -0.75,0.134 m 20.75,0 c -0.21,0.09 -0.241,0.143 -0.083,0.143 0.137,0 0.4,-0.065 0.583,-0.143 0.21,-0.091 0.241,-0.144 0.083,-0.144 -0.137,0 -0.4,0.065 -0.583,0.144 M 1.294,79.451 C 1.501,79.491 1.801,79.49 1.96,79.448 2.12,79.406 1.95,79.374 1.583,79.375 1.217,79.377 1.086,79.411 1.294,79.451 m 39.664,0 c 0.207,0.04 0.544,0.04 0.75,0 0.207,-0.04 0.038,-0.072 -0.375,-0.072 -0.412,0 -0.581,0.032 -0.375,0.072 m 27.753,0.002 c 0.253,0.038 0.628,0.037 0.833,-0.002 0.205,-0.04 -0.002,-0.071 -0.461,-0.07 -0.458,0.001 -0.626,0.034 -0.372,0.072 m 21.164,-0.005 c 0.16,0.042 0.423,0.042 0.583,0 0.161,-0.042 0.029,-0.076 -0.291,-0.076 -0.321,0 -0.452,0.034 -0.292,0.076 m 32.417,0.003 c 0.206,0.04 0.543,0.04 0.75,0 0.206,-0.04 0.037,-0.072 -0.375,-0.072 -0.413,0 -0.582,0.032 -0.375,0.072 m 27.168,0 c 0.208,0.04 0.508,0.039 0.667,-0.003 0.159,-0.042 -0.01,-0.074 -0.377,-0.073 -0.367,0.002 -0.497,0.036 -0.29,0.076 m 36.167,0 c 0.207,0.04 0.507,0.039 0.667,-0.003 0.159,-0.042 -0.011,-0.074 -0.377,-0.073 -0.367,0.002 -0.497,0.036 -0.29,0.076 m 27.831,0 c 0.207,0.04 0.544,0.04 0.75,0 0.207,-0.04 0.038,-0.072 -0.375,-0.072 -0.412,0 -0.581,0.032 -0.375,0.072 M 49.304,79.625 c 3.33,0.025 8.73,0.025 12,0 3.27,-0.025 0.546,-0.046 -6.054,-0.046 -6.6,0 -9.276,0.021 -5.946,0.046 m 81.167,0 c 3.238,0.025 8.488,0.025 11.666,0 3.179,-0.025 0.53,-0.046 -5.887,-0.046 -6.417,0 -9.017,0.021 -5.779,0.046 m 63.416,0 c 3.376,0.025 8.851,0.025 12.167,0 3.316,-0.025 0.554,-0.046 -6.137,-0.046 -6.692,0 -9.405,0.021 -6.03,0.046" id="path4" role="presentation"/>
</svg>