<svg width="397.6497" height="156" xmlns="http://www.w3.org/2000/svg">

 <g>
  <title>background</title>
  <rect fill="none" id="canvas_background" height="158" width="399.6497" y="-1" x="-1"/>
 </g>
 <g>
  <title>Layer 1</title>
  <path id="svg_1" fill="#e20010" d="m190.78,103.265c-1.351,0.954 -4.119,1.771 -7.126,1.771c-5.52,0 -8.003,-4.238 -7.9,-9.168c0.087,-4.086 2.633,-8.716 9.527,-8.716l5.5,-0.003l0,16.116l-0.001,0zm-5.675,-45.315c-6.55,0 -12.445,1.852 -18.503,4.86l-1.546,0.797l3.688,8.23l2.079,-0.983c4.29,-1.92 8.86,-3.207 12.969,-3.035c4.974,0.207 7.009,2.487 7.009,7.246l0,2.792l-8.133,0c-13.073,0 -21.208,6.93 -21.443,17.69c0,10.225 8.525,19.027 20.377,19.027c9.564,0 17.667,-3.103 23.127,-8.572l0,-29.177c0,-14.208 -10.143,-18.875 -19.624,-18.875zm194.164,47.05l0,8.629s-2.897,0.553 -5.244,0.553c-10.958,0 -17.5,-5.162 -17.5,-17.217l0,-50.841l13.76,-2.344l0,54.076c0,4.178 1.2,6.678 6.915,7.123c0.78,0.057 2.07,0.02 2.07,0.02l-0.001,0.001zm-60.353,-25.671c0.232,-5.295 2.436,-10.738 7.856,-10.738c6.1,0 7,6.617 7,10.738l-14.856,0zm10.823,25.608c-3.762,0 -6.301,-1.234 -7.966,-3.03c-2.47,-2.667 -3.565,-8.151 -3.267,-13.981l29.594,0l0,-1.36c-0.264,-19.372 -6.869,-28.197 -21.327,-28.197c-16.137,0 -22.422,14.845 -22.54,28.793c-0.1,8.824 3.228,17.708 9.313,22.769c3.706,3.078 8.845,4.784 14.801,4.784c3.245,0 6.637,-0.483 9.73,-1.44c5.937,-1.84 10.318,-5.018 10.318,-5.018l-3.87,-7.965c-0.697,0.526 -6.623,4.645 -14.785,4.645l-0.001,0zm-30.332,0.113l0,8.505s-2.538,0.504 -5.232,0.504c-11.208,0 -17.896,-5.412 -17.896,-16.854l0,-51.09l14.07,-2.26l0,15.095l9.054,0l0,10.089l-9.054,0l0,28.747c0,3.764 1.162,7.016 7.063,7.223c0.798,0.028 1.846,0.028 1.995,0.042l0,-0.001zm-84.401,-43.89l13.727,-2.24l0,54.664l-13.727,0l0,-52.424zm7.004,-24.083c2.388,0 4.597,0.93 6.22,2.616a8.462,8.462 0 0 1 2.379,6.167c0,4.862 -3.83,8.686 -8.721,8.686c-4.882,0 -8.718,-3.835 -8.718,-8.743c0,-4.808 3.967,-8.726 8.84,-8.726zm50.57,22.673l-3.873,8.684s-2.212,-0.708 -5.618,-0.57c-3.684,0.147 -7.559,1.706 -9.383,3.485l0,42.274l-14.006,0l0.01,-44.907c8.339,-8.864 17.592,-10.63 23.62,-10.63c4.162,0 7.745,0.922 9.25,1.664zm-175.137,-43.75l0,0.152l-1.215,0l0,0.152l-1.368,0l0,0.152l-1.215,0l0,0.152l-1.064,0l0,0.151l-0.76,0l0,0.152l-0.759,0l0,0.152l-0.76,0l0,0.152l-0.759,0l0,0.152l-0.76,0l0,0.152l-0.759,0l0,0.152l-0.455,0l0,0.152l-0.608,0l0,0.152l-0.608,0l0,0.152l-0.607,0l0,0.151l-0.456,0l0,0.152l-0.607,0l0,0.152l-0.608,0l0,0.152l-0.608,0l0,0.152l-0.455,0l0,0.152l-0.456,0l0,0.152l-0.456,0l0,0.152l-0.455,0l0,0.152l-0.456,0l0,0.152l-0.456,0l0,0.151l-0.456,0l0,0.152l-0.455,0l0,0.152l-0.456,0l0,0.152l-0.456,0l0,0.152l-0.455,0l0,0.152l-0.455,0l0,0.152l-0.456,0l0,0.152l-0.455,0l0,0.152l-0.304,0l0,0.152l-0.456,0l0,0.151l-0.304,0l0,0.152l-0.455,0l0,0.152l-0.304,0l0,0.152l-0.456,0l0,0.152l-0.456,0l0,0.152l-0.303,0l0,0.152l-0.456,0l0,0.152l-0.304,0l0,0.152l-0.456,0l0,0.152l-0.303,0l0,0.151l-0.456,0l0,0.152l-0.304,0l0,0.152l-0.304,0l0,0.152l-0.303,0l0,0.152l-0.456,0l0,0.152l-0.304,0l0,0.152l-0.304,0l0,0.152l-0.304,0l0,0.152l-0.303,0l0,0.152l-0.456,0l0,0.151l-0.304,0l0,0.152l-0.304,0l0,0.152l-0.303,0l0,0.152l-0.304,0l0,0.152l-0.456,0l0,0.152l-0.304,0l0,0.152l-0.304,0l0,0.152l-0.303,0l0,0.152l-0.304,0l0,0.152l-0.304,0l0,0.151l-0.304,0l0,0.152l-0.303,0l0,0.152l-0.304,0l0,0.152l-0.304,0l0,0.152l-0.304,0l0,0.152l-0.304,0l0,0.152l-0.303,0l0,0.152l-0.304,0l0,0.152l-0.304,0l0,0.152l-0.304,0l0,0.151l-0.304,0l0,0.152l-0.152,0l0,0.152l-0.303,0l0,0.152l-0.304,0l0,0.152l-0.304,0l0,0.152l-0.304,0l0,0.152l-0.304,0l0,0.152l-0.303,0l0,0.152l-0.152,0l0,0.151l-0.304,0l0,0.152l-0.304,0l0,0.152l-0.304,0l0,0.152l-0.152,0l0,0.152l-0.303,0l0,0.152l-0.304,0l0,0.152l-0.304,0l0,0.152l-0.152,0l0,0.152l-0.304,0l0,0.152l-0.303,0l0,0.151l-0.304,0l0,0.152l-0.304,0l0,0.152l-0.152,0l0,0.152l-0.304,0l0,0.152l-0.304,0l0,0.152l-0.303,0l0,0.152l-0.152,0l0,0.152l-0.304,0l0,0.152l-0.152,0l0,0.152l-0.304,0l0,0.151l-0.152,0l0,0.152l-0.303,0l0,0.152l-0.304,0l0,0.152l-0.152,0l0,0.152l-0.304,0l0,0.152l-0.152,0l0,0.152l-0.304,0l0,0.152l-0.303,0l0,0.152l-0.152,0l0,0.152l-0.304,0l0,0.151l-0.152,0l0,0.152l-0.304,0l0,0.152l-0.152,0l0,0.152l-0.303,0l0,0.152l-0.304,0l0,0.152l-0.152,0l0,0.152l-0.304,0l0,0.152l-0.152,0l0,0.152l-0.304,0l0,0.152l-0.152,0l0,0.151l-0.303,0l0,0.152l-0.152,0l0,0.152l-0.152,0l0,0.152l-0.304,0l0,0.152l-0.152,0l0,0.152l-0.304,0l0,0.152l-0.152,0l0,0.152l-0.303,0l0,0.152l-0.152,0l0,0.152l-0.152,0l0,0.151l-0.304,0l0,0.152l-0.152,0l0,0.152l-0.304,0l0,0.152l-0.152,0l0,0.152l-0.303,0l0,0.152l-0.152,0l0,0.152l-0.152,0l0,0.152l-0.304,0l0,0.152l-0.152,0l0,0.152l-0.304,0l0,0.151l-0.152,0l0,0.152l-0.151,0l0,0.152l-0.304,0l0,0.152l-0.152,0l0,0.152l-0.152,0l0,0.152l-0.304,0l0,0.152l-0.152,0l0,0.152l-0.152,0l0,0.152l-0.152,0l0,0.152l-0.303,0l0,0.151l-0.152,0l0,0.152l-0.152,0l0,0.152l-0.304,0l0,0.152l-0.152,0l0,0.152l-0.152,0l0,0.152l-0.152,0l0,0.152l-0.303,0l0,0.152l-0.152,0l0,0.152l-0.152,0l0,0.151l-0.304,0l0,0.152l-0.152,0l0,0.152l-0.152,0l0,0.152l-0.304,0l0,0.152l-0.151,0l0,0.152l-0.152,0l0,0.152l-0.152,0l0,0.152l-0.152,0l0,0.152l-0.152,0l0,0.152l-0.304,0l0,0.151l-0.152,0l0,0.152l-0.152,0l0,0.152l-0.152,0l0,0.152l-0.151,0l0,0.152l-0.152,0l0,0.152l-0.304,0l0,0.152l-0.152,0l0,0.152l-0.152,0l0,0.152l-0.152,0l0,0.152l-0.152,0l0,0.151l-0.152,0l0,0.152l-0.303,0l0,0.152l-0.152,0l0,0.152l-0.152,0l0,0.152l-0.152,0l0,0.152l-0.152,0l0,0.152l-0.152,0l0,0.152l-0.304,0l0,0.152l-0.152,0l0,0.152l-0.152,0l0,0.151l-0.151,0l0,0.152l-0.152,0l0,0.152l-0.152,0l0,0.152l-0.152,0l0,0.152l-0.152,0l0,0.152l-0.152,0l0,0.152l-0.152,0l0,0.152l-0.152,0l0,0.152l-0.152,0l0,0.152l-0.152,0l0,0.151l-0.151,0l0,0.152l-0.152,0l0,0.152l-0.152,0l0,0.152l-0.152,0l0,0.152l-0.152,0l0,0.152l-0.152,0l0,0.152l-0.152,0l0,0.152l-0.152,0l0,0.152l-0.304,0l0,0.152l-0.151,0l0,0.151l-0.152,0l0,0.152l-0.152,0l0,0.152l-0.152,0l0,0.152l-0.152,0l0,0.152l-0.152,0l0,0.152l-0.152,0l0,0.152l-0.152,0l0,0.152l-0.152,0l0,0.152l-0.152,0l0,0.303l-0.151,0l0,0.152l-0.152,0l0,0.152l-0.152,0l0,0.152l-0.152,0l0,0.152l-0.152,0l0,0.152l-0.152,0l0,0.152l-0.152,0l0,0.152l-0.152,0l0,0.152l-0.152,0l0,0.152l-0.152,0l0,0.303l-0.151,0l0,0.152l-0.152,0l0,0.152l-0.152,0l0,0.152l-0.152,0l0,0.152l-0.152,0l0,0.152l-0.152,0l0,0.152l-0.152,0l0,0.152l-0.152,0l0,0.151l-0.152,0l0,0.304l-0.151,0l0,0.152l-0.152,0l0,0.152l-0.152,0l0,0.152l-0.152,0l0,0.152l-0.152,0l0,0.152l-0.152,0l0,0.304l-0.152,0l0,0.151l-0.152,0l0,0.152l-0.152,0l0,0.304l-0.152,0l0,0.152l-0.151,0l0,0.152l-0.152,0l0,0.152l-0.152,0l0,0.304l-0.152,0l0,0.152l-0.152,0l0,0.151l-0.152,0l0,0.304l-0.152,0l0,0.152l-0.152,0l0,0.152l-0.152,0l0,0.152l-0.152,0l0,0.304l-0.151,0l0,0.152l-0.153,0l0,0.152l-0.152,0l0,0.303l-0.152,0l0,0.152l-0.152,0l0,0.152l-0.152,0l0,0.304l-0.152,0l0,0.152l-0.15,0l0,0.304l-0.152,0l0,0.152l-0.152,0l0,0.151l-0.151,0l0,0.304l-0.152,0l0,0.152l-0.153,0l0,0.304l-0.152,0l0,0.152l-0.152,0l0,0.304l-0.152,0l0,0.303l-0.152,0l0,0.152l-0.152,0l0,0.304l-0.152,0l0,0.152l-0.152,0l0,0.304l-0.151,0l0,0.304l-0.152,0l0,0.152l-0.153,0l0,0.303l-0.152,0l0,0.152l-0.152,0l0,0.304l-0.152,0l0,0.304l-0.152,0l0,0.304l-0.152,0l0,0.303l-0.15,0l0,0.152l-0.152,0l0,0.304l-0.151,0l0,0.304l-0.152,0l0,0.304l-0.152,0l0,0.303l-0.153,0l0,0.304l-0.152,0l0,0.304l-0.152,0l0,0.304l-0.152,0l0,0.304l-0.152,0l0,0.303l-0.152,0l0,0.456l-0.152,0l0,0.304l-0.151,0l0,0.304l-0.152,0l0,0.455l-0.152,0l0,0.304l-0.153,0l0,0.456l-0.152,0l0,0.456l-0.152,0l0,0.303l-0.152,0l0,0.608l-0.152,0l0,0.456l-0.151,0l0,0.455l-0.151,0l0,0.608l-0.152,0l0,0.76l-0.152,0l0,0.607l-0.152,0l0,1.063l-0.152,0l0,1.823l-0.152,0l0,1.671l0.152,0l0,1.52l0.152,0l0,0.759l0.152,0l0,0.607l0.152,0l0,0.608l0.151,0l0,0.455l0.152,0l0,0.456l0.152,0l0,0.456l0.152,0l0,0.304l0.152,0l0,0.303l0.152,0l0,0.304l0.152,0l0,0.304l0.152,0l0,0.304l0.152,0l0,0.304l0.152,0l0,0.303l0.151,0l0,0.152l0.152,0l0,0.304l0.152,0l0,0.152l0.152,0l0,0.304l0.152,0l0,0.152l0.152,0l0,0.304l0.152,0l0,0.151l0.152,0l0,0.152l0.152,0l0,0.152l0.152,0l0,0.152l0.151,0l0,0.152l0.152,0l0,0.152l0.152,0l0,0.152l0.152,0l0,0.152l0.152,0l0,0.152l0.152,0l0,0.152l0.152,0l0,0.151l0.152,0l0,0.152l0.152,0l0,0.152l0.152,0l0,0.152l0.151,0l0,0.152l0.152,0l0,0.152l0.152,0l0,0.152l0.152,0l0,0.152l0.152,0l0,0.152l0.304,0l0,0.151l0.152,0l0,0.152l0.304,0l0,0.152l0.151,0l0,0.152l0.304,0l0,0.152l0.152,0l0,0.152l0.304,0l0,0.152l0.152,0l0,0.152l0.304,0l0,0.152l0.152,0l0,0.152l0.303,0l0,0.151l0.152,0l0,0.152l0.304,0l0,0.152l0.304,0l0,0.152l0.456,0l0,0.152l0.303,0l0,0.152l0.304,0l0,0.152l0.456,0l0,0.152l0.304,0l0,0.152l0.303,0l0,0.152l0.608,0l0,0.151l0.76,0l0,0.152l0.759,0l0,0.152l0.76,0l0,0.152l3.797,0l0,-0.152l1.063,0l0,-0.152l0.912,0l0,-0.152l0.607,0l0,-0.151l0.608,0l0,-0.152l0.456,0l0,-0.152l0.455,0l0,-0.152l0.608,0l0,-0.152l0.456,0l0,-0.152l0.303,0l0,-0.152l0.456,0l0,-0.152l0.304,0l0,-0.152l0.304,0l0,-0.152l0.455,0l0,-0.151l0.304,0l0,-0.152l0.304,0l0,-0.152l0.304,0l0,-0.152l0.303,0l0,-0.152l0.304,0l0,-0.152l0.304,0l0,-0.152l0.304,0l0,-0.152l0.304,0l0,-0.152l0.303,0l0,-0.152l0.304,0l0,-0.151l0.304,0l0,-0.152l0.304,0l0,-0.152l0.152,0l0,-0.152l0.304,0l0,-0.152l0.151,0l0,-0.152l0.304,0l0,-0.152l0.304,0l0,-0.152l0.152,0l0,-0.152l0.304,0l0,-0.151l0.304,0l0,-0.152l0.151,0l0,-0.152l0.304,0l0,-0.152l0.152,0l0,-0.152l0.304,0l0,-0.152l0.152,0l0,-0.152l0.304,0l0,-0.152l0.152,0l0,-0.152l0.303,0l0,-0.152l0.152,0l0,-0.151l0.304,0l0,-0.152l0.152,0l0,-0.152l0.304,0l0,-0.152l0.152,0l0,-0.152l0.303,0l0,-0.152l0.152,0l0,-0.152l0.152,0l0,-0.152l0.304,0l0,-0.152l0.152,0l0,-0.152l0.152,0l0,-0.151l0.304,0l0,-0.152l0.152,0l0,-0.152l0.303,0l0,-0.152l0.152,0l0,-0.152l0.152,0l0,-0.152l0.304,0l0,-0.152l0.152,0l0,-0.152l0.152,0l0,-0.152l0.303,0l0,-0.152l0.152,0l0,-0.151l0.152,0l0,-0.152l0.304,0l0,-0.152l0.152,0l0,-0.152l0.152,0l0,-0.152l0.304,0l0,-0.152l0.152,0l0,-0.152l0.151,0l0,-0.152l0.304,0l0,-0.152l0.152,0l0,-0.152l0.152,0l0,-0.151l0.152,0l0,-0.152l0.304,0l0,-0.152l0.152,0l0,-0.152l0.152,0l0,-0.152l0.303,0l0,-0.152l0.152,0l0,-0.152l0.152,0l0,-0.152l0.304,0l0,-0.152l0.152,0l0,-0.152l0.152,0l0,-0.151l0.152,0l0,-0.152l0.303,0l0,-0.152l0.152,0l0,-0.152l0.152,0l0,-0.152l0.304,0l0,-0.152l0.152,0l0,-0.152l0.152,0l0,-0.152l0.304,0l0,-0.152l0.152,0l0,-0.152l0.151,0l0,-0.151l0.304,0l0,-0.152l0.152,0l0,-0.152l0.152,0l0,-0.152l0.304,0l0,-0.152l0.152,0l0,-0.152l0.152,0l0,-0.152l0.303,0l0,-0.152l0.152,0l0,-0.152l0.304,0l0,-0.152l0.152,0l0,-0.151l0.152,0l0,-0.152l0.304,0l0,-0.152l0.152,0l0,-0.152l0.303,0l0,-0.152l0.152,0l0,-0.152l0.304,0l0,-0.152l0.152,0l0,-0.152l0.304,0l0,-0.152l0.152,0l0,-0.151l0.304,0l0,-0.152l0.151,0l0,-0.152l0.152,0l0,-0.152l0.304,0l0,-0.152l0.152,0l0,-0.152l0.304,0l0,-0.152l0.152,0l0,-0.152l0.303,0l0,-0.152l0.152,0l0,-0.152l0.304,0l0,-0.151l0.152,0l0,-0.152l0.304,0l0,-0.152l0.152,0l0,-0.152l0.304,0l0,-0.152l0.151,0l0,-0.152l0.304,0l0,-0.152l0.152,0l0,-0.152l0.304,0l0,-0.152l0.152,0l0,-0.152l0.304,0l0,-0.151l0.152,0l0,-0.152l0.151,0l0,-0.152l0.304,0l0,-0.152l0.152,0l0,-0.152l0.304,0l0,-0.152l0.152,0l0,-0.152l0.304,0l0,-0.152l0.152,0l0,-0.152l0.303,0l0,-0.152l0.152,0l0,-0.151l0.304,0l0,-0.152l0.152,0l0,-0.152l0.304,0l0,-0.152l0.152,0l0,-0.152l0.303,0l0,-0.152l0.152,0l0,-0.152l0.304,0l0,-0.152l0.152,0l0,-0.152l0.304,0l0,-0.152l0.152,0l0,-0.151l0.304,0l0,-0.152l0.151,0l0,-0.152l0.304,0l0,-0.152l0.152,0l0,-0.152l0.304,0l0,-0.152l0.152,0l0,-0.152l0.304,0l0,-0.152l0.152,0l0,-0.152l0.303,0l0,-0.152l0.152,0l0,-0.151l0.304,0l0,-0.152l0.152,0l0,-0.152l0.304,0l0,-0.152l0.152,0l0,-0.152l0.303,0l0,-0.152l0.152,0l0,-0.152l0.304,0l0,-0.152l0.152,0l0,-0.152l0.304,0l0,-0.152l0.304,0l0,-0.151l0.151,0l0,-0.152l0.304,0l0,-0.152l0.152,0l0,-0.152l0.304,0l0,-0.152l0.152,0l0,-0.152l0.304,0l0,-0.152l0.152,0l0,-0.152l0.303,0l0,-0.152l0.152,0l0,-0.152l0.304,0l0,-0.151l0.304,0l0,-0.152l0.152,0l0,-0.152l0.304,0l0,-0.152l0.151,0l0,-0.152l0.304,0l0,-0.152l0.304,0l0,-0.152l0.152,0l0,-0.152l0.304,0l0,-0.152l0.152,0l0,-0.151l0.303,0l0,-0.152l0.152,0l0,-0.152l0.304,0l0,-0.152l0.304,0l0,-0.152l0.152,0l0,-0.152l0.304,0l0,-0.152l0.303,0l0,-0.152l0.152,0l0,-0.152l0.304,0l0,-0.152l0.304,0l0,-0.151l0.152,0l0,-0.152l0.304,0l0,-0.152l0.303,0l0,-0.152l0.152,0l0,-0.152l0.304,0l0,-0.152l0.304,0l0,-0.152l0.152,0l0,-0.152l0.304,0l0,-0.152l0.303,0l0,-0.152l0.152,0l0,-0.151l0.304,0l0,-0.152l0.304,0l0,-0.152l0.304,0l0,-0.152l0.152,0l0,-0.152l0.303,0l0,-0.152l0.304,0l0,-0.152l0.304,0l0,-0.152l0.152,0l0,-0.152l0.304,0l0,-0.152l0.303,0l0,-0.151l0.304,0l0,-0.152l0.304,0l0,-0.152l0.152,0l0,-0.152l0.304,0l0,-0.152l0.304,0l0,-0.152l0.303,0l0,-0.152l0.304,0l0,-0.152l0.304,0l0,-0.152l0.304,0l0,-0.152l0.304,0l0,-0.151l0.303,0l0,-0.152l0.304,0l0,-0.152l0.304,0l0,-0.152l0.304,0l0,-0.152l0.304,0l0,-0.152l0.151,0l0,-0.152l0.456,0l0,-0.152l0.304,0l0,-0.152l0.304,0l0,-0.152l0.304,0l0,-0.151l0.303,0l0,-0.152l0.456,0l0,-0.152l0.304,0l0,-0.152l0.304,0l0,-0.152l0.303,0l0,-0.152l0.304,0l0,-0.152l0.456,0l0,-0.152l0.304,0l0,-0.152l0.455,0l0,-0.152l0.304,0l0,-0.151l0.456,0l0,-0.152l0.456,0l0,-0.152l0.303,0l0,-0.152l0.456,0l0,-0.152l0.304,0l0,-0.152l0.456,0l0,-0.152l0.607,0l0,-0.152l0.456,0l0,-0.152l0.607,0l0,-0.152l0.456,0l0,-0.151l0.608,0l0,-0.152l0.607,0l0,-0.152l0.76,0l0,-0.152l0.911,0l0,-0.152l0.76,0l0,-0.152l2.582,0l0,-0.152l0.304,0l0,0.152l1.367,0l0,0.152l1.215,0l0,0.152l0.456,0l0,0.152l0.455,0l0,0.152l0.456,0l0,0.152l0.304,0l0,0.151l0.456,0l0,0.152l0.303,0l0,0.152l0.304,0l0,0.152l0.152,0l0,0.152l0.304,0l0,0.152l0.304,0l0,0.152l0.152,0l0,0.152l0.303,0l0,0.152l0.152,0l0,0.152l0.304,0l0,0.151l0.152,0l0,0.152l0.152,0l0,0.152l0.152,0l0,0.152l0.152,0l0,0.152l0.152,0l0,0.152l0.152,0l0,0.152l0.151,0l0,0.152l0.152,0l0,0.152l0.152,0l0,0.152l0.152,0l0,0.151l0.152,0l0,0.304l0.152,0l0,0.152l0.152,0l0,0.152l0.152,0l0,0.304l0.152,0l0,0.152l0.152,0l0,0.304l0.151,0l0,0.151l0.152,0l0,0.304l0.152,0l0,0.304l0.152,0l0,0.152l0.152,0l0,0.304l0.152,0l0,0.304l0.152,0l0,0.303l0.152,0l0,0.304l0.152,0l0,0.456l0.152,0l0,0.304l0.151,0l0,0.455l0.152,0l0,0.304l0.152,0l0,0.456l0.152,0l0,0.456l0.152,0l0,0.607l0.152,0l0,0.456l0.152,0l0,0.607l0.152,0l0,0.912l0.152,0l0,0.76l0.152,0l0,1.67l0.151,0l0,3.798l-0.151,0l0,1.215l-0.152,0l0,1.367l-0.152,0l0,0.76l-0.152,0l0,0.759l-0.152,0l0,0.608l-0.152,0l0,0.759l-0.152,0l0,0.608l-0.152,0l0,0.607l-0.152,0l0,0.456l-0.152,0l0,0.456l-0.151,0l0,0.455l-0.152,0l0,0.608l-0.152,0l0,0.456l-0.152,0l0,0.455l-0.152,0l0,0.456l-0.152,0l0,0.304l-0.152,0l0,0.455l-0.152,0l0,0.304l-0.152,0l0,0.456l-0.152,0l0,0.304l-0.151,0l0,0.455l-0.152,0l0,0.304l-0.152,0l0,0.456l-0.152,0l0,0.304l-0.152,0l0,0.304l-0.152,0l0,0.303l-0.152,0l0,0.304l-0.152,0l0,0.456l-0.152,0l0,0.304l-0.152,0l0,0.303l-0.151,0l0,0.304l-0.152,0l0,0.304l-0.152,0l0,0.152l-0.152,0l0,0.304l-0.152,0l0,0.304l-0.152,0l0,0.303l-0.152,0l0,0.304l-0.152,0l0,0.152l-0.152,0l0,0.304l-0.152,0l0,0.304l-0.151,0l0,0.151l-0.152,0l0,0.304l-0.152,0l0,0.304l-0.152,0l0,0.152l-0.152,0l0,0.304l-0.152,0l0,0.304l-0.152,0l0,0.151l-0.152,0l0,0.304l-0.152,0l0,0.152l-0.152,0l0,0.304l-0.151,0l0,0.152l-0.152,0l0,0.304l-0.152,0l0,0.152l-0.152,0l0,0.303l-0.152,0l0,0.152l-0.152,0l0,0.304l-0.152,0l0,0.152l-0.152,0l0,0.304l-0.152,0l0,0.152l-0.152,0l0,0.152l-0.151,0l0,0.303l-0.152,0l0,0.152l-0.152,0l0,0.152l-0.152,0l0,0.304l-0.152,0l0,0.152l-0.152,0l0,0.152l-0.152,0l0,0.304l-0.152,0l0,0.151l-0.152,0l0,0.304l-0.151,0l0,0.152l-0.152,0l0,0.152l-0.152,0l0,0.152l-0.152,0l0,0.304l-0.152,0l0,0.152l-0.152,0l0,0.152l-0.152,0l0,0.151l-0.152,0l0,0.304l-0.152,0l0,0.152l-0.152,0l0,0.152l-0.151,0l0,0.152l-0.152,0l0,0.304l-0.152,0l0,0.152l-0.152,0l0,0.152l-0.152,0l0,0.151l-0.152,0l0,0.152l-0.152,0l0,0.304l-0.152,0l0,0.152l-0.152,0l0,0.152l-0.152,0l0,0.152l-0.151,0l0,0.152l-0.152,0l0,0.304l-0.152,0l0,0.151l-0.152,0l0,0.152l-0.152,0l0,0.152l-0.152,0l0,0.152l-0.152,0l0,0.152l-0.152,0l0,0.152l-0.152,0l0,0.152l-0.152,0l0,0.304l-0.151,0l0,0.151l-0.152,0l0,0.152l-0.152,0l0,0.152l-0.152,0l0,0.152l-0.152,0l0,0.152l-0.152,0l0,0.152l-0.152,0l0,0.152l-0.152,0l0,0.152l-0.152,0l0,0.304l-0.152,0l0,0.151l-0.151,0l0,0.152l-0.152,0l0,0.152l-0.152,0l0,0.152l-0.152,0l0,0.152l-0.152,0l0,0.152l-0.152,0l0,0.152l-0.152,0l0,0.152l-0.152,0l0,0.152l-0.152,0l0,0.152l-0.152,0l0,0.151l-0.151,0l0,0.152l-0.152,0l0,0.152l-0.152,0l0,0.152l-0.152,0l0,0.152l-0.152,0l0,0.152l-0.152,0l0,0.152l-0.152,0l0,0.152l-0.152,0l0,0.152l-0.152,0l0,0.152l-0.152,0l0,0.151l-0.151,0l0,0.152l-0.152,0l0,0.152l-0.152,0l0,0.152l-0.152,0l0,0.152l-0.152,0l0,0.152l-0.152,0l0,0.152l-0.152,0l0,0.152l-0.152,0l0,0.152l-0.152,0l0,0.152l-0.152,0l0,0.151l-0.151,0l0,0.152l-0.152,0l0,0.152l-0.152,0l0,0.152l-0.152,0l0,0.152l-0.152,0l0,0.152l-0.152,0l0,0.152l-0.152,0l0,0.152l-0.152,0l0,0.152l-0.152,0l0,0.152l-0.151,0l0,0.151l-0.152,0l0,0.152l-0.304,0l0,0.152l-0.152,0l0,0.152l-0.152,0l0,0.152l-0.152,0l0,0.152l-0.152,0l0,0.152l-0.152,0l0,0.152l-0.152,0l0,0.152l-0.151,0l0,0.152l-0.152,0l0,0.151l-0.152,0l0,0.152l-0.304,0l0,0.152l-0.152,0l0,0.152l-0.152,0l0,0.152l-0.152,0l0,0.152l-0.152,0l0,0.152l-0.152,0l0,0.152l-0.151,0l0,0.152l-0.152,0l0,0.152l-0.304,0l0,0.151l-0.152,0l0,0.152l-0.152,0l0,0.152l-0.152,0l0,0.152l-0.152,0l0,0.152l-0.152,0l0,0.152l-0.152,0l0,0.152l-0.303,0l0,0.152l-0.152,0l0,0.152l-0.152,0l0,0.151l-0.152,0l0,0.152l-0.152,0l0,0.152l-0.304,0l0,0.152l-0.152,0l0,0.152l-0.152,0l0,0.152l-0.151,0l0,0.152l-0.152,0l0,0.152l-0.304,0l0,0.152l-0.152,0l0,0.152l-0.152,0l0,0.151l-0.152,0l0,0.152l-0.152,0l0,0.152l-0.304,0l0,0.152l-0.151,0l0,0.152l-0.152,0l0,0.152l-0.152,0l0,0.152l-0.304,0l0,0.152l-0.152,0l0,0.152l-0.152,0l0,0.152l-0.152,0l0,0.151l-0.304,0l0,0.152l-0.151,0l0,0.152l-0.152,0l0,0.152l-0.152,0l0,0.152l-0.304,0l0,0.152l-0.152,0l0,0.152l-0.152,0l0,0.152l-0.152,0l0,0.152l-0.304,0l0,0.152l-0.151,0l0,0.151l-0.152,0l0,0.152l-0.304,0l0,0.152l-0.152,0l0,0.152l-0.152,0l0,0.152l-0.304,0l0,0.152l-0.152,0l0,0.152l-0.151,0l0,0.152l-0.304,0l0,0.152l-0.152,0l0,0.152l-0.152,0l0,0.151l-0.304,0l0,0.152l-0.152,0l0,0.152l-0.152,0l0,0.152l-0.303,0l0,0.152l-0.152,0l0,0.152l-0.152,0l0,0.152l-0.304,0l0,0.152l-0.152,0l0,0.152l-0.304,0l0,0.152l-0.152,0l0,0.151l-0.152,0l0,0.152l-0.303,0l0,0.152l-0.152,0l0,0.152l-0.304,0l0,0.152l-0.152,0l0,0.152l-0.304,0l0,0.152l-0.152,0l0,0.152l-0.152,0l0,0.152l-0.303,0l0,0.152l-0.152,0l0,0.151l-0.304,0l0,0.152l-0.152,0l0,0.152l-0.304,0l0,0.152l-0.152,0l0,0.152l-0.303,0l0,0.152l-0.152,0l0,0.152l-0.304,0l0,0.152l-0.152,0l0,0.152l-0.304,0l0,0.152l-0.152,0l0,0.151l-0.304,0l0,0.152l-0.151,0l0,0.152l-0.304,0l0,0.152l-0.304,0l0,0.152l-0.152,0l0,0.152l-0.304,0l0,0.152l-0.152,0l0,0.152l-0.303,0l0,0.152l-0.304,0l0,0.151l-0.152,0l0,0.152l-0.304,0l0,0.152l-0.152,0l0,0.152l-0.304,0l0,0.152l-0.303,0l0,0.152l-0.304,0l0,0.152l-0.152,0l0,0.152l-0.304,0l0,0.152l-0.304,0l0,0.152l-0.152,0l0,0.151l-0.303,0l0,0.152l-0.304,0l0,0.152l-0.304,0l0,0.152l-0.152,0l0,0.152l-0.304,0l0,0.152l-0.303,0l0,0.152l-0.304,0l0,0.152l-0.304,0l0,0.152l-0.304,0l0,0.152l-0.152,0l0,0.151l-0.304,0l0,0.152l-0.303,0l0,0.152l-0.304,0l0,0.152l-0.304,0l0,0.152l-0.304,0l0,0.152l-0.304,0l0,0.152l-0.303,0l0,0.152l-0.304,0l0,0.152l-0.456,0l0,0.152l-0.304,0l0,0.151l-0.303,0l0,0.152l-0.304,0l0,0.152l-0.304,0l0,0.152l-0.456,0l0,0.152l-0.304,0l0,0.152l-0.455,0l0,0.152l-0.304,0l0,0.152l-0.456,0l0,0.152l-0.455,0l0,0.152l-0.304,0l0,0.151l-0.608,0l0,0.152l-0.456,0l0,0.152l-0.455,0l0,0.152l-0.608,0l0,0.152l-0.76,0l0,0.152l-1.063,0l0,0.152l-1.519,0l0,-0.152l-0.607,0l0,-0.152l-0.456,0l0,-0.152l-0.304,0l0,-0.152l-0.303,0l0,-0.152l-0.152,0l0,-0.152l-0.152,0l0,-0.151l-0.152,0l0,-0.152l-0.152,0l0,-0.304l-0.152,0l0,-0.304l-0.152,0l0,-0.304l-0.152,0l0,-0.455l-0.152,0l0,-1.52l0.152,0l0,-0.759l0.152,0l0,-0.456l0.152,0l0,-0.455l0.152,0l0,-0.304l0.152,0l0,-0.304l0.152,0l0,-0.304l0.152,0l0,-0.304l0.152,0l0,-0.303l0.151,0l0,-0.304l0.152,0l0,-0.152l0.152,0l0,-0.304l0.152,0l0,-0.304l0.152,0l0,-0.151l0.152,0l0,-0.304l0.152,0l0,-0.152l0.152,0l0,-0.304l0.152,0l0,-0.152l0.152,0l0,-0.304l0.151,0l0,-0.152l0.152,0l0,-0.151l0.152,0l0,-0.304l0.152,0l0,-0.152l0.152,0l0,-0.152l0.152,0l0,-0.304l0.152,0l0,-0.152l0.152,0l0,-0.152l0.152,0l0,-0.303l0.152,0l0,-0.152l0.151,0l0,-0.152l0.152,0l0,-0.152l0.152,0l0,-0.152l0.152,0l0,-0.304l0.152,0l0,-0.152l0.152,0l0,-0.152l0.152,0l0,-0.152l0.152,0l0,-0.151l0.152,0l0,-0.152l0.152,0l0,-0.304l0.151,0l0,-0.152l0.152,0l0,-0.152l0.152,0l0,-0.152l0.152,0l0,-0.152l0.152,0l0,-0.152l0.152,0l0,-0.152l0.152,0l0,-0.151l0.152,0l0,-0.152l0.152,0l0,-0.152l0.151,0l0,-0.304l0.152,0l0,-0.152l0.152,0l0,-0.152l0.152,0l0,-0.152l0.152,0l0,-0.152l0.152,0l0,-0.152l0.152,0l0,-0.151l0.152,0l0,-0.152l0.152,0l0,-0.152l0.152,0l0,-0.152l0.151,0l0,-0.152l0.152,0l0,-0.152l0.152,0l0,-0.152l0.152,0l0,-0.152l0.152,0l0,-0.152l0.152,0l0,-0.152l0.152,0l0,-0.151l0.152,0l0,-0.152l0.152,0l0,-0.152l0.152,0l0,-0.152l0.151,0l0,-0.152l0.152,0l0,-0.152l0.152,0l0,-0.152l0.152,0l0,-0.152l0.152,0l0,-0.152l0.152,0l0,-0.152l0.152,0l0,-0.151l0.152,0l0,-0.152l0.152,0l0,-0.152l0.152,0l0,-0.152l0.151,0l0,-0.152l0.152,0l0,-0.152l0.152,0l0,-0.152l0.152,0l0,-0.152l0.152,0l0,-0.152l0.152,0l0,-0.151l0.152,0l0,-0.152l0.152,0l0,-0.152l0.152,0l0,-0.152l0.152,0l0,-0.152l0.151,0l0,-0.152l0.152,0l0,-0.152l0.152,0l0,-0.152l0.152,0l0,-0.152l0.152,0l0,-0.152l0.152,0l0,-0.151l0.152,0l0,-0.152l0.152,0l0,-0.152l0.152,0l0,-0.152l0.152,0l0,-0.152l0.151,0l0,-0.152l0.152,0l0,-0.152l0.152,0l0,-0.152l0.152,0l0,-0.152l0.304,0l0,-0.152l0.152,0l0,-0.303l0.152,0l0,-0.152l0.152,0l0,-0.152l0.152,0l0,-0.152l0.151,0l0,-0.152l0.152,0l0,-0.152l0.152,0l0,-0.152l0.152,0l0,-0.152l0.152,0l0,-0.152l0.152,0l0,-0.151l0.152,0l0,-0.152l0.152,0l0,-0.304l0.152,0l0,-0.152l0.152,0l0,-0.152l0.151,0l0,-0.152l0.152,0l0,-0.152l0.152,0l0,-0.152l0.152,0l0,-0.303l0.152,0l0,-0.152l0.152,0l0,-0.152l0.152,0l0,-0.304l0.152,0l0,-0.152l0.152,0l0,-0.152l0.151,0l0,-0.152l0.152,0l0,-0.304l0.152,0l0,-0.151l0.152,0l0,-0.304l0.152,0l0,-0.152l0.152,0l0,-0.304l0.152,0l0,-0.304l0.152,0l0,-0.152l0.152,0l0,-0.303l0.152,0l0,-0.304l0.151,0l0,-0.152l0.152,0l0,-0.456l0.152,0l0,-0.456l0.152,0l0,-0.455l0.152,0l0,-0.304l0.152,0l0,-2.278l-0.152,0l0,-0.608l-0.152,0l0,-0.456l-0.152,0l0,-0.152l-0.152,0l0,-0.303l-0.152,0l0,-0.152l-0.151,0l0,-0.304l-0.152,0l0,-0.152l-0.152,0l0,-0.152l-0.152,0l0,-0.152l-0.152,0l0,-0.152l-0.152,0l0,-0.152l-0.152,0l0,-0.152l-0.152,0l0,-0.151l-0.152,0l0,-0.152l-0.303,0l0,-0.152l-0.152,0l0,-0.152l-0.304,0l0,-0.152l-0.152,0l0,-0.152l-0.304,0l0,-0.152l-0.304,0l0,-0.152l-0.303,0l0,-0.152l-0.304,0l0,-0.152l-0.456,0l0,-0.151l-0.456,0l0,-0.152l-0.303,0l0,-0.152l-0.456,0l0,-0.152l-0.76,0l0,-0.152l-0.607,0l0,-0.152l-0.912,0l0,-0.152l-1.367,0l0,-0.152l-0.152,0l0,0.152l-2.734,0l0,0.152l-0.911,0l0,0.152l-0.76,0l0,0.152l-0.455,0l0,0.152l-0.456,0l0,0.152l-0.608,0l0,0.152l-0.455,0l0,0.151l-0.304,0l0,0.152l-0.304,0l0,0.152l-0.304,0l0,0.152l-0.455,0l0,0.152l-0.304,0l0,0.152l-0.304,0l0,0.152l-0.304,0l0,0.152l-0.304,0l0,0.152l-0.151,0l0,0.152l-0.304,0l0,0.151l-0.152,0l0,0.152l-0.304,0l0,0.152l-0.152,0l0,0.152l-0.304,0l0,0.152l-0.152,0l0,0.152l-0.151,0l0,0.152l-0.304,0l0,0.152l-0.152,0l0,0.152l-0.304,0l0,0.152l-0.152,0l0,0.151l-0.152,0l0,0.152l-0.152,0l0,0.152l-0.152,0l0,0.152l-0.151,0l0,0.152l-0.304,0l0,0.152l-0.152,0l0,0.152l-0.152,0l0,0.152l-0.152,0l0,0.152l-0.152,0l0,0.152l-0.152,0l0,0.151l-0.152,0l0,0.152l-0.152,0l0,0.152l-0.151,0l0,0.152l-0.152,0l0,0.152l-0.152,0l0,0.152l-0.152,0l0,0.152l-0.152,0l0,0.152l-0.152,0l0,0.152l-0.152,0l0,0.152l-0.152,0l0,0.303l-0.152,0l0,0.152l-0.152,0l0,0.152l-0.151,0l0,0.152l-0.152,0l0,0.152l-0.152,0l0,0.304l-0.152,0l0,0.152l-0.152,0l0,0.151l-0.152,0l0,0.152l-0.152,0l0,0.152l-0.152,0l0,0.152l-0.152,0l0,0.304l-0.152,0l0,0.152l-0.151,0l0,0.304l-0.152,0l0,0.152l-0.152,0l0,0.303l-0.152,0l0,0.152l-0.152,0l0,0.304l-0.152,0l0,0.152l-0.152,0l0,0.304l-0.152,0l0,0.152l-0.152,0l0,0.303l-0.151,0l0,0.152l-0.152,0l0,0.304l-0.152,0l0,0.152l-0.152,0l0,0.304l-0.152,0l0,0.152l-0.152,0l0,0.304l-0.152,0l0,0.303l-0.152,0l0,0.304l-0.152,0l0,0.304l-0.152,0l0,0.304l-0.151,0l0,0.304l-0.152,0l0,0.303l-0.152,0l0,0.152l-0.152,0l0,0.304l-0.152,0l0,0.304l-0.152,0l0,0.304l-0.152,0l0,0.303l-0.152,0l0,0.304l-0.152,0l0,0.304l-0.152,0l0,0.304l-0.151,0l0,0.304l-0.152,0l0,0.303l-0.152,0l0,0.456l-0.152,0l0,0.304l-0.152,0l0,0.304l-0.152,0l0,0.455l-0.152,0l0,0.304l-0.152,0l0,0.304l-0.152,0l0,0.456l-0.152,0l0,0.303l-0.151,0l0,0.304l-0.152,0l0,0.456l-0.152,0l0,0.304l-0.152,0l0,0.455l-0.152,0l0,0.456l-0.152,0l0,0.456l-0.152,0l0,0.456l-0.152,0l0,0.607l-0.152,0l0,0.456l-0.152,0l0,0.456l-0.151,0l0,0.607l-0.152,0l0,1.063l-0.152,0l0,1.064l-0.152,0l0,1.215l-0.152,0l0,0.152l0.152,0l0,3.038l0.152,0l0,0.607l0.152,0l0,0.608l0.152,0l0,0.76l0.151,0l0,0.607l0.152,0l0,0.304l0.152,0l0,0.304l0.152,0l0,0.455l0.152,0l0,0.304l0.152,0l0,0.304l0.152,0l0,0.304l0.152,0l0,0.304l0.152,0l0,0.303l0.152,0l0,0.152l0.151,0l0,0.304l0.152,0l0,0.152l0.152,0l0,0.304l0.152,0l0,0.152l0.152,0l0,0.152l0.152,0l0,0.303l0.152,0l0,0.152l0.152,0l0,0.152l0.152,0l0,0.304l0.303,0l0,0.152l0.152,0l0,0.152l0.152,0l0,0.152l0.152,0l0,0.152l0.152,0l0,0.151l0.152,0l0,0.152l0.152,0l0,0.152l0.152,0l0,0.152l0.152,0l0,0.152l0.152,0l0,0.152l0.151,0l0,0.152l0.304,0l0,0.152l0.152,0l0,0.152l0.304,0l0,0.152l0.152,0l0,0.151l0.304,0l0,0.152l0.152,0l0,0.152l0.303,0l0,0.152l0.152,0l0,0.152l0.304,0l0,0.152l0.304,0l0,0.152l0.304,0l0,0.152l0.303,0l0,0.152l0.456,0l0,0.152l0.456,0l0,0.151l0.455,0l0,0.152l0.76,0l0,0.152l0.911,0l0,0.152l1.52,0l0,0.152l2.43,0l0,-0.152l1.823,0l0,-0.152l1.063,0l0,-0.152l0.911,0l0,-0.152l0.76,0l0,-0.151l0.76,0l0,-0.152l0.607,0l0,-0.152l0.607,0l0,-0.152l0.608,0l0,-0.152l0.456,0l0,-0.152l0.455,0l0,-0.152l0.608,0l0,-0.152l0.456,0l0,-0.152l0.455,0l0,-0.152l0.456,0l0,-0.151l0.456,0l0,-0.152l0.304,0l0,-0.152l0.455,0l0,-0.152l0.456,0l0,-0.152l0.304,0l0,-0.152l0.455,0l0,-0.152l0.304,0l0,-0.152l0.456,0l0,-0.152l0.304,0l0,-0.152l0.455,0l0,-0.151l0.304,0l0,-0.152l0.304,0l0,-0.152l0.304,0l0,-0.152l0.456,0l0,-0.152l0.303,0l0,-0.152l0.304,0l0,-0.152l0.304,0l0,-0.152l0.304,0l0,-0.152l0.303,0l0,-0.152l0.304,0l0,-0.151l0.456,0l0,-0.152l0.304,0l0,-0.152l0.304,0l0,-0.152l0.303,0l0,-0.152l0.304,0l0,-0.152l0.152,0l0,-0.152l0.304,0l0,-0.152l0.304,0l0,-0.152l0.303,0l0,-0.152l0.304,0l0,-0.151l0.304,0l0,-0.152l0.304,0l0,-0.152l0.304,0l0,-0.152l0.152,0l0,-0.152l0.303,0l0,-0.152l0.304,0l0,-0.152l0.304,0l0,-0.152l0.304,0l0,-0.152l0.152,0l0,-0.152l0.303,0l0,-0.151l0.304,0l0,-0.152l0.304,0l0,-0.152l0.152,0l0,-0.152l0.304,0l0,-0.152l0.304,0l0,-0.152l0.151,0l0,-0.152l0.304,0l0,-0.152l0.304,0l0,-0.152l0.152,0l0,-0.152l0.304,0l0,-0.151l0.304,0l0,-0.152l0.151,0l0,-0.152l0.304,0l0,-0.152l0.152,0l0,-0.152l0.304,0l0,-0.152l0.304,0l0,-0.152l0.152,0l0,-0.152l0.303,0l0,-0.152l0.152,0l0,-0.152l0.304,0l0,-0.151l0.304,0l0,-0.152l0.152,0l0,-0.152l0.304,0l0,-0.152l0.151,0l0,-0.152l0.304,0l0,-0.152l0.152,0l0,-0.152l0.304,0l0,-0.152l0.152,0l0,-0.152l0.304,0l0,-0.151l0.152,0l0,-0.152l0.303,0l0,-0.152l0.152,0l0,-0.152l0.304,0l0,-0.152l0.152,0l0,-0.152l0.304,0l0,-0.152l0.152,0l0,-0.152l0.152,0l0,-0.152l0.303,0l0,-0.152l0.152,0l0,-0.151l0.304,0l0,-0.152l0.152,0l0,-0.152l0.304,0l0,-0.152l0.152,0l0,-0.152l0.303,0l0,-0.152l0.152,0l0,-0.152l0.152,0l0,-0.152l0.304,0l0,-0.152l0.152,0l0,-0.152l0.152,0l0,-0.151l0.304,0l0,-0.152l0.152,0l0,-0.152l0.303,0l0,-0.152l0.152,0l0,-0.152l0.152,0l0,-0.152l0.304,0l0,-0.152l0.152,0l0,-0.152l0.152,0l0,-0.152l0.304,0l0,-0.152l0.151,0l0,-0.151l0.304,0l0,-0.152l0.152,0l0,-0.152l0.152,0l0,-0.152l0.304,0l0,-0.152l0.152,0l0,-0.152l0.152,0l0,-0.152l0.303,0l0,-0.152l0.152,0l0,-0.152l0.152,0l0,-0.152l0.152,0l0,-0.151l0.304,0l0,-0.152l0.152,0l0,-0.152l0.152,0l0,-0.152l0.304,0l0,-0.152l0.151,0l0,-0.152l0.152,0l0,-0.152l0.304,0l0,-0.152l0.152,0l0,-0.152l0.152,0l0,-0.152l0.152,0l0,-0.151l0.304,0l0,-0.152l0.151,0l0,-0.152l0.152,0l0,-0.152l0.304,0l0,-0.152l0.152,0l0,-0.152l0.152,0l0,-0.152l0.152,0l0,-0.152l0.304,0l0,-0.152l0.152,0l0,-0.152l0.151,0l0,-0.151l0.152,0l0,-0.152l0.304,0l0,-0.152l0.152,0l0,-0.152l0.152,0l0,-0.152l0.152,0l0,-0.152l0.304,0l0,-0.152l0.152,0l0,-0.152l0.151,0l0,-0.152l0.152,0l0,-0.152l0.152,0l0,-0.151l0.304,0l0,-0.152l0.152,0l0,-0.152l0.152,0l0,-0.152l0.152,0l0,-0.152l0.304,0l0,-0.152l0.151,0l0,-0.152l0.152,0l0,-0.152l0.152,0l0,-0.152l0.152,0l0,-0.151l0.304,0l0,-0.152l0.152,0l0,-0.152l0.152,0l0,-0.152l0.152,0l0,-0.152l0.152,0l0,-0.152l0.303,0l0,-0.152l0.152,0l0,-0.152l0.152,0l0,-0.152l0.152,0l0,-0.152l0.152,0l0,-0.151l0.152,0l0,-0.152l0.304,0l0,-0.152l0.152,0l0,-0.152l0.151,0l0,-0.152l0.152,0l0,-0.152l0.152,0l0,-0.152l0.152,0l0,-0.152l0.304,0l0,-0.152l0.152,0l0,-0.152l0.152,0l0,-0.151l0.152,0l0,-0.152l0.152,0l0,-0.152l0.151,0l0,-0.152l0.152,0l0,-0.152l0.304,0l0,-0.152l0.152,0l0,-0.152l0.152,0l0,-0.152l0.152,0l0,-0.152l0.152,0l0,-0.152l0.152,0l0,-0.151l0.152,0l0,-0.152l0.151,0l0,-0.152l0.152,0l0,-0.152l0.304,0l0,-0.152l0.152,0l0,-0.152l0.152,0l0,-0.152l0.152,0l0,-0.152l0.152,0l0,-0.152l0.152,0l0,-0.152l0.151,0l0,-0.151l0.152,0l0,-0.152l0.152,0l0,-0.152l0.152,0l0,-0.152l0.152,0l0,-0.152l0.152,0l0,-0.152l0.152,0l0,-0.152l0.152,0l0,-0.152l0.152,0l0,-0.152l0.152,0l0,-0.152l0.151,0l0,-0.151l0.152,0l0,-0.152l0.152,0l0,-0.152l0.152,0l0,-0.152l0.152,0l0,-0.152l0.152,0l0,-0.152l0.152,0l0,-0.152l0.152,0l0,-0.152l0.152,0l0,-0.152l0.152,0l0,-0.152l0.151,0l0,-0.151l0.152,0l0,-0.152l0.152,0l0,-0.152l0.152,0l0,-0.152l0.152,0l0,-0.152l0.152,0l0,-0.152l0.152,0l0,-0.152l0.152,0l0,-0.152l0.152,0l0,-0.152l0.152,0l0,-0.152l0.151,0l0,-0.303l0.152,0l0,-0.152l0.152,0l0,-0.152l0.152,0l0,-0.152l0.152,0l0,-0.152l0.152,0l0,-0.152l0.152,0l0,-0.152l0.152,0l0,-0.152l0.152,0l0,-0.151l0.152,0l0,-0.152l0.151,0l0,-0.304l0.152,0l0,-0.152l0.152,0l0,-0.152l0.152,0l0,-0.152l0.152,0l0,-0.152l0.152,0l0,-0.152l0.152,0l0,-0.303l0.152,0l0,-0.152l0.152,0l0,-0.152l0.152,0l0,-0.152l0.151,0l0,-0.152l0.152,0l0,-0.152l0.152,0l0,-0.304l0.152,0l0,-0.152l0.152,0l0,-0.152l0.152,0l0,-0.151l0.152,0l0,-0.152l0.152,0l0,-0.304l0.152,0l0,-0.152l0.152,0l0,-0.152l0.151,0l0,-0.304l0.152,0l0,-0.152l0.152,0l0,-0.152l0.152,0l0,-0.151l0.152,0l0,-0.304l0.152,0l0,-0.152l0.152,0l0,-0.152l0.152,0l0,-0.152l0.152,0l0,-0.304l0.152,0l0,-0.152l0.151,0l0,-0.152l0.152,0l0,-0.303l0.152,0l0,-0.152l0.152,0l0,-0.152l0.152,0l0,-0.304l0.152,0l0,-0.152l0.152,0l0,-0.152l0.152,0l0,-0.304l0.152,0l0,-0.151l0.151,0l0,-0.304l0.152,0l0,-0.152l0.152,0l0,-0.152l0.152,0l0,-0.304l0.152,0l0,-0.152l0.152,0l0,-0.304l0.152,0l0,-0.151l0.152,0l0,-0.152l0.152,0l0,-0.304l0.152,0l0,-0.152l0.151,0l0,-0.304l0.152,0l0,-0.152l0.152,0l0,-0.304l0.152,0l0,-0.151l0.152,0l0,-0.304l0.152,0l0,-0.152l0.152,0l0,-0.304l0.152,0l0,-0.152l0.152,0l0,-0.304l0.152,0l0,-0.151l0.151,0l0,-0.304l0.152,0l0,-0.304l0.152,0l0,-0.152l0.152,0l0,-0.304l0.152,0l0,-0.152l0.152,0l0,-0.303l0.152,0l0,-0.304l0.152,0l0,-0.152l0.152,0l0,-0.304l0.152,0l0,-0.304l0.151,0l0,-0.152l0.152,0l0,-0.303l0.152,0l0,-0.304l0.152,0l0,-0.152l0.152,0l0,-0.304l0.152,0l0,-0.304l0.152,0l0,-0.304l0.152,0l0,-0.151l0.152,0l0,-0.304l0.152,0l0,-0.304l0.151,0l0,-0.304l0.152,0l0,-0.304l0.152,0l0,-0.303l0.152,0l0,-0.304l0.152,0l0,-0.152l0.152,0l0,-0.304l0.152,0l0,-0.304l0.152,0l0,-0.304l0.152,0l0,-0.303l0.152,0l0,-0.304l0.151,0l0,-0.304l0.152,0l0,-0.304l0.152,0l0,-0.304l0.152,0l0,-0.303l0.152,0l0,-0.456l0.152,0l0,-0.304l0.152,0l0,-0.304l0.152,0l0,-0.303l0.152,0l0,-0.304l0.152,0l0,-0.304l0.151,0l0,-0.304l0.152,0l0,-0.455l0.152,0l0,-0.304l0.152,0l0,-0.456l0.152,0l0,-0.304l0.152,0l0,-0.455l0.152,0l0,-0.304l0.152,0l0,-0.456l0.152,0l0,-0.304l0.152,0l0,-0.455l0.151,0l0,-0.304l0.152,0l0,-0.456l0.152,0l0,-0.456l0.152,0l0,-0.455l0.152,0l0,-0.456l0.152,0l0,-0.456l0.152,0l0,-0.455l0.152,0l0,-0.456l0.152,0l0,-0.456l0.151,0l0,-0.456l0.152,0l0,-0.607l0.152,0l0,-0.608l0.152,0l0,-0.455l0.152,0l0,-0.608l0.152,0l0,-0.608l0.152,0l0,-0.607l0.152,0l0,-0.76l0.152,0l0,-0.76l0.152,0l0,-0.759l0.151,0l0,-0.76l0.152,0l0,-0.91l0.152,0l0,-1.216l0.152,0l0,-1.215l0.152,0l0,-1.975l0.152,0l0,-4.708l-0.152,0l0,-2.887l-0.152,0l0,-1.214l-0.152,0l0,-0.911l-0.152,0l0,-0.912l-0.152,0l0,-0.91l-0.151,0l0,-0.912l-0.152,0l0,-0.76l-0.152,0l0,-0.456l-0.152,0l0,-0.455l-0.152,0l0,-0.608l-0.152,0l0,-0.456l-0.152,0l0,-0.455l-0.152,0l0,-0.608l-0.152,0l0,-0.455l-0.152,0l0,-0.456l-0.151,0l0,-0.456l-0.152,0l0,-0.304l-0.152,0l0,-0.303l-0.152,0l0,-0.456l-0.152,0l0,-0.304l-0.152,0l0,-0.304l-0.152,0l0,-0.304l-0.152,0l0,-0.455l-0.152,0l0,-0.304l-0.151,0l0,-0.304l-0.152,0l0,-0.304l-0.152,0l0,-0.303l-0.152,0l0,-0.304l-0.152,0l0,-0.304l-0.152,0l0,-0.152l-0.152,0l0,-0.304l-0.152,0l0,-0.152l-0.152,0l0,-0.303l-0.152,0l0,-0.304l-0.151,0l0,-0.152l-0.152,0l0,-0.304l-0.152,0l0,-0.304l-0.152,0l0,-0.152l-0.152,0l0,-0.303l-0.152,0l0,-0.152l-0.152,0l0,-0.304l-0.152,0l0,-0.152l-0.152,0l0,-0.152l-0.152,0l0,-0.304l-0.151,0l0,-0.152l-0.152,0l0,-0.152l-0.152,0l0,-0.151l-0.152,0l0,-0.304l-0.152,0l0,-0.152l-0.152,0l0,-0.152l-0.152,0l0,-0.152l-0.152,0l0,-0.304l-0.152,0l0,-0.152l-0.152,0l0,-0.152l-0.151,0l0,-0.151l-0.152,0l0,-0.152l-0.152,0l0,-0.304l-0.152,0l0,-0.153l-0.152,0l0,-0.152l-0.152,0l0,-0.152l-0.152,0l0,-0.152l-0.152,0l0,-0.152l-0.152,0l0,-0.151l-0.303,0l0,-0.152l-0.152,0l0,-0.152l-0.152,0l0,-0.152l-0.152,0l0,-0.152l-0.152,0l0,-0.152l-0.152,0l0,-0.152l-0.152,0l0,-0.152l-0.152,0l0,-0.152l-0.152,0l0,-0.152l-0.152,0l0,-0.151l-0.151,0l0,-0.152l-0.152,0l0,-0.152l-0.152,0l0,-0.152l-0.304,0l0,-0.152l-0.152,0l0,-0.152l-0.152,0l0,-0.152l-0.304,0l0,-0.152l-0.152,0l0,-0.152l-0.151,0l0,-0.152l-0.304,0l0,-0.151l-0.152,0l0,-0.153l-0.152,0l0,-0.152l-0.304,0l0,-0.152l-0.152,0l0,-0.152l-0.152,0l0,-0.152l-0.152,0l0,-0.152l-0.303,0l0,-0.15l-0.304,0l0,-0.152l-0.152,0l0,-0.152l-0.304,0l0,-0.151l-0.304,0l0,-0.152l-0.151,0l0,-0.153l-0.304,0l0,-0.152l-0.152,0l0,-0.152l-0.304,0l0,-0.152l-0.304,0l0,-0.152l-0.152,0l0,-0.152l-0.303,0l0,-0.152l-0.304,0l0,-0.152l-0.304,0l0,-0.151l-0.304,0l0,-0.152l-0.304,0l0,-0.153l-0.303,0l0,-0.152l-0.304,0l0,-0.152l-0.304,0l0,-0.152l-0.304,0l0,-0.152l-0.304,0l0,-0.152l-0.303,0l0,-0.15l-0.304,0l0,-0.152l-0.456,0l0,-0.151l-0.304,0l0,-0.152l-0.455,0l0,-0.152l-0.304,0l0,-0.153l-0.456,0l0,-0.152l-0.456,0l0,-0.152l-0.303,0l0,-0.152l-0.456,0l0,-0.152l-0.456,0l0,-0.152l-0.456,0l0,-0.152l-0.455,0l0,-0.151l-0.608,0l0,-0.152l-0.456,0l0,-0.152l-0.455,0l0,-0.153l-0.608,0l0,-0.152l-0.607,0l0,-0.152l-0.608,0l0,-0.152l-0.76,0l0,-0.152l-0.607,0l0,-0.151l-0.76,0l0,-0.151l-0.911,0l0,-0.152l-0.911,0l0,-0.152l-0.912,0l0,-0.152l-1.367,0l0,-0.152l-1.367,0l0,-0.152l-7.443,0z"/>
  <path id="svg_2" fill="#d10010" d="m42.228,109.063l0,0.304l0.152,0l0,-0.304l-0.152,0zm-0.152,0.304l0,0.304l0.152,0l0,-0.304l-0.152,0zm-0.152,0.304l0,0.304l0.152,0l0,-0.304l-0.152,0zm-0.152,0.456l0,0.303l0.152,0l0,-0.303l-0.152,0zm-0.152,0.455l0,0.304l0.152,0l0,-0.304l-0.152,0zm-0.152,0.76l0,0.304l0.152,0l0,-0.304l-0.152,0zm0.912,-2.582l0,0.303l0.152,0l0,-0.304l-0.152,0l0,0.001zm1.063,-1.975l0,0.304l0.152,0l0,-0.304l-0.152,0z"/>
  <path id="svg_3" fill="#d10010" d="m43.443,106.937l0,0.152l-0.152,0l0,0.152l-0.152,0l0,0.303l-0.152,0l0,0.304l-0.152,0l0,0.152l-0.151,0l0,0.304l-0.152,0l0,0.304l-0.152,0l0,0.303l0.152,0l0,-0.152l0.152,0l0,-0.303l0.151,0l0,-0.304l0.152,0l0,-0.152l0.152,0l0,-0.304l0.152,0l0,-0.304l0.152,0l0,-0.151l0.152,0l0,-0.304l-0.152,0zm-1.215,1.974l0,0.304l0.152,0l0,-0.152l0.152,0l0,-0.152l-0.304,0z"/>
 </g>
</svg>