<svg width="724.9" height="216.3" xmlns="http://www.w3.org/2000/svg">
 <style type="text/css">.st0{fill:#DC0C23;}
	.st1{fill:#009841;}</style>

 <g>
  <title>background</title>
  <rect fill="none" id="canvas_background" height="218.3" width="726.9" y="-1" x="-1"/>
 </g>
 <g>
  <title>Layer 1</title>
  <g stroke="null" id="svg_1">
   <g stroke="null" id="svg_2">
    <path fill="#191919" stroke="null" id="svg_3" d="m136.56899,141.43848c-12.98139,4.50201 -26.13821,7.94472 -39.99672,8.29782c-5.70129,0.08827 -11.31486,-0.3531 -16.57759,-2.64824c-7.80638,-3.35444 -11.05172,-9.53366 -9.12206,-17.91975c2.10509,-9.18056 7.45553,-16.50736 13.41995,-23.48105c12.36741,-14.47704 27.5416,-25.68792 43.59292,-35.75123c1.31568,-0.79447 3.94704,-1.41239 2.80679,-3.53099c-1.14026,-2.11859 -3.06992,-0.17655 -4.38561,0.61792c-9.73604,6.09095 -19.64751,11.91708 -29.03271,18.4494c-20.70006,14.21222 -40.43528,29.48373 -56.31117,49.34552c-4.21018,5.2082 -7.89409,10.85778 -9.91147,17.3901c-3.15764,10.06331 0.87712,16.94873 11.05172,19.1556c5.26273,1.14757 10.52545,1.23584 15.78818,0.52965c28.59415,-3.61926 54.55693,-14.91841 80.16886,-27.36514c1.14026,-0.52965 2.98221,-0.97102 2.10509,-2.82479c-0.78941,-1.76549 -2.36823,-0.7062 -3.5962,-0.26482z" class="st0"/>
    <path fill="#191919" stroke="null" id="svg_4" d="m236.29766,66.40504c-2.45594,5.9144 -6.05214,11.1226 -10.08689,16.06598c-0.78941,0.97102 -1.66653,2.03032 -0.52627,3.17789c1.22797,1.23584 2.1928,0 2.98221,-0.79447c5.0873,-4.85511 10.26232,-9.62194 15.08648,-14.74186c6.75383,-7.15025 12.89368,-14.83014 16.22674,-24.18725c3.94704,-11.1226 -0.7017,-18.62595 -12.27969,-20.47972c-8.94663,-1.41239 -17.71784,-0.17655 -26.48906,1.67722c-25.96278,5.5613 -49.9959,16.24253 -73.50274,28.24788c-1.84195,0.97102 -5.87671,1.32412 -4.38561,4.23718c1.22797,2.47169 3.94704,-0.44137 5.70129,-1.32412c19.64751,-9.26884 39.73358,-16.59563 61.66161,-17.91975c4.12247,-0.17655 8.24494,0 12.27969,0.88275c14.03394,2.82479 18.77039,11.91708 13.33224,25.15827z" class="st0"/>
   </g>
   <g stroke="null" id="svg_5">
    <path fill="#191919" stroke="null" id="svg_6" d="m496.89031,162.6244l-11.578,0l0,31.60232l-4.03476,0l0,-31.60232l-11.49029,0l0,-3.88408l27.10304,0l0,3.88408z" class="st1"/>
    <path fill="#191919" stroke="null" id="svg_7" d="m529.60693,194.22672l-4.12247,0l-7.80638,-21.71556l-7.80638,21.71556l-4.12247,0l-9.91147,-26.74722l4.12247,0l7.89409,22.68658l7.71867,-22.68658l4.12247,0l7.80638,22.68658l7.80638,-22.68658l4.12247,0l-9.82376,26.74722z" class="st1"/>
    <path fill="#191919" stroke="null" id="svg_8" d="m560.65701,194.22672l0,-4.06063c-2.10509,2.91306 -5.35044,4.32546 -9.73604,4.32546c-2.71908,0 -4.91188,-0.79447 -6.57841,-2.29514c-1.66653,-1.50067 -2.45594,-3.53099 -2.45594,-5.82613c0,-2.29514 0.87712,-4.14891 2.63136,-5.5613c1.75424,-1.41239 4.21018,-2.03032 7.2801,-2.11859l8.77121,0l0,-1.58894c0,-2.03032 -0.61398,-3.53099 -1.84195,-4.59028c-1.22797,-1.0593 -2.98221,-1.58894 -5.26273,-1.58894c-2.71908,0 -5.52586,1.0593 -8.42036,3.08961l-1.66653,-2.91306c1.84195,-1.23584 3.5962,-2.20687 5.26273,-2.73651c1.57882,-0.61792 3.50848,-0.88275 5.61357,-0.88275c3.24535,0 5.789,0.79447 7.54324,2.47169c1.75424,1.58894 2.63136,3.88408 2.71908,6.79715l0.08771,17.65493l-3.94704,0l0,-0.17655zm-8.94663,-3.17789c2.28051,0 4.21018,-0.52965 5.789,-1.58894c1.57882,-1.0593 2.63136,-2.55996 3.15764,-4.41373l0,-3.17789l-8.24494,0c-4.47332,0 -6.75383,1.41239 -6.75383,4.32546c0,1.50067 0.52627,2.64824 1.66653,3.53099c1.05255,0.88275 2.54365,1.32412 4.38561,1.32412z" class="st1"/>
    <path fill="#191919" stroke="null" id="svg_9" d="m602.05713,194.22672l-4.12247,0l-7.80638,-21.71556l-7.80638,21.71556l-4.03476,0l-9.91147,-26.74722l4.12247,0l7.89409,22.68658l7.71867,-22.68658l4.12247,0l7.80638,22.68658l7.80638,-22.68658l4.12247,0l-9.91147,26.74722z" class="st1"/>
    <path fill="#191919" stroke="null" id="svg_10" d="m626.96736,167.39123c4.21018,0 7.36782,1.32412 9.47291,3.97236c2.10509,2.73651 3.06992,6.35577 2.8945,11.03433l-21.66489,0c0.35085,2.64824 1.40339,4.67856 3.15764,6.17922c1.75424,1.50067 3.94704,2.29514 6.4907,2.29514c3.33306,0 6.13985,-1.14757 8.24494,-3.35444l2.1928,2.29514c-2.63136,3.00134 -6.22756,4.50201 -10.70088,4.50201c-3.94704,0 -7.10468,-1.23584 -9.56062,-3.79581c-2.45594,-2.47169 -3.68391,-5.73785 -3.68391,-9.71021c0,-3.97236 1.22797,-7.23852 3.68391,-9.71021c2.36823,-2.47169 5.61357,-3.70753 9.47291,-3.70753zm-9.29748,11.8288l18.15641,0c-0.17542,-2.55996 -0.96483,-4.59028 -2.63136,-6.09095c-1.57882,-1.50067 -3.68391,-2.29514 -6.31527,-2.29514c-2.54365,0 -4.64874,0.79447 -6.31527,2.29514c-1.57882,1.50067 -2.63136,3.53099 -2.8945,6.09095z" class="st1"/>
    <path fill="#191919" stroke="null" id="svg_11" d="m665.73611,170.56912l-16.6653,20.30317l17.01615,0.08827l0,3.44271l-21.84031,-0.08827l0,-3.00134l16.6653,-20.30317l-16.22674,-0.08827l0,-3.44271l20.96319,0.08827l0,3.00134l0.08771,0z" class="st1"/>
    <path fill="#191919" stroke="null" id="svg_12" d="m689.59381,194.22672l0,-4.06063c-2.10509,2.91306 -5.35044,4.32546 -9.73604,4.32546c-2.71908,0 -4.91188,-0.79447 -6.57841,-2.29514c-1.66653,-1.50067 -2.45594,-3.53099 -2.45594,-5.82613c0,-2.29514 0.87712,-4.14891 2.63136,-5.5613c1.75424,-1.41239 4.21018,-2.03032 7.2801,-2.11859l8.77121,0l0,-1.58894c0,-2.03032 -0.61398,-3.53099 -1.84195,-4.59028c-1.22797,-1.0593 -2.98221,-1.58894 -5.26273,-1.58894c-2.71908,0 -5.52586,1.0593 -8.42036,3.08961l-1.66653,-2.91306c1.84195,-1.23584 3.5962,-2.20687 5.26273,-2.73651c1.57882,-0.61792 3.50848,-0.88275 5.61357,-0.88275c3.24535,0 5.789,0.79447 7.54324,2.47169s2.63136,3.88408 2.71908,6.79715l0.08771,17.65493l-3.94704,0l0,-0.17655zm-9.03435,-3.17789c2.28051,0 4.21018,-0.52965 5.789,-1.58894c1.57882,-1.0593 2.63136,-2.55996 3.15764,-4.41373l0,-3.17789l-8.24494,0c-4.47332,0 -6.75383,1.41239 -6.75383,4.32546c0,1.50067 0.52627,2.64824 1.66653,3.53099c1.05255,0.88275 2.54365,1.32412 4.38561,1.32412z" class="st1"/>
   </g>
   <g stroke="null" id="svg_13">
    <g stroke="null" id="svg_14">
     <path fill="#191919" stroke="null" id="svg_15" d="m375.0582,94.21155l18.8581,0l0,54.11235l-18.8581,0l0,-6.9737c-3.42077,5.64958 -8.85892,8.47437 -16.40216,8.47437c-7.2801,0 -13.33224,-2.64824 -17.98098,-8.03299c-4.64874,-5.29648 -7.01697,-12.1819 -7.01697,-20.47972c0,-8.12127 2.36823,-14.83014 7.10468,-20.30317c4.73645,-5.47303 10.70088,-8.20954 17.80556,-8.20954c5.789,0 10.61316,1.85377 14.38478,5.64958l2.10509,3.08961l0,-7.3268zm-22.10345,27.27686c0,4.23718 1.05255,7.67989 3.06992,10.32813c2.01738,2.73651 4.73645,4.06063 8.06951,4.06063c3.24535,0 5.87671,-1.32412 7.89409,-4.06063c2.01738,-2.73651 3.06992,-6.17922 3.06992,-10.32813c0,-4.06063 -1.05255,-7.50334 -3.24535,-10.23986c-2.1928,-2.73651 -4.82417,-4.14891 -8.06951,-4.14891c-3.06992,0 -5.61357,1.32412 -7.71867,4.06063c-2.01738,2.73651 -3.06992,6.17922 -3.06992,10.32813z" class="st1"/>
    </g>
    <g stroke="null" id="svg_16">
     <path fill="#191919" stroke="null" id="svg_17" d="m265.94435,94.21155l18.8581,0l0,54.11235l-18.8581,0l0,-6.9737c-3.42077,5.64958 -8.85892,8.47437 -16.40216,8.47437c-7.2801,0 -13.33224,-2.64824 -17.98098,-8.03299c-4.64874,-5.29648 -7.01697,-12.1819 -7.01697,-20.47972c0,-8.12127 2.36823,-14.83014 7.10468,-20.30317c4.73645,-5.47303 10.70088,-8.20954 17.80556,-8.20954c5.789,0 10.61316,1.85377 14.38478,5.64958l2.10509,3.08961l0,-7.3268zm-22.01574,27.27686c0,4.23718 1.05255,7.67989 3.06992,10.32813c2.01738,2.73651 4.73645,4.06063 8.06951,4.06063c3.24535,0 5.87671,-1.32412 7.89409,-4.06063c2.01738,-2.73651 3.06992,-6.17922 3.06992,-10.32813c0,-4.06063 -1.05255,-7.50334 -3.24535,-10.23986c-2.1928,-2.73651 -4.82417,-4.14891 -8.06951,-4.14891c-3.06992,0 -5.61357,1.32412 -7.71867,4.06063c-2.10509,2.73651 -3.06992,6.17922 -3.06992,10.32813z" class="st1"/>
    </g>
    <g stroke="null" id="svg_18">
     <path fill="#191919" stroke="null" id="svg_19" d="m445.49102,93.32881l0,17.3901c-5.43815,-1.67722 -9.3852,-1.67722 -9.3852,-1.67722c-8.24494,-0.61792 -11.31486,6.9737 -11.31486,6.9737c-0.43856,1.41239 -0.7017,3.44271 -0.7017,5.9144l0,26.30584l-17.71784,0l0,-54.11235l17.71784,0l0,9.18056c1.05255,-3.35444 3.06992,-6.00268 5.87671,-7.85644c2.8945,-1.85377 6.4907,-2.73651 10.96401,-2.73651c1.05255,0 2.01738,0 2.80679,0.08827l1.49111,0.17655c0.17542,0.17655 0.26314,0.26482 0.26314,0.3531z" class="st1"/>
    </g>
    <path fill="#191919" stroke="null" id="svg_20" d="m566.44601,92.79916c8.50807,0 15.52504,2.64824 21.0509,8.03299c5.52586,5.38475 8.33265,12.27017 8.33265,20.56799c0,8.38609 -2.80679,15.27151 -8.33265,20.56799c-5.52586,5.38475 -12.54283,8.03299 -21.0509,8.03299c-8.59579,0 -15.61275,-2.64824 -21.22633,-8.03299c-5.52586,-5.38475 -8.33265,-12.27017 -8.33265,-20.56799c0,-8.38609 2.80679,-15.27151 8.33265,-20.56799c5.52586,-5.29648 12.63054,-8.03299 21.22633,-8.03299zm-11.31486,28.68926c0,4.41373 1.05255,8.03299 3.15764,10.94606c2.10509,2.82479 4.73645,4.32546 7.89409,4.32546c3.06992,0 5.70129,-1.41239 7.80638,-4.32546c2.10509,-2.82479 3.15764,-6.53232 3.15764,-10.94606c0,-4.32546 -1.05255,-7.94472 -3.15764,-10.94606c-2.10509,-2.91306 -4.73645,-4.41373 -7.80638,-4.41373c-3.15764,0 -5.789,1.41239 -7.89409,4.32546c-2.10509,2.82479 -3.15764,6.53232 -3.15764,11.03433z" class="st1"/>
    <rect fill="#191919" stroke="null" id="svg_21" height="54.20063" width="19.20895" class="st1" y="94.12328" x="452.15714"/>
    <rect fill="#191919" stroke="null" id="svg_22" height="16.50736" width="19.20895" class="st1" y="67.02296" x="452.15714"/>
    <path fill="#191919" stroke="null" id="svg_23" d="m524.78276,131.72827c-2.63136,2.64824 -6.05214,4.06063 -10.08689,4.06063c-4.12247,0 -7.45553,-1.32412 -10.1746,-4.06063c-2.63136,-2.64824 -3.94704,-6.09095 -3.94704,-10.32813c0,-4.23718 1.31568,-7.67989 3.94704,-10.32813c2.63136,-2.64824 6.05214,-4.06063 10.1746,-4.06063c4.03476,0 7.45553,1.32412 10.08689,4.06063c0.7017,0.7062 1.22797,1.41239 1.75424,2.11859l5.43815,-13.77084c-5.52586,-4.41373 -12.27969,-6.6206 -20.34921,-6.6206c-8.94663,0 -16.31445,2.64824 -22.10345,8.03299c-5.789,5.38475 -8.6835,12.27017 -8.6835,20.56799s2.8945,15.27151 8.6835,20.56799c5.789,5.38475 13.15682,8.03299 22.10345,8.03299c8.33265,0 15.26191,-2.38342 20.87548,-7.06197l-5.70129,-13.94739c-0.61398,1.0593 -1.22797,1.94204 -2.01738,2.73651z" class="st1"/>
    <path fill="#191919" stroke="null" id="svg_24" d="m604.95163,148.32391l0,-53.49443l17.367,0l1.22797,6.53232c0,0 5.17501,-9.09229 16.92844,-8.56264c0,0 10.35003,0 16.13903,9.18056c4.56103,-5.47303 11.40257,-9.18056 18.41954,-9.18056c6.57841,0 10.78859,1.76549 13.41995,4.50201c2.8945,2.82479 3.85933,5.29648 4.12247,7.06197c0.26314,1.76549 0.61398,4.85511 0.61398,9.44539l0,34.60366l-18.94581,0l0,-30.80785l0,-4.76683c-0.35085,-6.2675 -6.75383,-6.00268 -6.75383,-6.00268c-4.12247,0.08827 -6.22756,2.64824 -7.36782,5.03165c-0.78941,1.67722 -1.14026,3.61926 -1.14026,5.47303l0,1.76549l0,29.39546l-2.01738,0l-16.92844,0l0,-30.80785l0,-4.76683c-0.35085,-6.2675 -6.75383,-6.00268 -6.75383,-6.00268c-4.12247,0.08827 -6.22756,2.64824 -7.36782,5.03165c-0.78941,1.67722 -1.14026,3.61926 -1.14026,5.47303l0,1.76549l0,29.39546l-19.82294,0l0,-0.26482z" class="st1"/>
    <path fill="#191919" stroke="null" id="svg_25" d="m325.23773,83.79514c0,0 2.8945,0 4.91188,1.41239l0,-14.74186c0,0 -6.13985,-1.67722 -13.0691,-1.67722c-9.56062,0.7062 -14.4725,5.64958 -17.01615,10.15158c-1.75424,3.08961 -2.54365,6.70887 -2.54365,10.23986l0,59.14401l19.5598,0l0,-39.81186l10.43774,0l0,-14.47704l-10.43774,0l0,-3.53099c0.08771,0.08827 0.52627,-6.88542 8.15723,-6.70887z" class="st1"/>
    <path fill="#191919" stroke="null" id="svg_26" d="m185.24921,119.105c4.21018,1.14757 12.71826,3.61926 12.01656,9.00401c0,0 0.26314,8.47437 -19.03353,6.17923c0,0 -13.85851,-2.55997 -18.68267,-7.41507l-5.96443,14.83014c0,0 15.61276,12.62327 42.62809,6.6206c0,0 22.27887,-5.29648 20.3492,-23.56933c0,0 1.31568,-16.50736 -23.41913,-21.09764c-1.05254,-0.17655 -2.10509,-0.44137 -3.15763,-0.7062l-1.57882,-0.44137c-0.87712,-0.26483 -1.66653,-0.44138 -2.54365,-0.61792c-3.24535,-0.7062 -13.06911,-3.26617 -12.2797,-9.26884c0,0 -0.26313,-8.47437 17.63014,-6.17923c0,0 12.80596,2.55997 17.36699,7.41507l5.52586,-14.83014c0,0 -14.47249,-12.62327 -39.64587,-6.62059c0,0 -20.70005,5.29647 -18.94581,23.56932c0,0 -1.31568,16.41909 21.31404,21.09764c0.96483,0.17655 2.01738,0.44138 2.98221,0.61793c1.57882,0.44137 3.85933,0.97102 5.43815,1.41239z" class="st1"/>
   </g>
  </g>
  <g id="svg_27"/>
  <g id="svg_28"/>
  <g id="svg_29"/>
  <g id="svg_30"/>
  <g id="svg_31"/>
  <g id="svg_32"/>
 </g>
</svg>