<svg width="469.6497" height="180" xmlns="http://www.w3.org/2000/svg">

 <g>
  <title>background</title>
  <rect fill="none" id="canvas_background" height="602" width="802" y="-1" x="-1"/>
 </g>
 <g>
  <title>Layer 1</title>
  <path stroke="null" id="svg_1" fill="#333333" d="m224.91013,123.89963c-1.6726,1.16865 -5.09952,2.16948 -8.82234,2.16948c-6.83403,0 -9.90811,-5.19155 -9.78059,-11.2308c0.10771,-5.00535 3.25978,-10.6771 11.79489,-10.6771l6.80927,-0.00368l0,19.7421l-0.00124,0zm-7.02593,-55.51088c-8.10922,0 -15.40752,2.2687 -22.90762,5.9535l-1.91402,0.97633l4.56593,10.08175l2.5739,-1.20418c5.31123,-2.352 10.96912,-3.92858 16.05626,-3.71788c6.15806,0.25358 8.67749,3.04658 8.67749,8.87635l0,3.4202l-10.06905,0c-16.18502,0 -26.25655,8.48925 -26.54749,21.67025c0,12.52563 10.55437,23.30808 25.22773,23.30808c11.8407,0 21.87261,-3.80118 28.63236,-10.5007l0,-35.74183c0,-17.4048 -12.55753,-23.12188 -24.29548,-23.12188zm240.38458,57.63625l0,10.57053s-3.58663,0.67743 -6.49233,0.67743c-13.56654,0 -21.66586,-6.32345 -21.66586,-21.09083l0,-62.28023l17.03556,-2.8714l0,66.2431c0,5.11805 1.48566,8.18055 8.56111,8.72568c0.96568,0.06983 2.56276,0.0245 2.56276,0.0245l-0.00124,0.00123zm-74.71998,-31.44698c0.28723,-6.48638 3.01589,-13.15405 9.72611,-13.15405c7.5521,0 8.66634,8.10583 8.66634,13.15405l-18.39246,0zm13.39941,31.3698c-4.65754,0 -7.80095,-1.51165 -9.8623,-3.71175c-3.05798,-3.26708 -4.41365,-9.98498 -4.04471,-17.12673l36.63883,0l0,-1.666c-0.32684,-23.7307 -8.50416,-34.54133 -26.40387,-34.54133c-19.9784,0 -27.75954,18.18513 -27.90563,35.27143c-0.1238,10.8094 3.99642,21.6923 11.52995,27.89203c4.58821,3.77055 10.95054,5.8604 18.32437,5.8604c4.01747,0 8.21693,-0.59168 12.04622,-1.764c7.3503,-2.254 12.77419,-6.14705 12.77419,-6.14705l-4.79125,-9.75713c-0.86292,0.64435 -8.1996,5.69013 -18.30456,5.69013l-0.00124,0zm-37.55251,0.13843l0,10.41863s-3.14217,0.6174 -6.47747,0.6174c-13.87605,0 -22.15613,-6.6297 -22.15613,-20.64615l0,-62.58525l17.41935,-2.7685l0,18.49138l11.2093,0l0,12.35903l-11.2093,0l0,35.21508c0,4.6109 1.43861,8.5946 8.74434,8.84818c0.98796,0.0343 2.28544,0.0343 2.46991,0.05145l0,-0.00123zm-104.49259,-53.76525l16.9947,-2.744l0,66.9634l-16.9947,0l0,-64.2194zm8.6713,-29.50168c2.95646,0 5.69131,1.13925 7.70067,3.2046a10.47637,10.36595 0 0 1 2.94532,7.55458c0,5.95595 -4.74173,10.64035 -10.79703,10.64035c-6.04416,0 -10.79331,-4.69788 -10.79331,-10.71018c0,-5.8898 4.91134,-10.68935 10.94435,-10.68935zm62.60815,27.77443l-4.79496,10.6379s-2.73856,-0.8673 -6.95536,-0.69825c-4.56097,0.18008 -9.35841,2.08985 -11.61662,4.26913l0,51.78565l-17.34012,0l0.01238,-55.01108c10.32409,-10.8584 21.77976,-13.02175 29.24272,-13.02175c5.15276,0 9.58869,1.12945 11.45195,2.0384zm-216.82821,-53.59375l0,0.1862l-1.50423,0l0,0.1862l-1.69365,0l0,0.1862l-1.50423,0l0,0.1862l-1.31728,0l0,0.18498l-0.94092,0l0,0.1862l-0.93968,0l0,0.1862l-0.94092,0l0,0.1862l-0.93968,0l0,0.1862l-0.94092,0l0,0.1862l-0.93968,0l0,0.1862l-0.56331,0l0,0.1862l-0.75273,0l0,0.1862l-0.75273,0l0,0.1862l-0.7515,0l0,0.18498l-0.56455,0l0,0.1862l-0.7515,0l0,0.1862l-0.75273,0l0,0.1862l-0.75273,0l0,0.1862l-0.56331,0l0,0.1862l-0.56455,0l0,0.1862l-0.56455,0l0,0.1862l-0.56331,0l0,0.1862l-0.56455,0l0,0.1862l-0.56455,0l0,0.18498l-0.56455,0l0,0.1862l-0.56331,0l0,0.1862l-0.56455,0l0,0.1862l-0.56455,0l0,0.1862l-0.56331,0l0,0.1862l-0.56331,0l0,0.1862l-0.56455,0l0,0.1862l-0.56331,0l0,0.1862l-0.37637,0l0,0.1862l-0.56455,0l0,0.18498l-0.37637,0l0,0.1862l-0.56331,0l0,0.1862l-0.37637,0l0,0.1862l-0.56455,0l0,0.1862l-0.56455,0l0,0.1862l-0.37513,0l0,0.1862l-0.56455,0l0,0.1862l-0.37637,0l0,0.1862l-0.56455,0l0,0.1862l-0.37513,0l0,0.18498l-0.56455,0l0,0.1862l-0.37637,0l0,0.1862l-0.37637,0l0,0.1862l-0.37513,0l0,0.1862l-0.56455,0l0,0.1862l-0.37637,0l0,0.1862l-0.37637,0l0,0.1862l-0.37637,0l0,0.1862l-0.37513,0l0,0.1862l-0.56455,0l0,0.18498l-0.37637,0l0,0.1862l-0.37637,0l0,0.1862l-0.37513,0l0,0.1862l-0.37637,0l0,0.1862l-0.56455,0l0,0.1862l-0.37637,0l0,0.1862l-0.37637,0l0,0.1862l-0.37513,0l0,0.1862l-0.37637,0l0,0.1862l-0.37637,0l0,0.18498l-0.37637,0l0,0.1862l-0.37513,0l0,0.1862l-0.37637,0l0,0.1862l-0.37637,0l0,0.1862l-0.37637,0l0,0.1862l-0.37637,0l0,0.1862l-0.37513,0l0,0.1862l-0.37637,0l0,0.1862l-0.37637,0l0,0.1862l-0.37637,0l0,0.18498l-0.37637,0l0,0.1862l-0.18818,0l0,0.1862l-0.37513,0l0,0.1862l-0.37637,0l0,0.1862l-0.37637,0l0,0.1862l-0.37637,0l0,0.1862l-0.37637,0l0,0.1862l-0.37513,0l0,0.1862l-0.18818,0l0,0.18498l-0.37637,0l0,0.1862l-0.37637,0l0,0.1862l-0.37637,0l0,0.1862l-0.18818,0l0,0.1862l-0.37513,0l0,0.1862l-0.37637,0l0,0.1862l-0.37637,0l0,0.1862l-0.18818,0l0,0.1862l-0.37637,0l0,0.1862l-0.37513,0l0,0.18498l-0.37637,0l0,0.1862l-0.37637,0l0,0.1862l-0.18818,0l0,0.1862l-0.37637,0l0,0.1862l-0.37637,0l0,0.1862l-0.37513,0l0,0.1862l-0.18818,0l0,0.1862l-0.37637,0l0,0.1862l-0.18818,0l0,0.1862l-0.37637,0l0,0.18498l-0.18818,0l0,0.1862l-0.37513,0l0,0.1862l-0.37637,0l0,0.1862l-0.18818,0l0,0.1862l-0.37637,0l0,0.1862l-0.18818,0l0,0.1862l-0.37637,0l0,0.1862l-0.37513,0l0,0.1862l-0.18818,0l0,0.1862l-0.37637,0l0,0.18498l-0.18818,0l0,0.1862l-0.37637,0l0,0.1862l-0.18818,0l0,0.1862l-0.37513,0l0,0.1862l-0.37637,0l0,0.1862l-0.18818,0l0,0.1862l-0.37637,0l0,0.1862l-0.18818,0l0,0.1862l-0.37637,0l0,0.1862l-0.18818,0l0,0.18498l-0.37513,0l0,0.1862l-0.18818,0l0,0.1862l-0.18818,0l0,0.1862l-0.37637,0l0,0.1862l-0.18818,0l0,0.1862l-0.37637,0l0,0.1862l-0.18818,0l0,0.1862l-0.37513,0l0,0.1862l-0.18818,0l0,0.1862l-0.18818,0l0,0.18498l-0.37637,0l0,0.1862l-0.18818,0l0,0.1862l-0.37637,0l0,0.1862l-0.18818,0l0,0.1862l-0.37513,0l0,0.1862l-0.18818,0l0,0.1862l-0.18818,0l0,0.1862l-0.37637,0l0,0.1862l-0.18818,0l0,0.1862l-0.37637,0l0,0.18498l-0.18818,0l0,0.1862l-0.18695,0l0,0.1862l-0.37637,0l0,0.1862l-0.18818,0l0,0.1862l-0.18818,0l0,0.1862l-0.37637,0l0,0.1862l-0.18818,0l0,0.1862l-0.18818,0l0,0.1862l-0.18818,0l0,0.1862l-0.37513,0l0,0.18498l-0.18818,0l0,0.1862l-0.18818,0l0,0.1862l-0.37637,0l0,0.1862l-0.18818,0l0,0.1862l-0.18818,0l0,0.1862l-0.18818,0l0,0.1862l-0.37513,0l0,0.1862l-0.18818,0l0,0.1862l-0.18818,0l0,0.18498l-0.37637,0l0,0.1862l-0.18818,0l0,0.1862l-0.18818,0l0,0.1862l-0.37637,0l0,0.1862l-0.18695,0l0,0.1862l-0.18818,0l0,0.1862l-0.18818,0l0,0.1862l-0.18818,0l0,0.1862l-0.18818,0l0,0.1862l-0.37637,0l0,0.18498l-0.18818,0l0,0.1862l-0.18818,0l0,0.1862l-0.18818,0l0,0.1862l-0.18695,0l0,0.1862l-0.18818,0l0,0.1862l-0.37637,0l0,0.1862l-0.18818,0l0,0.1862l-0.18818,0l0,0.1862l-0.18818,0l0,0.1862l-0.18818,0l0,0.18498l-0.18818,0l0,0.1862l-0.37513,0l0,0.1862l-0.18818,0l0,0.1862l-0.18818,0l0,0.1862l-0.18818,0l0,0.1862l-0.18818,0l0,0.1862l-0.18818,0l0,0.1862l-0.37637,0l0,0.1862l-0.18818,0l0,0.1862l-0.18818,0l0,0.18498l-0.18695,0l0,0.1862l-0.18818,0l0,0.1862l-0.18818,0l0,0.1862l-0.18818,0l0,0.1862l-0.18818,0l0,0.1862l-0.18818,0l0,0.1862l-0.18818,0l0,0.1862l-0.18818,0l0,0.1862l-0.18818,0l0,0.1862l-0.18818,0l0,0.18498l-0.18695,0l0,0.1862l-0.18818,0l0,0.1862l-0.18818,0l0,0.1862l-0.18818,0l0,0.1862l-0.18818,0l0,0.1862l-0.18818,0l0,0.1862l-0.18818,0l0,0.1862l-0.18818,0l0,0.1862l-0.37637,0l0,0.1862l-0.18695,0l0,0.18498l-0.18818,0l0,0.1862l-0.18818,0l0,0.1862l-0.18818,0l0,0.1862l-0.18818,0l0,0.1862l-0.18818,0l0,0.1862l-0.18818,0l0,0.1862l-0.18818,0l0,0.1862l-0.18818,0l0,0.1862l-0.18818,0l0,0.37118l-0.18695,0l0,0.1862l-0.18818,0l0,0.1862l-0.18818,0l0,0.1862l-0.18818,0l0,0.1862l-0.18818,0l0,0.1862l-0.18818,0l0,0.1862l-0.18818,0l0,0.1862l-0.18818,0l0,0.1862l-0.18818,0l0,0.1862l-0.18818,0l0,0.37118l-0.18695,0l0,0.1862l-0.18818,0l0,0.1862l-0.18818,0l0,0.1862l-0.18818,0l0,0.1862l-0.18818,0l0,0.1862l-0.18818,0l0,0.1862l-0.18818,0l0,0.1862l-0.18818,0l0,0.18498l-0.18818,0l0,0.3724l-0.18695,0l0,0.1862l-0.18818,0l0,0.1862l-0.18818,0l0,0.1862l-0.18818,0l0,0.1862l-0.18818,0l0,0.1862l-0.18818,0l0,0.3724l-0.18818,0l0,0.18498l-0.18818,0l0,0.1862l-0.18818,0l0,0.3724l-0.18818,0l0,0.1862l-0.18695,0l0,0.1862l-0.18818,0l0,0.1862l-0.18818,0l0,0.3724l-0.18818,0l0,0.1862l-0.18818,0l0,0.18498l-0.18818,0l0,0.3724l-0.18818,0l0,0.1862l-0.18818,0l0,0.1862l-0.18818,0l0,0.1862l-0.18818,0l0,0.3724l-0.18695,0l0,0.1862l-0.18942,0l0,0.1862l-0.18818,0l0,0.37118l-0.18818,0l0,0.1862l-0.18818,0l0,0.1862l-0.18818,0l0,0.3724l-0.18818,0l0,0.1862l-0.18571,0l0,0.3724l-0.18818,0l0,0.1862l-0.18818,0l0,0.18498l-0.18695,0l0,0.3724l-0.18818,0l0,0.1862l-0.18942,0l0,0.3724l-0.18818,0l0,0.1862l-0.18818,0l0,0.3724l-0.18818,0l0,0.37118l-0.18818,0l0,0.1862l-0.18818,0l0,0.3724l-0.18818,0l0,0.1862l-0.18818,0l0,0.3724l-0.18695,0l0,0.3724l-0.18818,0l0,0.1862l-0.18942,0l0,0.37118l-0.18818,0l0,0.1862l-0.18818,0l0,0.3724l-0.18818,0l0,0.3724l-0.18818,0l0,0.3724l-0.18818,0l0,0.37118l-0.18571,0l0,0.1862l-0.18818,0l0,0.3724l-0.18695,0l0,0.3724l-0.18818,0l0,0.3724l-0.18818,0l0,0.37118l-0.18942,0l0,0.3724l-0.18818,0l0,0.3724l-0.18818,0l0,0.3724l-0.18818,0l0,0.3724l-0.18818,0l0,0.37118l-0.18818,0l0,0.5586l-0.18818,0l0,0.3724l-0.18695,0l0,0.3724l-0.18818,0l0,0.55738l-0.18818,0l0,0.3724l-0.18942,0l0,0.5586l-0.18818,0l0,0.5586l-0.18818,0l0,0.37118l-0.18818,0l0,0.7448l-0.18818,0l0,0.5586l-0.18695,0l0,0.55738l-0.18695,0l0,0.7448l-0.18818,0l0,0.931l-0.18818,0l0,0.74358l-0.18818,0l0,1.30218l-0.18818,0l0,2.23318l-0.18818,0l0,2.04698l0.18818,0l0,1.862l0.18818,0l0,0.92978l0.18818,0l0,0.74358l0.18818,0l0,0.7448l0.18695,0l0,0.55738l0.18818,0l0,0.5586l0.18818,0l0,0.5586l0.18818,0l0,0.3724l0.18818,0l0,0.37118l0.18818,0l0,0.3724l0.18818,0l0,0.3724l0.18818,0l0,0.3724l0.18818,0l0,0.3724l0.18818,0l0,0.37118l0.18695,0l0,0.1862l0.18818,0l0,0.3724l0.18818,0l0,0.1862l0.18818,0l0,0.3724l0.18818,0l0,0.1862l0.18818,0l0,0.3724l0.18818,0l0,0.18498l0.18818,0l0,0.1862l0.18818,0l0,0.1862l0.18818,0l0,0.1862l0.18695,0l0,0.1862l0.18818,0l0,0.1862l0.18818,0l0,0.1862l0.18818,0l0,0.1862l0.18818,0l0,0.1862l0.18818,0l0,0.1862l0.18818,0l0,0.18498l0.18818,0l0,0.1862l0.18818,0l0,0.1862l0.18818,0l0,0.1862l0.18695,0l0,0.1862l0.18818,0l0,0.1862l0.18818,0l0,0.1862l0.18818,0l0,0.1862l0.18818,0l0,0.1862l0.37637,0l0,0.18498l0.18818,0l0,0.1862l0.37637,0l0,0.1862l0.18695,0l0,0.1862l0.37637,0l0,0.1862l0.18818,0l0,0.1862l0.37637,0l0,0.1862l0.18818,0l0,0.1862l0.37637,0l0,0.1862l0.18818,0l0,0.1862l0.37513,0l0,0.18498l0.18818,0l0,0.1862l0.37637,0l0,0.1862l0.37637,0l0,0.1862l0.56455,0l0,0.1862l0.37513,0l0,0.1862l0.37637,0l0,0.1862l0.56455,0l0,0.1862l0.37637,0l0,0.1862l0.37513,0l0,0.1862l0.75273,0l0,0.18498l0.94092,0l0,0.1862l0.93968,0l0,0.1862l0.94092,0l0,0.1862l4.70087,0l0,-0.1862l1.31605,0l0,-0.1862l1.1291,0l0,-0.1862l0.7515,0l0,-0.18498l0.75273,0l0,-0.1862l0.56455,0l0,-0.1862l0.56331,0l0,-0.1862l0.75273,0l0,-0.1862l0.56455,0l0,-0.1862l0.37513,0l0,-0.1862l0.56455,0l0,-0.1862l0.37637,0l0,-0.1862l0.37637,0l0,-0.1862l0.56331,0l0,-0.18498l0.37637,0l0,-0.1862l0.37637,0l0,-0.1862l0.37637,0l0,-0.1862l0.37513,0l0,-0.1862l0.37637,0l0,-0.1862l0.37637,0l0,-0.1862l0.37637,0l0,-0.1862l0.37637,0l0,-0.1862l0.37513,0l0,-0.1862l0.37637,0l0,-0.18498l0.37637,0l0,-0.1862l0.37637,0l0,-0.1862l0.18818,0l0,-0.1862l0.37637,0l0,-0.1862l0.18695,0l0,-0.1862l0.37637,0l0,-0.1862l0.37637,0l0,-0.1862l0.18818,0l0,-0.1862l0.37637,0l0,-0.18498l0.37637,0l0,-0.1862l0.18695,0l0,-0.1862l0.37637,0l0,-0.1862l0.18818,0l0,-0.1862l0.37637,0l0,-0.1862l0.18818,0l0,-0.1862l0.37637,0l0,-0.1862l0.18818,0l0,-0.1862l0.37513,0l0,-0.1862l0.18818,0l0,-0.18498l0.37637,0l0,-0.1862l0.18818,0l0,-0.1862l0.37637,0l0,-0.1862l0.18818,0l0,-0.1862l0.37513,0l0,-0.1862l0.18818,0l0,-0.1862l0.18818,0l0,-0.1862l0.37637,0l0,-0.1862l0.18818,0l0,-0.1862l0.18818,0l0,-0.18498l0.37637,0l0,-0.1862l0.18818,0l0,-0.1862l0.37513,0l0,-0.1862l0.18818,0l0,-0.1862l0.18818,0l0,-0.1862l0.37637,0l0,-0.1862l0.18818,0l0,-0.1862l0.18818,0l0,-0.1862l0.37513,0l0,-0.1862l0.18818,0l0,-0.18498l0.18818,0l0,-0.1862l0.37637,0l0,-0.1862l0.18818,0l0,-0.1862l0.18818,0l0,-0.1862l0.37637,0l0,-0.1862l0.18818,0l0,-0.1862l0.18695,0l0,-0.1862l0.37637,0l0,-0.1862l0.18818,0l0,-0.1862l0.18818,0l0,-0.18498l0.18818,0l0,-0.1862l0.37637,0l0,-0.1862l0.18818,0l0,-0.1862l0.18818,0l0,-0.1862l0.37513,0l0,-0.1862l0.18818,0l0,-0.1862l0.18818,0l0,-0.1862l0.37637,0l0,-0.1862l0.18818,0l0,-0.1862l0.18818,0l0,-0.18498l0.18818,0l0,-0.1862l0.37513,0l0,-0.1862l0.18818,0l0,-0.1862l0.18818,0l0,-0.1862l0.37637,0l0,-0.1862l0.18818,0l0,-0.1862l0.18818,0l0,-0.1862l0.37637,0l0,-0.1862l0.18818,0l0,-0.1862l0.18695,0l0,-0.18498l0.37637,0l0,-0.1862l0.18818,0l0,-0.1862l0.18818,0l0,-0.1862l0.37637,0l0,-0.1862l0.18818,0l0,-0.1862l0.18818,0l0,-0.1862l0.37513,0l0,-0.1862l0.18818,0l0,-0.1862l0.37637,0l0,-0.1862l0.18818,0l0,-0.18498l0.18818,0l0,-0.1862l0.37637,0l0,-0.1862l0.18818,0l0,-0.1862l0.37513,0l0,-0.1862l0.18818,0l0,-0.1862l0.37637,0l0,-0.1862l0.18818,0l0,-0.1862l0.37637,0l0,-0.1862l0.18818,0l0,-0.18498l0.37637,0l0,-0.1862l0.18695,0l0,-0.1862l0.18818,0l0,-0.1862l0.37637,0l0,-0.1862l0.18818,0l0,-0.1862l0.37637,0l0,-0.1862l0.18818,0l0,-0.1862l0.37513,0l0,-0.1862l0.18818,0l0,-0.1862l0.37637,0l0,-0.18498l0.18818,0l0,-0.1862l0.37637,0l0,-0.1862l0.18818,0l0,-0.1862l0.37637,0l0,-0.1862l0.18695,0l0,-0.1862l0.37637,0l0,-0.1862l0.18818,0l0,-0.1862l0.37637,0l0,-0.1862l0.18818,0l0,-0.1862l0.37637,0l0,-0.18498l0.18818,0l0,-0.1862l0.18695,0l0,-0.1862l0.37637,0l0,-0.1862l0.18818,0l0,-0.1862l0.37637,0l0,-0.1862l0.18818,0l0,-0.1862l0.37637,0l0,-0.1862l0.18818,0l0,-0.1862l0.37513,0l0,-0.1862l0.18818,0l0,-0.18498l0.37637,0l0,-0.1862l0.18818,0l0,-0.1862l0.37637,0l0,-0.1862l0.18818,0l0,-0.1862l0.37513,0l0,-0.1862l0.18818,0l0,-0.1862l0.37637,0l0,-0.1862l0.18818,0l0,-0.1862l0.37637,0l0,-0.1862l0.18818,0l0,-0.18498l0.37637,0l0,-0.1862l0.18695,0l0,-0.1862l0.37637,0l0,-0.1862l0.18818,0l0,-0.1862l0.37637,0l0,-0.1862l0.18818,0l0,-0.1862l0.37637,0l0,-0.1862l0.18818,0l0,-0.1862l0.37513,0l0,-0.1862l0.18818,0l0,-0.18498l0.37637,0l0,-0.1862l0.18818,0l0,-0.1862l0.37637,0l0,-0.1862l0.18818,0l0,-0.1862l0.37513,0l0,-0.1862l0.18818,0l0,-0.1862l0.37637,0l0,-0.1862l0.18818,0l0,-0.1862l0.37637,0l0,-0.1862l0.37637,0l0,-0.18498l0.18695,0l0,-0.1862l0.37637,0l0,-0.1862l0.18818,0l0,-0.1862l0.37637,0l0,-0.1862l0.18818,0l0,-0.1862l0.37637,0l0,-0.1862l0.18818,0l0,-0.1862l0.37513,0l0,-0.1862l0.18818,0l0,-0.1862l0.37637,0l0,-0.18498l0.37637,0l0,-0.1862l0.18818,0l0,-0.1862l0.37637,0l0,-0.1862l0.18695,0l0,-0.1862l0.37637,0l0,-0.1862l0.37637,0l0,-0.1862l0.18818,0l0,-0.1862l0.37637,0l0,-0.1862l0.18818,0l0,-0.18498l0.37513,0l0,-0.1862l0.18818,0l0,-0.1862l0.37637,0l0,-0.1862l0.37637,0l0,-0.1862l0.18818,0l0,-0.1862l0.37637,0l0,-0.1862l0.37513,0l0,-0.1862l0.18818,0l0,-0.1862l0.37637,0l0,-0.1862l0.37637,0l0,-0.18498l0.18818,0l0,-0.1862l0.37637,0l0,-0.1862l0.37513,0l0,-0.1862l0.18818,0l0,-0.1862l0.37637,0l0,-0.1862l0.37637,0l0,-0.1862l0.18818,0l0,-0.1862l0.37637,0l0,-0.1862l0.37513,0l0,-0.1862l0.18818,0l0,-0.18498l0.37637,0l0,-0.1862l0.37637,0l0,-0.1862l0.37637,0l0,-0.1862l0.18818,0l0,-0.1862l0.37513,0l0,-0.1862l0.37637,0l0,-0.1862l0.37637,0l0,-0.1862l0.18818,0l0,-0.1862l0.37637,0l0,-0.1862l0.37513,0l0,-0.18498l0.37637,0l0,-0.1862l0.37637,0l0,-0.1862l0.18818,0l0,-0.1862l0.37637,0l0,-0.1862l0.37637,0l0,-0.1862l0.37513,0l0,-0.1862l0.37637,0l0,-0.1862l0.37637,0l0,-0.1862l0.37637,0l0,-0.1862l0.37637,0l0,-0.18498l0.37513,0l0,-0.1862l0.37637,0l0,-0.1862l0.37637,0l0,-0.1862l0.37637,0l0,-0.1862l0.37637,0l0,-0.1862l0.18695,0l0,-0.1862l0.56455,0l0,-0.1862l0.37637,0l0,-0.1862l0.37637,0l0,-0.1862l0.37637,0l0,-0.18498l0.37513,0l0,-0.1862l0.56455,0l0,-0.1862l0.37637,0l0,-0.1862l0.37637,0l0,-0.1862l0.37513,0l0,-0.1862l0.37637,0l0,-0.1862l0.56455,0l0,-0.1862l0.37637,0l0,-0.1862l0.56331,0l0,-0.1862l0.37637,0l0,-0.18498l0.56455,0l0,-0.1862l0.56455,0l0,-0.1862l0.37513,0l0,-0.1862l0.56455,0l0,-0.1862l0.37637,0l0,-0.1862l0.56455,0l0,-0.1862l0.7515,0l0,-0.1862l0.56455,0l0,-0.1862l0.7515,0l0,-0.1862l0.56455,0l0,-0.18498l0.75273,0l0,-0.1862l0.7515,0l0,-0.1862l0.94092,0l0,-0.1862l1.12786,0l0,-0.1862l0.94092,0l0,-0.1862l3.19664,0l0,-0.1862l0.37637,0l0,0.1862l1.69241,0l0,0.1862l1.50423,0l0,0.1862l0.56455,0l0,0.1862l0.56331,0l0,0.1862l0.56455,0l0,0.1862l0.37637,0l0,0.18498l0.56455,0l0,0.1862l0.37513,0l0,0.1862l0.37637,0l0,0.1862l0.18818,0l0,0.1862l0.37637,0l0,0.1862l0.37637,0l0,0.1862l0.18818,0l0,0.1862l0.37513,0l0,0.1862l0.18818,0l0,0.1862l0.37637,0l0,0.18498l0.18818,0l0,0.1862l0.18818,0l0,0.1862l0.18818,0l0,0.1862l0.18818,0l0,0.1862l0.18818,0l0,0.1862l0.18818,0l0,0.1862l0.18695,0l0,0.1862l0.18818,0l0,0.1862l0.18818,0l0,0.1862l0.18818,0l0,0.18498l0.18818,0l0,0.3724l0.18818,0l0,0.1862l0.18818,0l0,0.1862l0.18818,0l0,0.3724l0.18818,0l0,0.1862l0.18818,0l0,0.3724l0.18695,0l0,0.18498l0.18818,0l0,0.3724l0.18818,0l0,0.3724l0.18818,0l0,0.1862l0.18818,0l0,0.3724l0.18818,0l0,0.3724l0.18818,0l0,0.37118l0.18818,0l0,0.3724l0.18818,0l0,0.5586l0.18818,0l0,0.3724l0.18695,0l0,0.55738l0.18818,0l0,0.3724l0.18818,0l0,0.5586l0.18818,0l0,0.5586l0.18818,0l0,0.74358l0.18818,0l0,0.5586l0.18818,0l0,0.74358l0.18818,0l0,1.1172l0.18818,0l0,0.931l0.18818,0l0,2.04575l0.18695,0l0,4.65255l-0.18695,0l0,1.48838l-0.18818,0l0,1.67458l-0.18818,0l0,0.931l-0.18818,0l0,0.92978l-0.18818,0l0,0.7448l-0.18818,0l0,0.92978l-0.18818,0l0,0.7448l-0.18818,0l0,0.74358l-0.18818,0l0,0.5586l-0.18818,0l0,0.5586l-0.18695,0l0,0.55738l-0.18818,0l0,0.7448l-0.18818,0l0,0.5586l-0.18818,0l0,0.55738l-0.18818,0l0,0.5586l-0.18818,0l0,0.3724l-0.18818,0l0,0.55738l-0.18818,0l0,0.3724l-0.18818,0l0,0.5586l-0.18818,0l0,0.3724l-0.18695,0l0,0.55738l-0.18818,0l0,0.3724l-0.18818,0l0,0.5586l-0.18818,0l0,0.3724l-0.18818,0l0,0.3724l-0.18818,0l0,0.37118l-0.18818,0l0,0.3724l-0.18818,0l0,0.5586l-0.18818,0l0,0.3724l-0.18818,0l0,0.37118l-0.18695,0l0,0.3724l-0.18818,0l0,0.3724l-0.18818,0l0,0.1862l-0.18818,0l0,0.3724l-0.18818,0l0,0.3724l-0.18818,0l0,0.37118l-0.18818,0l0,0.3724l-0.18818,0l0,0.1862l-0.18818,0l0,0.3724l-0.18818,0l0,0.3724l-0.18695,0l0,0.18498l-0.18818,0l0,0.3724l-0.18818,0l0,0.3724l-0.18818,0l0,0.1862l-0.18818,0l0,0.3724l-0.18818,0l0,0.3724l-0.18818,0l0,0.18498l-0.18818,0l0,0.3724l-0.18818,0l0,0.1862l-0.18818,0l0,0.3724l-0.18695,0l0,0.1862l-0.18818,0l0,0.3724l-0.18818,0l0,0.1862l-0.18818,0l0,0.37118l-0.18818,0l0,0.1862l-0.18818,0l0,0.3724l-0.18818,0l0,0.1862l-0.18818,0l0,0.3724l-0.18818,0l0,0.1862l-0.18818,0l0,0.1862l-0.18695,0l0,0.37118l-0.18818,0l0,0.1862l-0.18818,0l0,0.1862l-0.18818,0l0,0.3724l-0.18818,0l0,0.1862l-0.18818,0l0,0.1862l-0.18818,0l0,0.3724l-0.18818,0l0,0.18498l-0.18818,0l0,0.3724l-0.18695,0l0,0.1862l-0.18818,0l0,0.1862l-0.18818,0l0,0.1862l-0.18818,0l0,0.3724l-0.18818,0l0,0.1862l-0.18818,0l0,0.1862l-0.18818,0l0,0.18498l-0.18818,0l0,0.3724l-0.18818,0l0,0.1862l-0.18818,0l0,0.1862l-0.18695,0l0,0.1862l-0.18818,0l0,0.3724l-0.18818,0l0,0.1862l-0.18818,0l0,0.1862l-0.18818,0l0,0.18498l-0.18818,0l0,0.1862l-0.18818,0l0,0.3724l-0.18818,0l0,0.1862l-0.18818,0l0,0.1862l-0.18818,0l0,0.1862l-0.18695,0l0,0.1862l-0.18818,0l0,0.3724l-0.18818,0l0,0.18498l-0.18818,0l0,0.1862l-0.18818,0l0,0.1862l-0.18818,0l0,0.1862l-0.18818,0l0,0.1862l-0.18818,0l0,0.1862l-0.18818,0l0,0.1862l-0.18818,0l0,0.3724l-0.18695,0l0,0.18498l-0.18818,0l0,0.1862l-0.18818,0l0,0.1862l-0.18818,0l0,0.1862l-0.18818,0l0,0.1862l-0.18818,0l0,0.1862l-0.18818,0l0,0.1862l-0.18818,0l0,0.1862l-0.18818,0l0,0.3724l-0.18818,0l0,0.18498l-0.18695,0l0,0.1862l-0.18818,0l0,0.1862l-0.18818,0l0,0.1862l-0.18818,0l0,0.1862l-0.18818,0l0,0.1862l-0.18818,0l0,0.1862l-0.18818,0l0,0.1862l-0.18818,0l0,0.1862l-0.18818,0l0,0.1862l-0.18818,0l0,0.18498l-0.18695,0l0,0.1862l-0.18818,0l0,0.1862l-0.18818,0l0,0.1862l-0.18818,0l0,0.1862l-0.18818,0l0,0.1862l-0.18818,0l0,0.1862l-0.18818,0l0,0.1862l-0.18818,0l0,0.1862l-0.18818,0l0,0.1862l-0.18818,0l0,0.18498l-0.18695,0l0,0.1862l-0.18818,0l0,0.1862l-0.18818,0l0,0.1862l-0.18818,0l0,0.1862l-0.18818,0l0,0.1862l-0.18818,0l0,0.1862l-0.18818,0l0,0.1862l-0.18818,0l0,0.1862l-0.18818,0l0,0.1862l-0.18818,0l0,0.18498l-0.18695,0l0,0.1862l-0.18818,0l0,0.1862l-0.18818,0l0,0.1862l-0.18818,0l0,0.1862l-0.18818,0l0,0.1862l-0.18818,0l0,0.1862l-0.18818,0l0,0.1862l-0.18818,0l0,0.1862l-0.18818,0l0,0.1862l-0.18695,0l0,0.18498l-0.18818,0l0,0.1862l-0.37637,0l0,0.1862l-0.18818,0l0,0.1862l-0.18818,0l0,0.1862l-0.18818,0l0,0.1862l-0.18818,0l0,0.1862l-0.18818,0l0,0.1862l-0.18818,0l0,0.1862l-0.18695,0l0,0.1862l-0.18818,0l0,0.18498l-0.18818,0l0,0.1862l-0.37637,0l0,0.1862l-0.18818,0l0,0.1862l-0.18818,0l0,0.1862l-0.18818,0l0,0.1862l-0.18818,0l0,0.1862l-0.18818,0l0,0.1862l-0.18695,0l0,0.1862l-0.18818,0l0,0.1862l-0.37637,0l0,0.18498l-0.18818,0l0,0.1862l-0.18818,0l0,0.1862l-0.18818,0l0,0.1862l-0.18818,0l0,0.1862l-0.18818,0l0,0.1862l-0.18818,0l0,0.1862l-0.37513,0l0,0.1862l-0.18818,0l0,0.1862l-0.18818,0l0,0.18498l-0.18818,0l0,0.1862l-0.18818,0l0,0.1862l-0.37637,0l0,0.1862l-0.18818,0l0,0.1862l-0.18818,0l0,0.1862l-0.18695,0l0,0.1862l-0.18818,0l0,0.1862l-0.37637,0l0,0.1862l-0.18818,0l0,0.1862l-0.18818,0l0,0.18498l-0.18818,0l0,0.1862l-0.18818,0l0,0.1862l-0.37637,0l0,0.1862l-0.18695,0l0,0.1862l-0.18818,0l0,0.1862l-0.18818,0l0,0.1862l-0.37637,0l0,0.1862l-0.18818,0l0,0.1862l-0.18818,0l0,0.1862l-0.18818,0l0,0.18498l-0.37637,0l0,0.1862l-0.18695,0l0,0.1862l-0.18818,0l0,0.1862l-0.18818,0l0,0.1862l-0.37637,0l0,0.1862l-0.18818,0l0,0.1862l-0.18818,0l0,0.1862l-0.18818,0l0,0.1862l-0.37637,0l0,0.1862l-0.18695,0l0,0.18498l-0.18818,0l0,0.1862l-0.37637,0l0,0.1862l-0.18818,0l0,0.1862l-0.18818,0l0,0.1862l-0.37637,0l0,0.1862l-0.18818,0l0,0.1862l-0.18695,0l0,0.1862l-0.37637,0l0,0.1862l-0.18818,0l0,0.1862l-0.18818,0l0,0.18498l-0.37637,0l0,0.1862l-0.18818,0l0,0.1862l-0.18818,0l0,0.1862l-0.37513,0l0,0.1862l-0.18818,0l0,0.1862l-0.18818,0l0,0.1862l-0.37637,0l0,0.1862l-0.18818,0l0,0.1862l-0.37637,0l0,0.1862l-0.18818,0l0,0.18498l-0.18818,0l0,0.1862l-0.37513,0l0,0.1862l-0.18818,0l0,0.1862l-0.37637,0l0,0.1862l-0.18818,0l0,0.1862l-0.37637,0l0,0.1862l-0.18818,0l0,0.1862l-0.18818,0l0,0.1862l-0.37513,0l0,0.1862l-0.18818,0l0,0.18498l-0.37637,0l0,0.1862l-0.18818,0l0,0.1862l-0.37637,0l0,0.1862l-0.18818,0l0,0.1862l-0.37513,0l0,0.1862l-0.18818,0l0,0.1862l-0.37637,0l0,0.1862l-0.18818,0l0,0.1862l-0.37637,0l0,0.1862l-0.18818,0l0,0.18498l-0.37637,0l0,0.1862l-0.18695,0l0,0.1862l-0.37637,0l0,0.1862l-0.37637,0l0,0.1862l-0.18818,0l0,0.1862l-0.37637,0l0,0.1862l-0.18818,0l0,0.1862l-0.37513,0l0,0.1862l-0.37637,0l0,0.18498l-0.18818,0l0,0.1862l-0.37637,0l0,0.1862l-0.18818,0l0,0.1862l-0.37637,0l0,0.1862l-0.37513,0l0,0.1862l-0.37637,0l0,0.1862l-0.18818,0l0,0.1862l-0.37637,0l0,0.1862l-0.37637,0l0,0.1862l-0.18818,0l0,0.18498l-0.37513,0l0,0.1862l-0.37637,0l0,0.1862l-0.37637,0l0,0.1862l-0.18818,0l0,0.1862l-0.37637,0l0,0.1862l-0.37513,0l0,0.1862l-0.37637,0l0,0.1862l-0.37637,0l0,0.1862l-0.37637,0l0,0.1862l-0.18818,0l0,0.18498l-0.37637,0l0,0.1862l-0.37513,0l0,0.1862l-0.37637,0l0,0.1862l-0.37637,0l0,0.1862l-0.37637,0l0,0.1862l-0.37637,0l0,0.1862l-0.37513,0l0,0.1862l-0.37637,0l0,0.1862l-0.56455,0l0,0.1862l-0.37637,0l0,0.18498l-0.37513,0l0,0.1862l-0.37637,0l0,0.1862l-0.37637,0l0,0.1862l-0.56455,0l0,0.1862l-0.37637,0l0,0.1862l-0.56331,0l0,0.1862l-0.37637,0l0,0.1862l-0.56455,0l0,0.1862l-0.56331,0l0,0.1862l-0.37637,0l0,0.18498l-0.75273,0l0,0.1862l-0.56455,0l0,0.1862l-0.56331,0l0,0.1862l-0.75273,0l0,0.1862l-0.94092,0l0,0.1862l-1.31605,0l0,0.1862l-1.8806,0l0,-0.1862l-0.7515,0l0,-0.1862l-0.56455,0l0,-0.1862l-0.37637,0l0,-0.1862l-0.37513,0l0,-0.1862l-0.18818,0l0,-0.1862l-0.18818,0l0,-0.18498l-0.18818,0l0,-0.1862l-0.18818,0l0,-0.3724l-0.18818,0l0,-0.3724l-0.18818,0l0,-0.3724l-0.18818,0l0,-0.55738l-0.18818,0l0,-1.862l0.18818,0l0,-0.92978l0.18818,0l0,-0.5586l0.18818,0l0,-0.55738l0.18818,0l0,-0.3724l0.18818,0l0,-0.3724l0.18818,0l0,-0.3724l0.18818,0l0,-0.3724l0.18818,0l0,-0.37118l0.18695,0l0,-0.3724l0.18818,0l0,-0.1862l0.18818,0l0,-0.3724l0.18818,0l0,-0.3724l0.18818,0l0,-0.18498l0.18818,0l0,-0.3724l0.18818,0l0,-0.1862l0.18818,0l0,-0.3724l0.18818,0l0,-0.1862l0.18818,0l0,-0.3724l0.18695,0l0,-0.1862l0.18818,0l0,-0.18498l0.18818,0l0,-0.3724l0.18818,0l0,-0.1862l0.18818,0l0,-0.1862l0.18818,0l0,-0.3724l0.18818,0l0,-0.1862l0.18818,0l0,-0.1862l0.18818,0l0,-0.37118l0.18818,0l0,-0.1862l0.18695,0l0,-0.1862l0.18818,0l0,-0.1862l0.18818,0l0,-0.1862l0.18818,0l0,-0.3724l0.18818,0l0,-0.1862l0.18818,0l0,-0.1862l0.18818,0l0,-0.1862l0.18818,0l0,-0.18498l0.18818,0l0,-0.1862l0.18818,0l0,-0.3724l0.18695,0l0,-0.1862l0.18818,0l0,-0.1862l0.18818,0l0,-0.1862l0.18818,0l0,-0.1862l0.18818,0l0,-0.1862l0.18818,0l0,-0.1862l0.18818,0l0,-0.18498l0.18818,0l0,-0.1862l0.18818,0l0,-0.1862l0.18695,0l0,-0.3724l0.18818,0l0,-0.1862l0.18818,0l0,-0.1862l0.18818,0l0,-0.1862l0.18818,0l0,-0.1862l0.18818,0l0,-0.1862l0.18818,0l0,-0.18498l0.18818,0l0,-0.1862l0.18818,0l0,-0.1862l0.18818,0l0,-0.1862l0.18695,0l0,-0.1862l0.18818,0l0,-0.1862l0.18818,0l0,-0.1862l0.18818,0l0,-0.1862l0.18818,0l0,-0.1862l0.18818,0l0,-0.1862l0.18818,0l0,-0.18498l0.18818,0l0,-0.1862l0.18818,0l0,-0.1862l0.18818,0l0,-0.1862l0.18695,0l0,-0.1862l0.18818,0l0,-0.1862l0.18818,0l0,-0.1862l0.18818,0l0,-0.1862l0.18818,0l0,-0.1862l0.18818,0l0,-0.1862l0.18818,0l0,-0.18498l0.18818,0l0,-0.1862l0.18818,0l0,-0.1862l0.18818,0l0,-0.1862l0.18695,0l0,-0.1862l0.18818,0l0,-0.1862l0.18818,0l0,-0.1862l0.18818,0l0,-0.1862l0.18818,0l0,-0.1862l0.18818,0l0,-0.18498l0.18818,0l0,-0.1862l0.18818,0l0,-0.1862l0.18818,0l0,-0.1862l0.18818,0l0,-0.1862l0.18695,0l0,-0.1862l0.18818,0l0,-0.1862l0.18818,0l0,-0.1862l0.18818,0l0,-0.1862l0.18818,0l0,-0.1862l0.18818,0l0,-0.18498l0.18818,0l0,-0.1862l0.18818,0l0,-0.1862l0.18818,0l0,-0.1862l0.18818,0l0,-0.1862l0.18695,0l0,-0.1862l0.18818,0l0,-0.1862l0.18818,0l0,-0.1862l0.18818,0l0,-0.1862l0.37637,0l0,-0.1862l0.18818,0l0,-0.37118l0.18818,0l0,-0.1862l0.18818,0l0,-0.1862l0.18818,0l0,-0.1862l0.18695,0l0,-0.1862l0.18818,0l0,-0.1862l0.18818,0l0,-0.1862l0.18818,0l0,-0.1862l0.18818,0l0,-0.1862l0.18818,0l0,-0.18498l0.18818,0l0,-0.1862l0.18818,0l0,-0.3724l0.18818,0l0,-0.1862l0.18818,0l0,-0.1862l0.18695,0l0,-0.1862l0.18818,0l0,-0.1862l0.18818,0l0,-0.1862l0.18818,0l0,-0.37118l0.18818,0l0,-0.1862l0.18818,0l0,-0.1862l0.18818,0l0,-0.3724l0.18818,0l0,-0.1862l0.18818,0l0,-0.1862l0.18695,0l0,-0.1862l0.18818,0l0,-0.3724l0.18818,0l0,-0.18498l0.18818,0l0,-0.3724l0.18818,0l0,-0.1862l0.18818,0l0,-0.3724l0.18818,0l0,-0.3724l0.18818,0l0,-0.1862l0.18818,0l0,-0.37118l0.18818,0l0,-0.3724l0.18695,0l0,-0.1862l0.18818,0l0,-0.5586l0.18818,0l0,-0.5586l0.18818,0l0,-0.55738l0.18818,0l0,-0.3724l0.18818,0l0,-2.79055l-0.18818,0l0,-0.7448l-0.18818,0l0,-0.5586l-0.18818,0l0,-0.1862l-0.18818,0l0,-0.37118l-0.18818,0l0,-0.1862l-0.18695,0l0,-0.3724l-0.18818,0l0,-0.1862l-0.18818,0l0,-0.1862l-0.18818,0l0,-0.1862l-0.18818,0l0,-0.1862l-0.18818,0l0,-0.1862l-0.18818,0l0,-0.1862l-0.18818,0l0,-0.18498l-0.18818,0l0,-0.1862l-0.37513,0l0,-0.1862l-0.18818,0l0,-0.1862l-0.37637,0l0,-0.1862l-0.18818,0l0,-0.1862l-0.37637,0l0,-0.1862l-0.37637,0l0,-0.1862l-0.37513,0l0,-0.1862l-0.37637,0l0,-0.1862l-0.56455,0l0,-0.18498l-0.56455,0l0,-0.1862l-0.37513,0l0,-0.1862l-0.56455,0l0,-0.1862l-0.94092,0l0,-0.1862l-0.7515,0l0,-0.1862l-1.1291,0l0,-0.1862l-1.69241,0l0,-0.1862l-0.18818,0l0,0.1862l-3.38483,0l0,0.1862l-1.12786,0l0,0.1862l-0.94092,0l0,0.1862l-0.56331,0l0,0.1862l-0.56455,0l0,0.1862l-0.75273,0l0,0.1862l-0.56331,0l0,0.18498l-0.37637,0l0,0.1862l-0.37637,0l0,0.1862l-0.37637,0l0,0.1862l-0.56331,0l0,0.1862l-0.37637,0l0,0.1862l-0.37637,0l0,0.1862l-0.37637,0l0,0.1862l-0.37637,0l0,0.1862l-0.18695,0l0,0.1862l-0.37637,0l0,0.18498l-0.18818,0l0,0.1862l-0.37637,0l0,0.1862l-0.18818,0l0,0.1862l-0.37637,0l0,0.1862l-0.18818,0l0,0.1862l-0.18695,0l0,0.1862l-0.37637,0l0,0.1862l-0.18818,0l0,0.1862l-0.37637,0l0,0.1862l-0.18818,0l0,0.18498l-0.18818,0l0,0.1862l-0.18818,0l0,0.1862l-0.18818,0l0,0.1862l-0.18695,0l0,0.1862l-0.37637,0l0,0.1862l-0.18818,0l0,0.1862l-0.18818,0l0,0.1862l-0.18818,0l0,0.1862l-0.18818,0l0,0.1862l-0.18818,0l0,0.18498l-0.18818,0l0,0.1862l-0.18818,0l0,0.1862l-0.18695,0l0,0.1862l-0.18818,0l0,0.1862l-0.18818,0l0,0.1862l-0.18818,0l0,0.1862l-0.18818,0l0,0.1862l-0.18818,0l0,0.1862l-0.18818,0l0,0.1862l-0.18818,0l0,0.37118l-0.18818,0l0,0.1862l-0.18818,0l0,0.1862l-0.18695,0l0,0.1862l-0.18818,0l0,0.1862l-0.18818,0l0,0.3724l-0.18818,0l0,0.1862l-0.18818,0l0,0.18498l-0.18818,0l0,0.1862l-0.18818,0l0,0.1862l-0.18818,0l0,0.1862l-0.18818,0l0,0.3724l-0.18818,0l0,0.1862l-0.18695,0l0,0.3724l-0.18818,0l0,0.1862l-0.18818,0l0,0.37118l-0.18818,0l0,0.1862l-0.18818,0l0,0.3724l-0.18818,0l0,0.1862l-0.18818,0l0,0.3724l-0.18818,0l0,0.1862l-0.18818,0l0,0.37118l-0.18695,0l0,0.1862l-0.18818,0l0,0.3724l-0.18818,0l0,0.1862l-0.18818,0l0,0.3724l-0.18818,0l0,0.1862l-0.18818,0l0,0.3724l-0.18818,0l0,0.37118l-0.18818,0l0,0.3724l-0.18818,0l0,0.3724l-0.18818,0l0,0.3724l-0.18695,0l0,0.3724l-0.18818,0l0,0.37118l-0.18818,0l0,0.1862l-0.18818,0l0,0.3724l-0.18818,0l0,0.3724l-0.18818,0l0,0.3724l-0.18818,0l0,0.37118l-0.18818,0l0,0.3724l-0.18818,0l0,0.3724l-0.18818,0l0,0.3724l-0.18695,0l0,0.3724l-0.18818,0l0,0.37118l-0.18818,0l0,0.5586l-0.18818,0l0,0.3724l-0.18818,0l0,0.3724l-0.18818,0l0,0.55738l-0.18818,0l0,0.3724l-0.18818,0l0,0.3724l-0.18818,0l0,0.5586l-0.18818,0l0,0.37118l-0.18695,0l0,0.3724l-0.18818,0l0,0.5586l-0.18818,0l0,0.3724l-0.18818,0l0,0.55738l-0.18818,0l0,0.5586l-0.18818,0l0,0.5586l-0.18818,0l0,0.5586l-0.18818,0l0,0.74358l-0.18818,0l0,0.5586l-0.18818,0l0,0.5586l-0.18695,0l0,0.74358l-0.18818,0l0,1.30218l-0.18818,0l0,1.3034l-0.18818,0l0,1.48838l-0.18818,0l0,0.1862l0.18818,0l0,3.72155l0.18818,0l0,0.74358l0.18818,0l0,0.7448l0.18818,0l0,0.931l0.18695,0l0,0.74358l0.18818,0l0,0.3724l0.18818,0l0,0.3724l0.18818,0l0,0.55738l0.18818,0l0,0.3724l0.18818,0l0,0.3724l0.18818,0l0,0.3724l0.18818,0l0,0.3724l0.18818,0l0,0.37118l0.18818,0l0,0.1862l0.18695,0l0,0.3724l0.18818,0l0,0.1862l0.18818,0l0,0.3724l0.18818,0l0,0.1862l0.18818,0l0,0.1862l0.18818,0l0,0.37118l0.18818,0l0,0.1862l0.18818,0l0,0.1862l0.18818,0l0,0.3724l0.37513,0l0,0.1862l0.18818,0l0,0.1862l0.18818,0l0,0.1862l0.18818,0l0,0.1862l0.18818,0l0,0.18498l0.18818,0l0,0.1862l0.18818,0l0,0.1862l0.18818,0l0,0.1862l0.18818,0l0,0.1862l0.18818,0l0,0.1862l0.18695,0l0,0.1862l0.37637,0l0,0.1862l0.18818,0l0,0.1862l0.37637,0l0,0.1862l0.18818,0l0,0.18498l0.37637,0l0,0.1862l0.18818,0l0,0.1862l0.37513,0l0,0.1862l0.18818,0l0,0.1862l0.37637,0l0,0.1862l0.37637,0l0,0.1862l0.37637,0l0,0.1862l0.37513,0l0,0.1862l0.56455,0l0,0.1862l0.56455,0l0,0.18498l0.56331,0l0,0.1862l0.94092,0l0,0.1862l1.12786,0l0,0.1862l1.88183,0l0,0.1862l3.00846,0l0,-0.1862l2.25696,0l0,-0.1862l1.31605,0l0,-0.1862l1.12786,0l0,-0.1862l0.94092,0l0,-0.18498l0.94092,0l0,-0.1862l0.7515,0l0,-0.1862l0.7515,0l0,-0.1862l0.75273,0l0,-0.1862l0.56455,0l0,-0.1862l0.56331,0l0,-0.1862l0.75273,0l0,-0.1862l0.56455,0l0,-0.1862l0.56331,0l0,-0.1862l0.56455,0l0,-0.18498l0.56455,0l0,-0.1862l0.37637,0l0,-0.1862l0.56331,0l0,-0.1862l0.56455,0l0,-0.1862l0.37637,0l0,-0.1862l0.56331,0l0,-0.1862l0.37637,0l0,-0.1862l0.56455,0l0,-0.1862l0.37637,0l0,-0.1862l0.56331,0l0,-0.18498l0.37637,0l0,-0.1862l0.37637,0l0,-0.1862l0.37637,0l0,-0.1862l0.56455,0l0,-0.1862l0.37513,0l0,-0.1862l0.37637,0l0,-0.1862l0.37637,0l0,-0.1862l0.37637,0l0,-0.1862l0.37513,0l0,-0.1862l0.37637,0l0,-0.18498l0.56455,0l0,-0.1862l0.37637,0l0,-0.1862l0.37637,0l0,-0.1862l0.37513,0l0,-0.1862l0.37637,0l0,-0.1862l0.18818,0l0,-0.1862l0.37637,0l0,-0.1862l0.37637,0l0,-0.1862l0.37513,0l0,-0.1862l0.37637,0l0,-0.18498l0.37637,0l0,-0.1862l0.37637,0l0,-0.1862l0.37637,0l0,-0.1862l0.18818,0l0,-0.1862l0.37513,0l0,-0.1862l0.37637,0l0,-0.1862l0.37637,0l0,-0.1862l0.37637,0l0,-0.1862l0.18818,0l0,-0.1862l0.37513,0l0,-0.18498l0.37637,0l0,-0.1862l0.37637,0l0,-0.1862l0.18818,0l0,-0.1862l0.37637,0l0,-0.1862l0.37637,0l0,-0.1862l0.18695,0l0,-0.1862l0.37637,0l0,-0.1862l0.37637,0l0,-0.1862l0.18818,0l0,-0.1862l0.37637,0l0,-0.18498l0.37637,0l0,-0.1862l0.18695,0l0,-0.1862l0.37637,0l0,-0.1862l0.18818,0l0,-0.1862l0.37637,0l0,-0.1862l0.37637,0l0,-0.1862l0.18818,0l0,-0.1862l0.37513,0l0,-0.1862l0.18818,0l0,-0.1862l0.37637,0l0,-0.18498l0.37637,0l0,-0.1862l0.18818,0l0,-0.1862l0.37637,0l0,-0.1862l0.18695,0l0,-0.1862l0.37637,0l0,-0.1862l0.18818,0l0,-0.1862l0.37637,0l0,-0.1862l0.18818,0l0,-0.1862l0.37637,0l0,-0.18498l0.18818,0l0,-0.1862l0.37513,0l0,-0.1862l0.18818,0l0,-0.1862l0.37637,0l0,-0.1862l0.18818,0l0,-0.1862l0.37637,0l0,-0.1862l0.18818,0l0,-0.1862l0.18818,0l0,-0.1862l0.37513,0l0,-0.1862l0.18818,0l0,-0.18498l0.37637,0l0,-0.1862l0.18818,0l0,-0.1862l0.37637,0l0,-0.1862l0.18818,0l0,-0.1862l0.37513,0l0,-0.1862l0.18818,0l0,-0.1862l0.18818,0l0,-0.1862l0.37637,0l0,-0.1862l0.18818,0l0,-0.1862l0.18818,0l0,-0.18498l0.37637,0l0,-0.1862l0.18818,0l0,-0.1862l0.37513,0l0,-0.1862l0.18818,0l0,-0.1862l0.18818,0l0,-0.1862l0.37637,0l0,-0.1862l0.18818,0l0,-0.1862l0.18818,0l0,-0.1862l0.37637,0l0,-0.1862l0.18695,0l0,-0.18498l0.37637,0l0,-0.1862l0.18818,0l0,-0.1862l0.18818,0l0,-0.1862l0.37637,0l0,-0.1862l0.18818,0l0,-0.1862l0.18818,0l0,-0.1862l0.37513,0l0,-0.1862l0.18818,0l0,-0.1862l0.18818,0l0,-0.1862l0.18818,0l0,-0.18498l0.37637,0l0,-0.1862l0.18818,0l0,-0.1862l0.18818,0l0,-0.1862l0.37637,0l0,-0.1862l0.18695,0l0,-0.1862l0.18818,0l0,-0.1862l0.37637,0l0,-0.1862l0.18818,0l0,-0.1862l0.18818,0l0,-0.1862l0.18818,0l0,-0.18498l0.37637,0l0,-0.1862l0.18695,0l0,-0.1862l0.18818,0l0,-0.1862l0.37637,0l0,-0.1862l0.18818,0l0,-0.1862l0.18818,0l0,-0.1862l0.18818,0l0,-0.1862l0.37637,0l0,-0.1862l0.18818,0l0,-0.1862l0.18695,0l0,-0.18498l0.18818,0l0,-0.1862l0.37637,0l0,-0.1862l0.18818,0l0,-0.1862l0.18818,0l0,-0.1862l0.18818,0l0,-0.1862l0.37637,0l0,-0.1862l0.18818,0l0,-0.1862l0.18695,0l0,-0.1862l0.18818,0l0,-0.1862l0.18818,0l0,-0.18498l0.37637,0l0,-0.1862l0.18818,0l0,-0.1862l0.18818,0l0,-0.1862l0.18818,0l0,-0.1862l0.37637,0l0,-0.1862l0.18695,0l0,-0.1862l0.18818,0l0,-0.1862l0.18818,0l0,-0.1862l0.18818,0l0,-0.18498l0.37637,0l0,-0.1862l0.18818,0l0,-0.1862l0.18818,0l0,-0.1862l0.18818,0l0,-0.1862l0.18818,0l0,-0.1862l0.37513,0l0,-0.1862l0.18818,0l0,-0.1862l0.18818,0l0,-0.1862l0.18818,0l0,-0.1862l0.18818,0l0,-0.18498l0.18818,0l0,-0.1862l0.37637,0l0,-0.1862l0.18818,0l0,-0.1862l0.18695,0l0,-0.1862l0.18818,0l0,-0.1862l0.18818,0l0,-0.1862l0.18818,0l0,-0.1862l0.37637,0l0,-0.1862l0.18818,0l0,-0.1862l0.18818,0l0,-0.18498l0.18818,0l0,-0.1862l0.18818,0l0,-0.1862l0.18695,0l0,-0.1862l0.18818,0l0,-0.1862l0.37637,0l0,-0.1862l0.18818,0l0,-0.1862l0.18818,0l0,-0.1862l0.18818,0l0,-0.1862l0.18818,0l0,-0.1862l0.18818,0l0,-0.18498l0.18818,0l0,-0.1862l0.18695,0l0,-0.1862l0.18818,0l0,-0.1862l0.37637,0l0,-0.1862l0.18818,0l0,-0.1862l0.18818,0l0,-0.1862l0.18818,0l0,-0.1862l0.18818,0l0,-0.1862l0.18818,0l0,-0.1862l0.18695,0l0,-0.18498l0.18818,0l0,-0.1862l0.18818,0l0,-0.1862l0.18818,0l0,-0.1862l0.18818,0l0,-0.1862l0.18818,0l0,-0.1862l0.18818,0l0,-0.1862l0.18818,0l0,-0.1862l0.18818,0l0,-0.1862l0.18818,0l0,-0.1862l0.18695,0l0,-0.18498l0.18818,0l0,-0.1862l0.18818,0l0,-0.1862l0.18818,0l0,-0.1862l0.18818,0l0,-0.1862l0.18818,0l0,-0.1862l0.18818,0l0,-0.1862l0.18818,0l0,-0.1862l0.18818,0l0,-0.1862l0.18818,0l0,-0.1862l0.18695,0l0,-0.18498l0.18818,0l0,-0.1862l0.18818,0l0,-0.1862l0.18818,0l0,-0.1862l0.18818,0l0,-0.1862l0.18818,0l0,-0.1862l0.18818,0l0,-0.1862l0.18818,0l0,-0.1862l0.18818,0l0,-0.1862l0.18818,0l0,-0.1862l0.18695,0l0,-0.37118l0.18818,0l0,-0.1862l0.18818,0l0,-0.1862l0.18818,0l0,-0.1862l0.18818,0l0,-0.1862l0.18818,0l0,-0.1862l0.18818,0l0,-0.1862l0.18818,0l0,-0.1862l0.18818,0l0,-0.18498l0.18818,0l0,-0.1862l0.18695,0l0,-0.3724l0.18818,0l0,-0.1862l0.18818,0l0,-0.1862l0.18818,0l0,-0.1862l0.18818,0l0,-0.1862l0.18818,0l0,-0.1862l0.18818,0l0,-0.37118l0.18818,0l0,-0.1862l0.18818,0l0,-0.1862l0.18818,0l0,-0.1862l0.18695,0l0,-0.1862l0.18818,0l0,-0.1862l0.18818,0l0,-0.3724l0.18818,0l0,-0.1862l0.18818,0l0,-0.1862l0.18818,0l0,-0.18498l0.18818,0l0,-0.1862l0.18818,0l0,-0.3724l0.18818,0l0,-0.1862l0.18818,0l0,-0.1862l0.18695,0l0,-0.3724l0.18818,0l0,-0.1862l0.18818,0l0,-0.1862l0.18818,0l0,-0.18498l0.18818,0l0,-0.3724l0.18818,0l0,-0.1862l0.18818,0l0,-0.1862l0.18818,0l0,-0.1862l0.18818,0l0,-0.3724l0.18818,0l0,-0.1862l0.18695,0l0,-0.1862l0.18818,0l0,-0.37118l0.18818,0l0,-0.1862l0.18818,0l0,-0.1862l0.18818,0l0,-0.3724l0.18818,0l0,-0.1862l0.18818,0l0,-0.1862l0.18818,0l0,-0.3724l0.18818,0l0,-0.18498l0.18695,0l0,-0.3724l0.18818,0l0,-0.1862l0.18818,0l0,-0.1862l0.18818,0l0,-0.3724l0.18818,0l0,-0.1862l0.18818,0l0,-0.3724l0.18818,0l0,-0.18498l0.18818,0l0,-0.1862l0.18818,0l0,-0.3724l0.18818,0l0,-0.1862l0.18695,0l0,-0.3724l0.18818,0l0,-0.1862l0.18818,0l0,-0.3724l0.18818,0l0,-0.18498l0.18818,0l0,-0.3724l0.18818,0l0,-0.1862l0.18818,0l0,-0.3724l0.18818,0l0,-0.1862l0.18818,0l0,-0.3724l0.18818,0l0,-0.18498l0.18695,0l0,-0.3724l0.18818,0l0,-0.3724l0.18818,0l0,-0.1862l0.18818,0l0,-0.3724l0.18818,0l0,-0.1862l0.18818,0l0,-0.37118l0.18818,0l0,-0.3724l0.18818,0l0,-0.1862l0.18818,0l0,-0.3724l0.18818,0l0,-0.3724l0.18695,0l0,-0.1862l0.18818,0l0,-0.37118l0.18818,0l0,-0.3724l0.18818,0l0,-0.1862l0.18818,0l0,-0.3724l0.18818,0l0,-0.3724l0.18818,0l0,-0.3724l0.18818,0l0,-0.18498l0.18818,0l0,-0.3724l0.18818,0l0,-0.3724l0.18695,0l0,-0.3724l0.18818,0l0,-0.3724l0.18818,0l0,-0.37118l0.18818,0l0,-0.3724l0.18818,0l0,-0.1862l0.18818,0l0,-0.3724l0.18818,0l0,-0.3724l0.18818,0l0,-0.3724l0.18818,0l0,-0.37118l0.18818,0l0,-0.3724l0.18695,0l0,-0.3724l0.18818,0l0,-0.3724l0.18818,0l0,-0.3724l0.18818,0l0,-0.37118l0.18818,0l0,-0.5586l0.18818,0l0,-0.3724l0.18818,0l0,-0.3724l0.18818,0l0,-0.37118l0.18818,0l0,-0.3724l0.18818,0l0,-0.3724l0.18695,0l0,-0.3724l0.18818,0l0,-0.55738l0.18818,0l0,-0.3724l0.18818,0l0,-0.5586l0.18818,0l0,-0.3724l0.18818,0l0,-0.55738l0.18818,0l0,-0.3724l0.18818,0l0,-0.5586l0.18818,0l0,-0.3724l0.18818,0l0,-0.55738l0.18695,0l0,-0.3724l0.18818,0l0,-0.5586l0.18818,0l0,-0.5586l0.18818,0l0,-0.55738l0.18818,0l0,-0.5586l0.18818,0l0,-0.5586l0.18818,0l0,-0.55738l0.18818,0l0,-0.5586l0.18818,0l0,-0.5586l0.18695,0l0,-0.5586l0.18818,0l0,-0.74358l0.18818,0l0,-0.7448l0.18818,0l0,-0.55738l0.18818,0l0,-0.7448l0.18818,0l0,-0.7448l0.18818,0l0,-0.74358l0.18818,0l0,-0.931l0.18818,0l0,-0.931l0.18818,0l0,-0.92978l0.18695,0l0,-0.931l0.18818,0l0,-1.11475l0.18818,0l0,-1.4896l0.18818,0l0,-1.48838l0.18818,0l0,-2.41938l0.18818,0l0,-5.7673l-0.18818,0l0,-3.53658l-0.18818,0l0,-1.48715l-0.18818,0l0,-1.11598l-0.18818,0l0,-1.1172l-0.18818,0l0,-1.11475l-0.18695,0l0,-1.1172l-0.18818,0l0,-0.931l-0.18818,0l0,-0.5586l-0.18818,0l0,-0.55738l-0.18818,0l0,-0.7448l-0.18818,0l0,-0.5586l-0.18818,0l0,-0.55738l-0.18818,0l0,-0.7448l-0.18818,0l0,-0.55738l-0.18818,0l0,-0.5586l-0.18695,0l0,-0.5586l-0.18818,0l0,-0.3724l-0.18818,0l0,-0.37118l-0.18818,0l0,-0.5586l-0.18818,0l0,-0.3724l-0.18818,0l0,-0.3724l-0.18818,0l0,-0.3724l-0.18818,0l0,-0.55738l-0.18818,0l0,-0.3724l-0.18695,0l0,-0.3724l-0.18818,0l0,-0.3724l-0.18818,0l0,-0.37118l-0.18818,0l0,-0.3724l-0.18818,0l0,-0.3724l-0.18818,0l0,-0.1862l-0.18818,0l0,-0.3724l-0.18818,0l0,-0.1862l-0.18818,0l0,-0.37118l-0.18818,0l0,-0.3724l-0.18695,0l0,-0.1862l-0.18818,0l0,-0.3724l-0.18818,0l0,-0.3724l-0.18818,0l0,-0.1862l-0.18818,0l0,-0.37118l-0.18818,0l0,-0.1862l-0.18818,0l0,-0.3724l-0.18818,0l0,-0.1862l-0.18818,0l0,-0.1862l-0.18818,0l0,-0.3724l-0.18695,0l0,-0.1862l-0.18818,0l0,-0.1862l-0.18818,0l0,-0.18498l-0.18818,0l0,-0.3724l-0.18818,0l0,-0.1862l-0.18818,0l0,-0.1862l-0.18818,0l0,-0.1862l-0.18818,0l0,-0.3724l-0.18818,0l0,-0.1862l-0.18818,0l0,-0.1862l-0.18695,0l0,-0.18498l-0.18818,0l0,-0.1862l-0.18818,0l0,-0.3724l-0.18818,0l0,-0.18743l-0.18818,0l0,-0.1862l-0.18818,0l0,-0.1862l-0.18818,0l0,-0.1862l-0.18818,0l0,-0.1862l-0.18818,0l0,-0.18498l-0.37513,0l0,-0.1862l-0.18818,0l0,-0.1862l-0.18818,0l0,-0.1862l-0.18818,0l0,-0.1862l-0.18818,0l0,-0.1862l-0.18818,0l0,-0.1862l-0.18818,0l0,-0.1862l-0.18818,0l0,-0.1862l-0.18818,0l0,-0.1862l-0.18818,0l0,-0.18498l-0.18695,0l0,-0.1862l-0.18818,0l0,-0.1862l-0.18818,0l0,-0.1862l-0.37637,0l0,-0.1862l-0.18818,0l0,-0.1862l-0.18818,0l0,-0.1862l-0.37637,0l0,-0.1862l-0.18818,0l0,-0.1862l-0.18695,0l0,-0.1862l-0.37637,0l0,-0.18498l-0.18818,0l0,-0.18743l-0.18818,0l0,-0.1862l-0.37637,0l0,-0.1862l-0.18818,0l0,-0.1862l-0.18818,0l0,-0.1862l-0.18818,0l0,-0.1862l-0.37513,0l0,-0.18375l-0.37637,0l0,-0.1862l-0.18818,0l0,-0.1862l-0.37637,0l0,-0.18498l-0.37637,0l0,-0.1862l-0.18695,0l0,-0.18743l-0.37637,0l0,-0.1862l-0.18818,0l0,-0.1862l-0.37637,0l0,-0.1862l-0.37637,0l0,-0.1862l-0.18818,0l0,-0.1862l-0.37513,0l0,-0.1862l-0.37637,0l0,-0.1862l-0.37637,0l0,-0.18498l-0.37637,0l0,-0.1862l-0.37637,0l0,-0.18743l-0.37513,0l0,-0.1862l-0.37637,0l0,-0.1862l-0.37637,0l0,-0.1862l-0.37637,0l0,-0.1862l-0.37637,0l0,-0.1862l-0.37513,0l0,-0.18375l-0.37637,0l0,-0.1862l-0.56455,0l0,-0.18498l-0.37637,0l0,-0.1862l-0.56331,0l0,-0.1862l-0.37637,0l0,-0.18743l-0.56455,0l0,-0.1862l-0.56455,0l0,-0.1862l-0.37513,0l0,-0.1862l-0.56455,0l0,-0.1862l-0.56455,0l0,-0.1862l-0.56455,0l0,-0.1862l-0.56331,0l0,-0.18498l-0.75273,0l0,-0.1862l-0.56455,0l0,-0.1862l-0.56331,0l0,-0.18743l-0.75273,0l0,-0.1862l-0.7515,0l0,-0.1862l-0.75273,0l0,-0.1862l-0.94092,0l0,-0.1862l-0.7515,0l0,-0.18498l-0.94092,0l0,-0.18498l-1.12786,0l0,-0.1862l-1.12786,0l0,-0.1862l-1.1291,0l0,-0.1862l-1.69241,0l0,-0.1862l-1.69241,0l0,-0.1862l-9.2148,0z"/>
  <path id="svg_2" fill="#d10010" d="m42.228,109.063l0,0.304l0.152,0l0,-0.304l-0.152,0zm-0.152,0.304l0,0.304l0.152,0l0,-0.304l-0.152,0zm-0.152,0.304l0,0.304l0.152,0l0,-0.304l-0.152,0zm-0.152,0.456l0,0.303l0.152,0l0,-0.303l-0.152,0zm-0.152,0.455l0,0.304l0.152,0l0,-0.304l-0.152,0zm-0.152,0.76l0,0.304l0.152,0l0,-0.304l-0.152,0zm0.912,-2.582l0,0.303l0.152,0l0,-0.304l-0.152,0l0,0.001zm1.063,-1.975l0,0.304l0.152,0l0,-0.304l-0.152,0z"/>
  <path id="svg_3" fill="#d10010" d="m43.443,106.937l0,0.152l-0.152,0l0,0.152l-0.152,0l0,0.303l-0.152,0l0,0.304l-0.152,0l0,0.152l-0.151,0l0,0.304l-0.152,0l0,0.304l-0.152,0l0,0.303l0.152,0l0,-0.152l0.152,0l0,-0.303l0.151,0l0,-0.304l0.152,0l0,-0.152l0.152,0l0,-0.304l0.152,0l0,-0.304l0.152,0l0,-0.151l0.152,0l0,-0.304l-0.152,0zm-1.215,1.974l0,0.304l0.152,0l0,-0.152l0.152,0l0,-0.152l-0.304,0z"/>
 </g>
</svg>