<svg id="transfer-files-amico" xmlns="http://www.w3.org/2000/svg" xmlns:xlink="http://www.w3.org/1999/xlink" viewBox="0 0 500 500" shape-rendering="geometricPrecision" text-rendering="geometricPrecision"><g id="transfer-files-amico-freepik-floor-inject-210"><ellipse id="transfer-files-amico-freepik-floor-inject-2102" rx="189.510000" ry="99.060000" transform="matrix(1 0 0 1 249.05000000000001 347.56999999999999)" fill="rgb(250,250,250)" stroke="none" stroke-width="1"/></g><g id="transfer-files-amico-freepik-shadow-inject-210"><path id="transfer-files-amico-freepik-shadow-inject-2102" d="M251.350000,370.440000C246.910000,370.440000,242.400000,370.250000,237.950000,369.880000C202.860000,366.940000,171.530000,352.770000,156.170000,332.880000L155.550000,332.090000L169.760000,321.090000L170.370000,321.880000C184.500000,340.160000,217.080000,352.440000,251.440000,352.440000L251.440000,352.440000C254.650000,352.440000,257.880000,352.330000,261.030000,352.110000C282.400000,350.620000,300.880000,344.190000,311.960000,334.440000L301.960000,323.580000L337.410000,321.580000L334.290000,358.650000L324.150000,347.650000C309.990000,360.300000,288.080000,368.240000,262.310000,370.040000C258.690000,370.310000,255,370.440000,251.350000,370.440000Z" fill="rgb(224,224,224)" stroke="none" stroke-width="1"/></g><g id="transfer-files-amico-freepik-boxes-inject-210"><g id="transfer-files-amico-freepik-boxes-inject-2102"><polygon id="transfer-files-amico-polygon1" points="209.540000,277.330000 209.540000,262.990000 228.170000,252.230000 228.170000,266.570000 209.540000,277.330000" fill="rgb(240,240,240)" stroke="none" stroke-width="1"/><polygon id="transfer-files-amico-polygon2" points="209.540000,262.990000 186.260000,249.540000 186.260000,263.880000 209.540000,277.330000 209.540000,262.990000" fill="rgb(230,230,230)" stroke="none" stroke-width="1"/><polygon id="transfer-files-amico-polygon3" points="209.540000,262.990000 228.720000,251.910000 204.880000,238.140000 185.700000,249.220000 209.540000,262.990000" fill="rgb(250,250,250)" stroke="none" stroke-width="1"/><polygon id="transfer-files-amico-polygon4" points="209.540000,262.990000 209.540000,266.570000 228.720000,255.500000 228.720000,251.910000 209.540000,262.990000" fill="rgb(240,240,240)" stroke="none" stroke-width="1"/><polygon id="transfer-files-amico-polygon5" points="209.540000,266.570000 228.170000,255.820000 228.170000,256.610000 209.540000,267.360000 209.540000,266.570000" fill="rgb(230,230,230)" stroke="none" stroke-width="1"/><polygon id="transfer-files-amico-polygon6" points="185.700000,249.220000 209.540000,262.990000 209.540000,266.570000 185.700000,252.810000 185.700000,249.220000" fill="rgb(230,230,230)" stroke="none" stroke-width="1"/><polygon id="transfer-files-amico-polygon7" points="209.540000,266.570000 186.260000,253.130000 186.260000,253.920000 209.540000,267.360000 209.540000,266.570000" fill="rgb(224,224,224)" stroke="none" stroke-width="1"/><path id="transfer-files-amico-path1" d="M215.670000,265.170000L222.040000,261.490000C222.310000,261.340000,222.530000,261.490000,222.530000,261.780000L222.530000,265.540000C222.512151,265.888111,222.330366,266.207161,222.040000,266.400000L215.670000,270.080000C215.400000,270.240000,215.180000,270.080000,215.180000,269.790000L215.180000,266C215.206976,265.662693,215.387698,265.356572,215.670000,265.170000Z" fill="rgb(235,235,235)" stroke="none" stroke-width="1"/><path id="transfer-files-amico-path2" d="M216.080000,265.590000L221.630000,262.390000C221.810000,262.290000,221.960000,262.390000,221.960000,262.580000L221.960000,265.400000C221.945298,265.633869,221.823533,265.847880,221.630000,265.980000L216.080000,269.180000C215.900000,269.290000,215.750000,269.180000,215.750000,268.990000L215.750000,266.170000C215.764702,265.936131,215.886467,265.722120,216.080000,265.590000Z" fill="rgb(250,250,250)" stroke="none" stroke-width="1"/><polygon id="transfer-files-amico-polygon8" points="209.540000,261.190000 209.540000,246.850000 228.170000,236.090000 228.170000,250.430000 209.540000,261.190000" fill="rgb(240,240,240)" stroke="none" stroke-width="1"/><polygon id="transfer-files-amico-polygon9" points="209.540000,246.850000 186.260000,233.400000 186.260000,247.740000 209.540000,261.190000 209.540000,246.850000" fill="rgb(230,230,230)" stroke="none" stroke-width="1"/><polygon id="transfer-files-amico-polygon10" points="209.540000,246.850000 228.720000,235.770000 204.880000,222 185.700000,233.080000 209.540000,246.850000" fill="rgb(245,245,245)" stroke="none" stroke-width="1"/><polygon id="transfer-files-amico-polygon11" points="209.540000,246.850000 209.540000,250.430000 228.720000,239.360000 228.720000,235.770000 209.540000,246.850000" fill="rgb(240,240,240)" stroke="none" stroke-width="1"/><polygon id="transfer-files-amico-polygon12" points="209.540000,250.430000 228.170000,239.680000 228.170000,240.460000 209.540000,251.220000 209.540000,250.430000" fill="rgb(230,230,230)" stroke="none" stroke-width="1"/><polygon id="transfer-files-amico-polygon13" points="185.700000,233.080000 209.540000,246.850000 209.540000,250.430000 185.700000,236.670000 185.700000,233.080000" fill="rgb(230,230,230)" stroke="none" stroke-width="1"/><polygon id="transfer-files-amico-polygon14" points="209.540000,250.430000 186.260000,236.990000 186.260000,237.780000 209.540000,251.220000 209.540000,250.430000" fill="rgb(224,224,224)" stroke="none" stroke-width="1"/><path id="transfer-files-amico-path3" d="M215.670000,249L222.040000,245.320000C222.310000,245.160000,222.530000,245.320000,222.530000,245.610000L222.530000,249.370000C222.512151,249.718111,222.330366,250.037161,222.040000,250.230000L215.670000,253.900000C215.400000,254.060000,215.180000,253.900000,215.180000,253.620000L215.180000,249.860000C215.194626,249.510955,215.377186,249.190543,215.670000,249Z" fill="rgb(235,235,235)" stroke="none" stroke-width="1"/><path id="transfer-files-amico-path4" d="M216.080000,249.450000L221.630000,246.250000C221.810000,246.140000,221.960000,246.250000,221.960000,246.440000L221.960000,249.260000C221.946834,249.491646,221.824333,249.703239,221.630000,249.830000L216.080000,253C215.900000,253.100000,215.750000,253,215.750000,252.810000L215.750000,250C215.770702,249.776044,215.892134,249.573658,216.080000,249.450000Z" fill="rgb(250,250,250)" stroke="none" stroke-width="1"/><polygon id="transfer-files-amico-polygon15" points="227.170000,251.010000 209.540000,261.190000 187.260000,248.310000 186.720000,248.640000 209.540000,261.770000 227.710000,251.330000 227.170000,251.010000" fill="rgb(224,224,224)" stroke="none" stroke-width="1"/><polygon id="transfer-files-amico-polygon16" points="227.170000,251.010000 209.540000,261.190000 187.260000,248.310000 186.720000,248.640000 209.540000,261.770000 227.710000,251.330000 227.170000,251.010000" opacity="0.5" fill="rgb(224,224,224)" stroke="none" stroke-width="1"/></g><g id="transfer-files-amico-freepik-boxes-inject-2103"><polygon id="transfer-files-amico-polygon17" points="290.460000,277.330000 290.460000,262.990000 271.830000,252.230000 271.830000,266.570000 290.460000,277.330000" fill="rgb(240,240,240)" stroke="none" stroke-width="1"/><polygon id="transfer-files-amico-polygon18" points="290.460000,262.990000 313.740000,249.540000 313.740000,263.880000 290.460000,277.330000 290.460000,262.990000" fill="rgb(230,230,230)" stroke="none" stroke-width="1"/><polygon id="transfer-files-amico-polygon19" points="290.460000,262.990000 271.280000,251.910000 295.120000,238.140000 314.300000,249.220000 290.460000,262.990000" fill="rgb(250,250,250)" stroke="none" stroke-width="1"/><polygon id="transfer-files-amico-polygon20" points="290.460000,262.990000 290.460000,266.570000 271.280000,255.500000 271.280000,251.910000 290.460000,262.990000" fill="rgb(240,240,240)" stroke="none" stroke-width="1"/><polygon id="transfer-files-amico-polygon21" points="290.460000,266.570000 271.830000,255.820000 271.830000,256.610000 290.460000,267.360000 290.460000,266.570000" fill="rgb(230,230,230)" stroke="none" stroke-width="1"/><polygon id="transfer-files-amico-polygon22" points="314.300000,249.220000 290.460000,262.990000 290.460000,266.570000 314.300000,252.810000 314.300000,249.220000" fill="rgb(230,230,230)" stroke="none" stroke-width="1"/><polygon id="transfer-files-amico-polygon23" points="290.460000,266.570000 313.750000,253.130000 313.740000,253.920000 290.460000,267.360000 290.460000,266.570000" fill="rgb(224,224,224)" stroke="none" stroke-width="1"/><path id="transfer-files-amico-path5" d="M284.330000,265.170000L278,261.490000C277.730000,261.340000,277.510000,261.490000,277.510000,261.780000L277.510000,265.540000C277.527849,265.888111,277.709634,266.207161,278,266.400000L284.370000,270.080000C284.640000,270.240000,284.860000,270.080000,284.860000,269.790000L284.860000,266C284.823959,265.655286,284.627561,265.347719,284.330000,265.170000Z" fill="rgb(235,235,235)" stroke="none" stroke-width="1"/><path id="transfer-files-amico-path6" d="M283.920000,265.590000L278.370000,262.390000C278.190000,262.290000,278.040000,262.390000,278.040000,262.580000L278.040000,265.400000C278.054702,265.633869,278.176467,265.847880,278.370000,265.980000L283.920000,269.180000C284.100000,269.290000,284.250000,269.180000,284.250000,268.990000L284.250000,266.170000C284.235298,265.936131,284.113533,265.722120,283.920000,265.590000Z" fill="rgb(250,250,250)" stroke="none" stroke-width="1"/><polygon id="transfer-files-amico-polygon24" points="290.460000,261.190000 290.460000,246.850000 271.830000,236.090000 271.830000,250.430000 290.460000,261.190000" fill="rgb(240,240,240)" stroke="none" stroke-width="1"/><polygon id="transfer-files-amico-polygon25" points="290.460000,246.850000 313.740000,233.400000 313.740000,247.740000 290.460000,261.190000 290.460000,246.850000" fill="rgb(230,230,230)" stroke="none" stroke-width="1"/><polygon id="transfer-files-amico-polygon26" points="290.460000,246.850000 271.280000,235.770000 295.120000,222 314.300000,233.080000 290.460000,246.850000" fill="rgb(245,245,245)" stroke="none" stroke-width="1"/><polygon id="transfer-files-amico-polygon27" points="290.460000,246.850000 290.460000,250.430000 271.280000,239.360000 271.280000,235.770000 290.460000,246.850000" fill="rgb(240,240,240)" stroke="none" stroke-width="1"/><polygon id="transfer-files-amico-polygon28" points="290.460000,250.430000 271.830000,239.680000 271.830000,240.460000 290.460000,251.220000 290.460000,250.430000" fill="rgb(230,230,230)" stroke="none" stroke-width="1"/><polygon id="transfer-files-amico-polygon29" points="314.300000,233.080000 290.460000,246.850000 290.460000,250.430000 314.300000,236.670000 314.300000,233.080000" fill="rgb(230,230,230)" stroke="none" stroke-width="1"/><polygon id="transfer-files-amico-polygon30" points="290.460000,250.430000 313.750000,236.990000 313.740000,237.780000 290.460000,251.220000 290.460000,250.430000" fill="rgb(224,224,224)" stroke="none" stroke-width="1"/><path id="transfer-files-amico-path7" d="M284.330000,249L278,245.350000C277.730000,245.190000,277.510000,245.350000,277.510000,245.640000L277.510000,249.400000C277.527849,249.748111,277.709634,250.067161,278,250.260000L284.370000,253.930000C284.640000,254.090000,284.860000,253.930000,284.860000,253.650000L284.860000,249.890000C284.846412,249.522438,284.646693,249.187061,284.330000,249Z" fill="rgb(235,235,235)" stroke="none" stroke-width="1"/><path id="transfer-files-amico-path8" d="M283.920000,249.450000L278.370000,246.250000C278.190000,246.140000,278.040000,246.250000,278.040000,246.440000L278.040000,249.260000C278.053166,249.491646,278.175667,249.703239,278.370000,249.830000L283.920000,253.040000C284.100000,253.140000,284.250000,253.040000,284.250000,252.850000L284.250000,250C284.229298,249.776044,284.107866,249.573658,283.920000,249.450000Z" fill="rgb(250,250,250)" stroke="none" stroke-width="1"/><polygon id="transfer-files-amico-polygon31" points="272.830000,251.010000 290.460000,261.190000 312.740000,248.310000 313.280000,248.640000 290.460000,261.770000 272.290000,251.330000 272.830000,251.010000" fill="rgb(224,224,224)" stroke="none" stroke-width="1"/><polygon id="transfer-files-amico-polygon32" points="272.830000,251.010000 290.460000,261.190000 312.740000,248.310000 313.280000,248.640000 290.460000,261.770000 272.290000,251.330000 272.830000,251.010000" opacity="0.5" fill="rgb(224,224,224)" stroke="none" stroke-width="1"/></g></g><g id="transfer-files-amico-freepik-cabinets-inject-210"><g id="transfer-files-amico-freepik-cabinet-inject-210"><polygon id="transfer-files-amico-polygon33" points="64.180000,335.410000 86.450000,322.560000 86.450000,274.810000 64.180000,287.660000 64.180000,335.410000" fill="rgb(38,50,56)" stroke="none" stroke-width="1"/><polygon id="transfer-files-amico-polygon34" points="64.180000,287.660000 32.370000,269.300000 32.370000,317.050000 64.180000,335.410000 64.180000,287.660000" fill="rgb(55,71,79)" stroke="none" stroke-width="1"/><polygon id="transfer-files-amico-polygon35" points="32.370000,269.300000 64.180000,287.660000 86.450000,274.810000 54.640000,256.440000 32.370000,269.300000" fill="rgb(69,90,100)" stroke="none" stroke-width="1"/><polygon id="transfer-files-amico-polygon36" points="61.590000,311.880000 36.140000,297.190000 36.140000,314.870000 35.550000,315.210000 61,329.900000 61.590000,329.560000 61.590000,311.880000" fill="rgb(38,50,56)" stroke="none" stroke-width="1"/><polygon id="transfer-files-amico-polygon37" points="61,312.220000 35.550000,297.520000 35.550000,315.210000 61,329.900000 61,312.220000" fill="rgb(69,90,100)" stroke="none" stroke-width="1"/><path id="transfer-files-amico-path9" d="M51,309.450000L46.700000,307C46.140000,306.670000,45.700000,306.820000,45.700000,307.330000C45.776307,307.960398,46.147443,308.517102,46.700000,308.830000L51.030000,311.330000C51.590000,311.660000,52.030000,311.510000,52.030000,311C51.962602,310.345336,51.577445,309.765730,51,309.450000Z" fill="rgb(38,50,56)" stroke="none" stroke-width="1"/><polygon id="transfer-files-amico-polygon38" points="61.590000,290.530000 36.140000,275.840000 36.140000,293.520000 35.550000,293.860000 61,308.550000 61.590000,308.210000 61.590000,290.530000" fill="rgb(38,50,56)" stroke="none" stroke-width="1"/><polygon id="transfer-files-amico-polygon39" points="61,290.870000 35.550000,276.180000 35.550000,293.860000 61,308.550000 61,290.870000" fill="rgb(69,90,100)" stroke="none" stroke-width="1"/><path id="transfer-files-amico-path10" d="M51,288.110000L46.670000,285.610000C46.110000,285.280000,45.670000,285.430000,45.670000,285.940000C45.746307,286.570398,46.117443,287.127102,46.670000,287.440000L51,289.940000C51.560000,290.270000,52,290.120000,52,289.610000C51.923693,288.979602,51.552557,288.422898,51,288.110000Z" fill="rgb(38,50,56)" stroke="none" stroke-width="1"/></g><g id="transfer-files-amico-freepik-cabinet-inject-2102"><polygon id="transfer-files-amico-polygon40" points="435.820000,335.410000 413.550000,322.560000 413.550000,274.810000 435.820000,287.660000 435.820000,335.410000" fill="rgb(197,63,63)" stroke="none" stroke-width="1"/><g id="transfer-files-amico-g1" opacity="0.2"><polygon id="transfer-files-amico-polygon41" points="435.820000,335.410000 413.550000,322.560000 413.550000,274.810000 435.820000,287.660000 435.820000,335.410000" fill="rgb(0,0,0)" stroke="none" stroke-width="1"/></g><polygon id="transfer-files-amico-polygon42" points="435.820000,287.660000 467.630000,269.300000 467.630000,317.050000 435.820000,335.410000 435.820000,287.660000" fill="rgb(197,63,63)" stroke="none" stroke-width="1"/><polygon id="transfer-files-amico-polygon43" points="467.630000,269.300000 435.820000,287.660000 413.550000,274.810000 445.360000,256.440000 467.630000,269.300000" fill="rgb(197,63,63)" stroke="none" stroke-width="1"/><g id="transfer-files-amico-g2" opacity="0.4"><polygon id="transfer-files-amico-polygon44" points="467.630000,269.300000 435.820000,287.660000 413.550000,274.810000 445.360000,256.440000 467.630000,269.300000" fill="rgb(255,255,255)" stroke="none" stroke-width="1"/></g><polygon id="transfer-files-amico-polygon45" points="438.420000,311.880000 463.860000,297.190000 463.860000,314.870000 464.440000,315.210000 439,329.900000 438.410000,329.560000 438.420000,311.880000" fill="rgb(197,63,63)" stroke="none" stroke-width="1"/><g id="transfer-files-amico-g3" opacity="0.1"><polygon id="transfer-files-amico-polygon46" points="438.420000,311.880000 463.860000,297.190000 463.860000,314.870000 464.440000,315.210000 439,329.900000 438.410000,329.560000 438.420000,311.880000" fill="rgb(0,0,0)" stroke="none" stroke-width="1"/></g><polygon id="transfer-files-amico-polygon47" points="439,312.220000 464.450000,297.520000 464.440000,315.210000 439,329.900000 439,312.220000" fill="rgb(197,63,63)" stroke="none" stroke-width="1"/><g id="transfer-files-amico-g4" opacity="0.4"><polygon id="transfer-files-amico-polygon48" points="439,312.220000 464.450000,297.520000 464.440000,315.210000 439,329.900000 439,312.220000" fill="rgb(255,255,255)" stroke="none" stroke-width="1"/></g><path id="transfer-files-amico-path11" d="M449,309.450000L453.300000,307C453.860000,306.670000,454.300000,306.820000,454.300000,307.330000C454.223693,307.960398,453.852557,308.517102,453.300000,308.830000L448.970000,311.330000C448.410000,311.660000,447.970000,311.510000,447.970000,311C448.037398,310.345336,448.422555,309.765730,449,309.450000Z" fill="rgb(197,63,63)" stroke="none" stroke-width="1"/><g id="transfer-files-amico-g5" opacity="0.1"><path id="transfer-files-amico-path12" d="M449,309.450000L453.300000,307C453.860000,306.670000,454.300000,306.820000,454.300000,307.330000C454.223693,307.960398,453.852557,308.517102,453.300000,308.830000L448.970000,311.330000C448.410000,311.660000,447.970000,311.510000,447.970000,311C448.037398,310.345336,448.422555,309.765730,449,309.450000Z" fill="rgb(0,0,0)" stroke="none" stroke-width="1"/></g><polygon id="transfer-files-amico-polygon49" points="438.420000,290.530000 463.860000,275.840000 463.860000,293.520000 464.440000,293.860000 439,308.550000 438.410000,308.210000 438.420000,290.530000" fill="rgb(197,63,63)" stroke="none" stroke-width="1"/><g id="transfer-files-amico-g6" opacity="0.1"><polygon id="transfer-files-amico-polygon50" points="438.420000,290.530000 463.860000,275.840000 463.860000,293.520000 464.440000,293.860000 439,308.550000 438.410000,308.210000 438.420000,290.530000" fill="rgb(0,0,0)" stroke="none" stroke-width="1"/></g><polygon id="transfer-files-amico-polygon51" points="439,290.870000 464.450000,276.180000 464.440000,293.860000 439,308.550000 439,290.870000" fill="rgb(197,63,63)" stroke="none" stroke-width="1"/><g id="transfer-files-amico-g7" opacity="0.4"><polygon id="transfer-files-amico-polygon52" points="439,290.870000 464.450000,276.180000 464.440000,293.860000 439,308.550000 439,290.870000" fill="rgb(255,255,255)" stroke="none" stroke-width="1"/></g><path id="transfer-files-amico-path13" d="M449,288.110000L453.330000,285.610000C453.890000,285.280000,454.330000,285.430000,454.330000,285.940000C454.253693,286.570398,453.882557,287.127102,453.330000,287.440000L449,289.940000C448.440000,290.270000,448,290.120000,448,289.610000C448.076307,288.979602,448.447443,288.422898,449,288.110000Z" fill="rgb(197,63,63)" stroke="none" stroke-width="1"/><g id="transfer-files-amico-g8" opacity="0.1"><path id="transfer-files-amico-path14" d="M449,288.110000L453.330000,285.610000C453.890000,285.280000,454.330000,285.430000,454.330000,285.940000C454.253693,286.570398,453.882557,287.127102,453.330000,287.440000L449,289.940000C448.440000,290.270000,448,290.120000,448,289.610000C448.076307,288.979602,448.447443,288.422898,449,288.110000Z" fill="rgb(0,0,0)" stroke="none" stroke-width="1"/></g></g></g><g id="transfer-files-amico-freepik-folders-inject-210"><g id="transfer-files-amico-freepik-folder-black-inject-210"><path id="transfer-files-amico-path15" d="M304.580000,273.760000L408.680000,333.870000L415.010000,337.520000L415.300000,337.670000C415.470552,337.754544,415.647827,337.824785,415.830000,337.880000C416.042633,337.964322,416.263999,338.024694,416.490000,338.060000C416.634557,338.097191,416.781604,338.123927,416.930000,338.140000C416.959043,338.150716,416.990957,338.150716,417.020000,338.140000C417.206527,338.150216,417.393473,338.150216,417.580000,338.140000C418.154879,338.162377,418.726036,338.038512,419.240000,337.780000C420.470319,336.860845,421.315025,335.517156,421.610000,334.010000L439.150000,242.870000C439.190100,242.672523,439.210202,242.471508,439.210000,242.270000C439.224852,242.107004,439.224852,241.942996,439.210000,241.780000L439.210000,241.780000C439.174615,241.528923,439.117740,241.281347,439.040000,241.040000C438.948800,240.794956,438.845336,240.554653,438.730000,240.320000L438.470000,239.890000C438.358546,239.736544,438.238347,239.589634,438.110000,239.450000C437.997480,239.329000,437.877227,239.215428,437.750000,239.110000C437.616432,239.004335,437.476136,238.907464,437.330000,238.820000L326.870000,175.090000C326.776521,175.034065,326.679669,174.983969,326.580000,174.940000L326.270000,174.800000C326.222184,174.777383,326.171823,174.760596,326.120000,174.750000C325.987364,174.730715,325.852636,174.730715,325.720000,174.750000C324.993263,174.904272,324.310038,175.218556,323.720000,175.670000L321.270000,177.110000L321.270000,177.110000C321.080970,177.185698,320.912913,177.305739,320.780000,177.460000C320.573123,177.671145,320.418951,177.928099,320.330000,178.210000C320.284274,178.333077,320.250779,178.460358,320.230000,178.590000L302.680000,269.720000C302.468186,271.322444,303.210656,272.901170,304.580000,273.760000Z" fill="rgb(197,63,63)" stroke="none" stroke-width="1"/><path id="transfer-files-amico-path16" d="M304.580000,273.760000L408.680000,333.870000L415.010000,337.520000L415.300000,337.670000C415.470552,337.754544,415.647827,337.824785,415.830000,337.880000C416.042633,337.964322,416.263999,338.024694,416.490000,338.060000C416.634557,338.097191,416.781604,338.123927,416.930000,338.140000C416.959043,338.150716,416.990957,338.150716,417.020000,338.140000C417.206527,338.150216,417.393473,338.150216,417.580000,338.140000C418.154879,338.162377,418.726036,338.038512,419.240000,337.780000C420.470319,336.860845,421.315025,335.517156,421.610000,334.010000L439.150000,242.870000C439.190100,242.672523,439.210202,242.471508,439.210000,242.270000C439.224852,242.107004,439.224852,241.942996,439.210000,241.780000L439.210000,241.780000C439.174615,241.528923,439.117740,241.281347,439.040000,241.040000C438.948800,240.794956,438.845336,240.554653,438.730000,240.320000L438.470000,239.890000C438.358546,239.736544,438.238347,239.589634,438.110000,239.450000C437.997480,239.329000,437.877227,239.215428,437.750000,239.110000C437.616432,239.004335,437.476136,238.907464,437.330000,238.820000L326.870000,175.090000C326.776521,175.034065,326.679669,174.983969,326.580000,174.940000L326.270000,174.800000C326.222184,174.777383,326.171823,174.760596,326.120000,174.750000C325.987364,174.730715,325.852636,174.730715,325.720000,174.750000C324.993263,174.904272,324.310038,175.218556,323.720000,175.670000L321.270000,177.110000L321.270000,177.110000C321.080970,177.185698,320.912913,177.305739,320.780000,177.460000C320.573123,177.671145,320.418951,177.928099,320.330000,178.210000C320.284274,178.333077,320.250779,178.460358,320.230000,178.590000L302.680000,269.720000C302.468186,271.322444,303.210656,272.901170,304.580000,273.760000Z" fill="rgb(197,63,63)" stroke="none" stroke-width="1"/><path id="transfer-files-amico-path17" d="M415.300000,337.670000C416.527157,338.297792,417.968663,338.352671,419.240000,337.820000C420.470319,336.900845,421.315025,335.557156,421.610000,334.050000L439.150000,242.910000C439.288430,242.025996,439.126464,241.121104,438.690000,240.340000L435,242.480000C435.435550,243.261483,435.600775,244.164948,435.470000,245.050000L417.900000,336.200000C417.848778,336.795000,417.507357,337.326439,416.987493,337.620362C416.467629,337.914285,415.836242,337.932858,415.300000,337.670000Z" fill="rgb(38,50,56)" stroke="none" stroke-width="1"/><path id="transfer-files-amico-path18" d="M323.760000,175.630000L321.310000,177.070000L321.310000,177.070000C321.913803,176.805578,322.610561,176.865838,323.160000,177.230000L433.580000,241C434.170991,241.360063,434.651796,241.875458,434.970000,242.490000L438.690000,240.350000L438.430000,239.920000C438.318546,239.766544,438.198347,239.619634,438.070000,239.480000C437.840218,239.235119,437.577743,239.023119,437.290000,238.850000L326.870000,175.090000C326.678097,174.977406,326.477451,174.880426,326.270000,174.800000C326.222184,174.777383,326.171823,174.760596,326.120000,174.750000C325.987364,174.730715,325.852636,174.730715,325.720000,174.750000C325.010618,174.897842,324.341848,175.198106,323.760000,175.630000Z" fill="rgb(55,71,79)" stroke="none" stroke-width="1"/><path id="transfer-files-amico-path19" d="M323.760000,175.630000L321.310000,177.070000L321.310000,177.070000C321.913803,176.805578,322.610561,176.865838,323.160000,177.230000L433.580000,241C434.170991,241.360063,434.651796,241.875458,434.970000,242.490000L438.690000,240.350000L438.430000,239.920000C438.318546,239.766544,438.198347,239.619634,438.070000,239.480000C437.840218,239.235119,437.577743,239.023119,437.290000,238.850000L326.870000,175.090000C326.678097,174.977406,326.477451,174.880426,326.270000,174.800000C326.222184,174.777383,326.171823,174.760596,326.120000,174.750000C325.987364,174.730715,325.852636,174.730715,325.720000,174.750000C325.010618,174.897842,324.341848,175.198106,323.760000,175.630000Z" opacity="0.5" fill="rgb(69,90,100)" stroke="none" stroke-width="1"/><path id="transfer-files-amico-path20" d="M417.900000,336.190000L435.440000,245.060000C435.669769,243.456260,434.942953,241.865862,433.580000,240.990000L323.160000,177.240000C322.626566,176.851710,321.925415,176.780629,321.324908,177.053964C320.724400,177.327298,320.317521,177.902723,320.260000,178.560000L302.720000,269.700000C302.490231,271.303740,303.217047,272.894138,304.580000,273.770000L415,337.520000C415.536378,337.902184,416.236122,337.968537,416.834775,337.693982C417.433428,337.419428,417.839682,336.845841,417.900000,336.190000Z" fill="rgb(197,63,63)" stroke="none" stroke-width="1"/><path id="transfer-files-amico-path21" d="M417.900000,336.190000L435.440000,245.060000C435.669769,243.456260,434.942953,241.865862,433.580000,240.990000L323.160000,177.240000C322.626566,176.851710,321.925415,176.780629,321.324908,177.053964C320.724400,177.327298,320.317521,177.902723,320.260000,178.560000L302.720000,269.700000C302.490231,271.303740,303.217047,272.894138,304.580000,273.770000L415,337.520000C415.536378,337.902184,416.236122,337.968537,416.834775,337.693982C417.433428,337.419428,417.839682,336.845841,417.900000,336.190000Z" fill="rgb(55,71,79)" stroke="none" stroke-width="1"/><path id="transfer-files-amico-path22" d="M417.900000,336.190000L435.440000,245.060000C435.669769,243.456260,434.942953,241.865862,433.580000,240.990000L323.160000,177.240000C322.626566,176.851710,321.925415,176.780629,321.324908,177.053964C320.724400,177.327298,320.317521,177.902723,320.260000,178.560000L302.720000,269.700000C302.490231,271.303740,303.217047,272.894138,304.580000,273.770000L415,337.520000C415.536378,337.902184,416.236122,337.968537,416.834775,337.693982C417.433428,337.419428,417.839682,336.845841,417.900000,336.190000Z" opacity="0.5" fill="rgb(38,50,56)" stroke="none" stroke-width="1"/><path id="transfer-files-amico-path23" d="M334.190000,270.080000L409.080000,313.320000L413.630000,315.950000L413.840000,316.060000C413.963111,316.118577,414.090072,316.168693,414.220000,316.210000C414.375516,316.268454,414.536240,316.311984,414.700000,316.340000C414.801534,316.366366,414.905326,316.383107,415.010000,316.390000C415.032377,316.399446,415.057623,316.399446,415.080000,316.390000C415.213149,316.399927,415.346851,316.399927,415.480000,316.390000C415.896368,316.402628,416.309167,316.309749,416.680000,316.120000C417.562289,315.457970,418.167950,314.492475,418.380000,313.410000L431,247.890000C431.014784,247.747048,431.014784,247.602952,431,247.460000C431.009880,247.340203,431.009880,247.219797,431,247.100000L431,247.100000C430.980263,246.916088,430.940012,246.734962,430.880000,246.560000C430.816984,246.385733,430.743517,246.215424,430.660000,246.050000C430.600000,245.950000,430.540000,245.840000,430.470000,245.740000C430.394375,245.627887,430.307235,245.523989,430.210000,245.430000C430.136089,245.334343,430.048481,245.250104,429.950000,245.180000C429.858197,245.103518,429.761308,245.033357,429.660000,244.970000L350.230000,199.100000L350,199L349.770000,198.900000C349.736918,198.894210,349.703082,198.894210,349.670000,198.900000C349.573847,198.885909,349.476153,198.885909,349.380000,198.900000C348.866328,199.016579,348.384817,199.245382,347.970000,199.570000L346.210000,200.570000L346.210000,200.570000C346.072990,200.625687,345.950037,200.711071,345.850000,200.820000C345.703555,200.973246,345.594098,201.157955,345.530000,201.360000C345.499718,201.448054,345.476315,201.538325,345.460000,201.630000L332.840000,267.200000C332.702172,268.339181,333.226239,269.457189,334.190000,270.080000Z" fill="rgb(197,63,63)" stroke="none" stroke-width="1"/><path id="transfer-files-amico-path24" d="M334.190000,270.080000L409.080000,313.320000L413.630000,315.950000L413.840000,316.060000C413.963111,316.118577,414.090072,316.168693,414.220000,316.210000C414.375516,316.268454,414.536240,316.311984,414.700000,316.340000C414.801534,316.366366,414.905326,316.383107,415.010000,316.390000C415.032377,316.399446,415.057623,316.399446,415.080000,316.390000C415.213149,316.399927,415.346851,316.399927,415.480000,316.390000C415.896368,316.402628,416.309167,316.309749,416.680000,316.120000C417.562289,315.457970,418.167950,314.492475,418.380000,313.410000L431,247.890000C431.014784,247.747048,431.014784,247.602952,431,247.460000C431.009880,247.340203,431.009880,247.219797,431,247.100000L431,247.100000C430.980263,246.916088,430.940012,246.734962,430.880000,246.560000C430.816984,246.385733,430.743517,246.215424,430.660000,246.050000C430.600000,245.950000,430.540000,245.840000,430.470000,245.740000C430.394375,245.627887,430.307235,245.523989,430.210000,245.430000C430.136089,245.334343,430.048481,245.250104,429.950000,245.180000C429.858197,245.103518,429.761308,245.033357,429.660000,244.970000L350.230000,199.100000L350,199L349.770000,198.900000C349.736918,198.894210,349.703082,198.894210,349.670000,198.900000C349.573847,198.885909,349.476153,198.885909,349.380000,198.900000C348.866328,199.016579,348.384817,199.245382,347.970000,199.570000L346.210000,200.570000L346.210000,200.570000C346.072990,200.625687,345.950037,200.711071,345.850000,200.820000C345.703555,200.973246,345.594098,201.157955,345.530000,201.360000C345.499718,201.448054,345.476315,201.538325,345.460000,201.630000L332.840000,267.200000C332.702172,268.339181,333.226239,269.457189,334.190000,270.080000Z" fill="rgb(197,63,63)" stroke="none" stroke-width="1"/><path id="transfer-files-amico-path25" d="M413.840000,316.060000C414.725988,316.509004,415.764625,316.545576,416.680000,316.160000C417.562289,315.497970,418.167950,314.532475,418.380000,313.450000L431,247.890000C431.090963,247.253906,430.975286,246.605412,430.670000,246.040000L428,247.580000C428.315730,248.141763,428.435359,248.792685,428.340000,249.430000L415.710000,315C415.674835,315.428848,415.429748,315.812512,415.055418,316.024699C414.681087,316.236886,414.226015,316.250104,413.840000,316.060000Z" fill="rgb(224,224,224)" stroke="none" stroke-width="1"/><path id="transfer-files-amico-path26" d="M348,199.490000L346.240000,200.490000L346.240000,200.490000C346.670705,200.296383,347.171271,200.341889,347.560000,200.610000L427,246.510000C427.429332,246.763033,427.776549,247.134555,428,247.580000L430.680000,246.040000C430.620000,245.940000,430.560000,245.830000,430.490000,245.730000C430.414375,245.617887,430.327235,245.513989,430.230000,245.420000C430.070735,245.239991,429.885333,245.084928,429.680000,244.960000L350.230000,199.100000C350.088319,199.019999,349.941306,198.949834,349.790000,198.890000C349.756918,198.884210,349.723082,198.884210,349.690000,198.890000C349.593847,198.875909,349.496153,198.875909,349.400000,198.890000C348.895605,198.986960,348.418071,199.191617,348,199.490000Z" fill="rgb(250,250,250)" stroke="none" stroke-width="1"/><path id="transfer-files-amico-path27" d="M415.710000,315L428.330000,249.430000C428.486080,248.279361,427.964132,247.141980,426.990000,246.510000L347.560000,200.640000C347.168375,200.357687,346.653870,200.311691,346.218378,200.520060C345.782886,200.728429,345.495887,201.157921,345.470000,201.640000L332.860000,267.210000C332.701847,268.358561,333.219672,269.495439,334.190000,270.130000L413.630000,316C414.021403,316.276864,414.532150,316.319740,414.964234,316.112007C415.396319,315.904275,415.681799,315.478596,415.710000,315Z" fill="rgb(245,245,245)" stroke="none" stroke-width="1"/><g id="transfer-files-amico-freepik-document-inject-210" transform="matrix(1 0 0 1 2.86221557499999 54.32438659000033)"><path id="transfer-files-amico-path28" d="M357,250.800000C357.606613,250.384846,357.978249,249.704751,358,248.970000L358,129.740000C357.961391,128.979340,357.559564,128.283584,356.920000,127.870000L282,84.630000C281.366072,84.210125,280.548887,84.186039,279.891330,84.567846C279.233773,84.949654,278.849597,85.671305,278.900000,86.430000L278.900000,205.660000C278.938609,206.420660,279.340436,207.116416,279.980000,207.530000L354.850000,250.770000C355.518492,251.131552,356.321680,251.142759,357,250.800000Z" fill="rgb(235,235,235)" stroke="none" stroke-width="1"/><path id="transfer-files-amico-path29" d="M278.910000,86.240000C279.010000,85.690000,279.450000,85.500000,279.990000,85.810000L354.870000,129C355.190512,129.198034,355.452762,129.477537,355.630000,129.810000L357.630000,128.640000C357.443825,128.308124,357.179523,128.026659,356.860000,127.820000L282,84.640000C281.340067,84.305056,280.559933,84.305056,279.900000,84.640000C279.368535,85.018754,279.011758,85.595365,278.910000,86.240000Z" fill="rgb(250,250,250)" stroke="none" stroke-width="1"/><path id="transfer-files-amico-path30" d="M355,250.840000C355.618743,251.125075,356.331257,251.125075,356.950000,250.840000C357.556613,250.424846,357.928249,249.744751,357.950000,249.010000L357.950000,129.740000C357.937179,129.366263,357.830576,129.001752,357.640000,128.680000L355.640000,129.850000C355.837811,130.169142,355.948172,130.534712,355.960000,130.910000L355.960000,250.140000C356,250.770000,355.530000,251.070000,355,250.840000Z" fill="rgb(224,224,224)" stroke="none" stroke-width="1"/><path id="transfer-files-amico-path31" d="M354.860000,250.770000L280,207.530000C279.360436,207.116416,278.958609,206.420660,278.920000,205.660000L278.920000,86.430000C278.920000,85.740000,279.400000,85.430000,280,85.810000L354.860000,129C355.499564,129.413584,355.901391,130.109340,355.940000,130.870000L355.940000,250.140000C355.940000,250.830000,355.460000,251.110000,354.860000,250.770000Z" fill="rgb(245,245,245)" stroke="none" stroke-width="1"/><g id="transfer-files-amico-g9" opacity="0.3"><path id="transfer-files-amico-path32" d="M350.480000,183.350000C350.480000,184.270000,349.650000,184.540000,348.640000,183.950000L286.210000,147.950000C285.206945,147.378921,284.526826,146.373527,284.370000,145.230000C284.370000,144.310000,285.200000,144.040000,286.210000,144.630000L348.640000,180.630000C349.643055,181.201079,350.323174,182.206473,350.480000,183.350000Z" fill="rgb(69,90,100)" stroke="none" stroke-width="1"/><path id="transfer-files-amico-path33" d="M350.480000,193.310000C350.480000,194.220000,349.650000,194.490000,348.640000,193.910000L286.210000,157.910000C285.203704,157.342430,284.522363,156.335230,284.370000,155.190000C284.370000,154.270000,285.200000,154.010000,286.210000,154.590000L348.640000,190.640000C349.633519,191.197250,350.312966,192.183188,350.480000,193.310000Z" fill="rgb(69,90,100)" stroke="none" stroke-width="1"/><path id="transfer-files-amico-path34" d="M350.480000,203.260000C350.480000,204.180000,349.650000,204.450000,348.640000,203.860000L286.210000,167.860000C285.206945,167.288921,284.526826,166.283527,284.370000,165.140000C284.370000,164.220000,285.200000,163.950000,286.210000,164.540000L348.640000,200.540000C349.643055,201.111079,350.323174,202.116473,350.480000,203.260000Z" fill="rgb(69,90,100)" stroke="none" stroke-width="1"/><path id="transfer-files-amico-path35" d="M350.480000,213.220000C350.480000,214.140000,349.650000,214.400000,348.640000,213.820000L286.210000,177.820000C285.203704,177.252430,284.522363,176.245230,284.370000,175.100000C284.370000,174.190000,285.200000,173.920000,286.210000,174.500000L348.640000,210.550000C349.633519,211.107250,350.312966,212.093188,350.480000,213.220000Z" fill="rgb(69,90,100)" stroke="none" stroke-width="1"/><path id="transfer-files-amico-path36" d="M350.480000,153.480000C350.480000,154.400000,349.650000,154.670000,348.640000,154.080000L286.210000,118.080000C285.206945,117.508921,284.526826,116.503527,284.370000,115.360000C284.370000,114.440000,285.200000,114.170000,286.210000,114.760000L348.640000,150.760000C349.643055,151.331079,350.323174,152.336473,350.480000,153.480000Z" fill="rgb(69,90,100)" stroke="none" stroke-width="1"/><path id="transfer-files-amico-path37" d="M350.480000,163.440000C350.480000,164.360000,349.650000,164.620000,348.640000,164.040000L286.210000,128.040000C285.203704,127.472430,284.522363,126.465230,284.370000,125.320000C284.370000,124.410000,285.200000,124.140000,286.210000,124.730000L348.640000,160.730000C349.641568,161.297852,350.321714,162.299588,350.480000,163.440000Z" fill="rgb(69,90,100)" stroke="none" stroke-width="1"/><path id="transfer-files-amico-path38" d="M350.480000,143.540000C350.480000,144.460000,349.650000,144.730000,348.640000,144.140000L286.210000,108.140000C285.206945,107.568921,284.526826,106.563527,284.370000,105.420000C284.370000,104.500000,285.200000,104.230000,286.210000,104.820000L348.640000,140.820000C349.643055,141.391079,350.323174,142.396473,350.480000,143.540000Z" fill="rgb(69,90,100)" stroke="none" stroke-width="1"/><path id="transfer-files-amico-path39" d="M350.480000,173.400000C350.480000,174.310000,349.650000,174.580000,348.640000,173.990000L286.210000,137.990000C285.205871,137.420083,284.525348,136.414092,284.370000,135.270000C284.370000,134.350000,285.200000,134.080000,286.210000,134.670000L348.640000,170.670000C349.645618,171.243145,350.326114,172.252794,350.480000,173.400000Z" fill="rgb(69,90,100)" stroke="none" stroke-width="1"/><path id="transfer-files-amico-path40" d="M350.480000,223.180000C350.480000,224.090000,349.650000,224.360000,348.640000,223.770000L286.210000,187.770000C285.206945,187.198921,284.526826,186.193527,284.370000,185.050000C284.370000,184.130000,285.200000,183.860000,286.210000,184.450000L348.640000,220.450000C349.645618,221.023145,350.326114,222.032794,350.480000,223.180000Z" fill="rgb(69,90,100)" stroke="none" stroke-width="1"/><path id="transfer-files-amico-path41" d="M350.480000,233.130000C350.480000,234.050000,349.650000,234.320000,348.640000,233.730000L286.210000,197.730000C285.203704,197.162430,284.522363,196.155230,284.370000,195.010000C284.370000,194.100000,285.200000,193.830000,286.210000,194.420000L348.640000,230.420000C349.641568,230.987852,350.321714,231.989588,350.480000,233.130000Z" fill="rgb(69,90,100)" stroke="none" stroke-width="1"/></g></g><path id="transfer-files-amico-path42" d="M300.120000,187.050000C300.061549,186.447381,300.318738,185.857360,300.800000,185.490000C300.853322,185.448406,300.910209,185.411597,300.970000,185.380000L304.550000,183.300000L304.550000,183.300000C305.119845,183.040747,305.785293,183.109587,306.290000,183.480000L377.860000,224.750000L379.950000,216.340000C380.099375,215.773916,380.456385,215.284813,380.950000,214.970000L380.950000,214.970000L384.670000,212.800000L384.670000,212.800000C385.376221,212.399552,386.246022,212.422645,386.930000,212.860000L417.380000,230.430000C418.844121,231.382095,419.765592,232.976090,419.860000,234.720000L419.860000,336.270000C419.918819,336.870467,419.665960,337.459214,419.190000,337.830000L419.190000,337.830000L415.360000,340.060000L415.360000,340.060000C414.797554,340.281505,414.161130,340.202423,413.670000,339.850000L302.550000,275.680000C301.085879,274.727905,300.164408,273.133910,300.070000,271.390000Z" fill="rgb(197,63,63)" stroke="none" stroke-width="1"/><path id="transfer-files-amico-path43" d="M381,214.930000C381.703210,214.557525,382.553127,214.595810,383.220000,215.030000L413.700000,232.600000C414.427649,233.062091,415.029015,233.697821,415.450000,234.450000L419.160000,232.290000C418.746114,231.532630,418.143227,230.895292,417.410000,230.440000L387,212.870000C386.312251,212.433065,385.439871,212.410006,384.730000,212.810000L384.730000,212.810000Z" fill="rgb(69,90,100)" stroke="none" stroke-width="1"/><path id="transfer-files-amico-path44" d="M301,185.380000C301.551445,185.206507,302.151964,185.294927,302.630000,185.620000L374.240000,227C374.829869,227.392227,375.574567,227.470301,376.232958,227.208940C376.891349,226.947579,377.379744,226.380004,377.540000,225.690000L377.870000,224.790000L306.310000,183.510000C305.979217,183.304107,305.599494,183.190190,305.210000,183.180000C304.986563,183.178306,304.766353,183.233358,304.570000,183.340000L304.570000,183.340000Z" fill="rgb(69,90,100)" stroke="none" stroke-width="1"/><path id="transfer-files-amico-path45" d="M300.120000,187.060000L300.070000,271.390000C300.164408,273.133910,301.085879,274.727905,302.550000,275.680000L414,340C414.452593,340.261310,415.010339,340.260778,415.462433,339.998605C415.914527,339.736432,416.192008,339.252608,416.190000,338.730000L416.190000,236.890000C416.162678,236.031607,415.914712,235.194722,415.470000,234.460000C415.048676,233.708070,414.447381,233.072416,413.720000,232.610000L383.260000,215C382.591138,214.572036,381.744630,214.533905,381.040000,214.900000L380.970000,214.900000L380.970000,214.900000C380.475004,215.213341,380.117552,215.703051,379.970000,216.270000L377.880000,224.670000L377.550000,225.580000C377.389744,226.270004,376.901349,226.837579,376.242958,227.098940C375.584567,227.360301,374.839869,227.282227,374.250000,226.890000L302.600000,185.630000C302.127329,185.300852,301.527800,185.212033,300.980000,185.390000L300.880000,185.450000L300.820000,185.450000L300.820000,185.450000C300.318206,185.824985,300.051993,186.437275,300.120000,187.060000Z" fill="rgb(55,71,79)" stroke="none" stroke-width="1"/><path id="transfer-files-amico-path46" d="M352.060000,268.110000C352.648501,267.837749,353.346640,268.086767,353.630000,268.670000L356.950000,275.670000L356.950000,263.220000C356.908842,262.774332,357.123363,262.343740,357.503914,262.108167C357.884465,261.872594,358.365535,261.872594,358.746086,262.108167C359.126637,262.343740,359.341158,262.774332,359.300000,263.220000L359.300000,278.220000L362.880000,274.780000C363.098286,274.556427,363.397536,274.430370,363.710000,274.430370C364.022464,274.430370,364.321714,274.556427,364.540000,274.780000C364.995001,275.239797,364.995001,275.980203,364.540000,276.440000L358.980000,281.790000C358.714073,282.045026,358.343551,282.159888,357.980000,282.100000C357.608607,282.031290,357.294629,281.784592,357.140000,281.440000L351.570000,269.670000C351.288187,269.102767,351.504461,268.414219,352.060000,268.110000Z" fill="rgb(197,63,63)" stroke="none" stroke-width="1"/><path id="transfer-files-amico-path47" d="M366.120000,270.780000C365.807968,270.782667,365.507798,270.660578,365.286213,270.440871C365.064628,270.221163,364.939989,269.922044,364.940000,269.610000L364.940000,262.530000L351.310000,254.660000L351.310000,260.390000C351.310000,261.036173,350.786173,261.560000,350.140000,261.560000C349.493827,261.560000,348.970000,261.036173,348.970000,260.390000L348.970000,252.630000C348.971635,252.217213,349.192511,251.836392,349.550000,251.630000C349.728433,251.523948,349.932435,251.468625,350.140000,251.470000C350.347435,251.469621,350.551177,251.524873,350.730000,251.630000L366.730000,260.850000C367.089856,261.055353,367.314269,261.435713,367.320000,261.850000L367.320000,269.600000C367.322817,269.917303,367.196633,270.222141,366.970380,270.444624C366.744127,270.667106,366.437211,270.788149,366.120000,270.780000Z" fill="rgb(197,63,63)" stroke="none" stroke-width="1"/><path id="transfer-files-amico-path48" d="M415.280000,340.090000C415.316127,340.098897,415.353873,340.098897,415.390000,340.090000L419.220000,337.870000C419.693214,337.488298,419.944584,336.895515,419.890000,336.290000L419.890000,234.730000C419.861363,233.867289,419.609871,233.026686,419.160000,232.290000L415.450000,234.450000L415.450000,234.450000C415.899871,235.186686,416.151363,236.027289,416.180000,236.890000L416.180000,338.750000C416.182077,339.338632,415.825682,339.869265,415.280000,340.090000Z" fill="rgb(38,50,56)" stroke="none" stroke-width="1"/></g><g id="transfer-files-amico-freepik-folder-green-inject-210"><path id="transfer-files-amico-path49" d="M195.420000,273.760000L91.320000,333.870000L85,337.520000L84.710000,337.670000C84.539448,337.754544,84.362173,337.824785,84.180000,337.880000C83.967367,337.964322,83.746001,338.024694,83.520000,338.060000C83.375443,338.097191,83.228396,338.123927,83.080000,338.140000C83.050957,338.150716,83.019043,338.150716,82.990000,338.140000C82.803473,338.150216,82.616527,338.150216,82.430000,338.140000C81.855121,338.162377,81.283964,338.038512,80.770000,337.780000C79.539681,336.860845,78.694975,335.517156,78.400000,334.010000L60.850000,242.910000C60.809900,242.712523,60.789798,242.511508,60.790000,242.310000C60.775148,242.147004,60.775148,241.982996,60.790000,241.820000L60.790000,241.820000C60.825385,241.568923,60.882260,241.321347,60.960000,241.080000C61.051200,240.834956,61.154664,240.594653,61.270000,240.360000L61.530000,239.930000C61.641454,239.776544,61.761653,239.629634,61.890000,239.490000C62.002520,239.369000,62.122773,239.255428,62.250000,239.150000C62.383568,239.044335,62.523864,238.947464,62.670000,238.860000L173.090000,175.110000C173.183479,175.054065,173.280331,175.003969,173.380000,174.960000L173.690000,174.820000C173.737816,174.797383,173.788177,174.780596,173.840000,174.770000C173.972636,174.750715,174.107364,174.750715,174.240000,174.770000C174.966737,174.924272,175.649962,175.238556,176.240000,175.690000L178.690000,177.130000L178.690000,177.130000C178.879030,177.205698,179.047087,177.325739,179.180000,177.480000C179.386877,177.691145,179.541049,177.948099,179.630000,178.230000C179.675726,178.353077,179.709221,178.480358,179.730000,178.610000L197.280000,269.740000C197.491775,271.327276,196.766915,272.893909,195.420000,273.760000Z" fill="rgb(197,63,63)" stroke="none" stroke-width="1"/><path id="transfer-files-amico-path50" d="M195.420000,273.760000L91.320000,333.870000L85,337.520000L84.710000,337.670000C84.539448,337.754544,84.362173,337.824785,84.180000,337.880000C83.967367,337.964322,83.746001,338.024694,83.520000,338.060000C83.375443,338.097191,83.228396,338.123927,83.080000,338.140000C83.050957,338.150716,83.019043,338.150716,82.990000,338.140000C82.803473,338.150216,82.616527,338.150216,82.430000,338.140000C81.855121,338.162377,81.283964,338.038512,80.770000,337.780000C79.539681,336.860845,78.694975,335.517156,78.400000,334.010000L60.850000,242.910000C60.809900,242.712523,60.789798,242.511508,60.790000,242.310000C60.775148,242.147004,60.775148,241.982996,60.790000,241.820000L60.790000,241.820000C60.825385,241.568923,60.882260,241.321347,60.960000,241.080000C61.051200,240.834956,61.154664,240.594653,61.270000,240.360000L61.530000,239.930000C61.641454,239.776544,61.761653,239.629634,61.890000,239.490000C62.002520,239.369000,62.122773,239.255428,62.250000,239.150000C62.383568,239.044335,62.523864,238.947464,62.670000,238.860000L173.090000,175.110000C173.183479,175.054065,173.280331,175.003969,173.380000,174.960000L173.690000,174.820000C173.737816,174.797383,173.788177,174.780596,173.840000,174.770000C173.972636,174.750715,174.107364,174.750715,174.240000,174.770000C174.966737,174.924272,175.649962,175.238556,176.240000,175.690000L178.690000,177.130000L178.690000,177.130000C178.879030,177.205698,179.047087,177.325739,179.180000,177.480000C179.386877,177.691145,179.541049,177.948099,179.630000,178.230000C179.675726,178.353077,179.709221,178.480358,179.730000,178.610000L197.280000,269.740000C197.491775,271.327276,196.766915,272.893909,195.420000,273.760000Z" fill="rgb(197,63,63)" stroke="none" stroke-width="1"/><path id="transfer-files-amico-path51" d="M84.700000,337.670000C83.472843,338.297792,82.031337,338.352671,80.760000,337.820000C79.529681,336.900845,78.684975,335.557156,78.390000,334.050000L60.850000,242.910000C60.711570,242.025996,60.873536,241.121104,61.310000,240.340000L65,242.480000C64.564450,243.261483,64.399225,244.164948,64.530000,245.050000L82.100000,336.200000C82.151222,336.795000,82.492643,337.326439,83.012507,337.620362C83.532371,337.914285,84.163758,337.932858,84.700000,337.670000Z" opacity="0.2" fill="rgb(0,0,0)" stroke="none" stroke-width="1"/><path id="transfer-files-amico-path52" d="M176.240000,175.630000L178.690000,177.070000L178.690000,177.070000C178.086197,176.805578,177.389439,176.865838,176.840000,177.230000L66.420000,241C65.819312,241.353034,65.327887,241.865224,65,242.480000L61.280000,240.340000L61.540000,239.910000C61.651454,239.756544,61.771653,239.609634,61.900000,239.470000C62.129782,239.225119,62.392257,239.013119,62.680000,238.840000L173.100000,175.090000C173.291903,174.977406,173.492549,174.880426,173.700000,174.800000C173.747816,174.777383,173.798177,174.760596,173.850000,174.750000C173.982636,174.730715,174.117364,174.730715,174.250000,174.750000C174.969890,174.893693,175.649310,175.194139,176.240000,175.630000Z" opacity="0.1" fill="rgb(255,255,255)" stroke="none" stroke-width="1"/><path id="transfer-files-amico-path53" d="M82.100000,336.190000L64.560000,245.060000C64.334362,243.459623,65.060663,241.874256,66.420000,241L176.840000,177.250000C177.373434,176.861710,178.074585,176.790629,178.675092,177.063964C179.275600,177.337298,179.682479,177.912723,179.740000,178.570000L197.280000,269.710000C197.509769,271.313740,196.782953,272.904138,195.420000,273.780000L85,337.520000C84.463622,337.902184,83.763878,337.968537,83.165225,337.693982C82.566572,337.419428,82.160318,336.845841,82.100000,336.190000Z" fill="rgb(197,63,63)" stroke="none" stroke-width="1"/><path id="transfer-files-amico-path54" d="M82.100000,336.190000L64.560000,245.060000C64.334362,243.459623,65.060663,241.874256,66.420000,241L176.840000,177.250000C177.373434,176.861710,178.074585,176.790629,178.675092,177.063964C179.275600,177.337298,179.682479,177.912723,179.740000,178.570000L197.280000,269.710000C197.509769,271.313740,196.782953,272.904138,195.420000,273.780000L85,337.520000C84.463622,337.902184,83.763878,337.968537,83.165225,337.693982C82.566572,337.419428,82.160318,336.845841,82.100000,336.190000Z" opacity="0.15" fill="rgb(0,0,0)" stroke="none" stroke-width="1"/><path id="transfer-files-amico-path55" d="M165.810000,270.080000L90.920000,313.320000L86.370000,316L86.160000,316.110000C86.036889,316.168577,85.909928,316.218693,85.780000,316.260000C85.624484,316.318454,85.463760,316.361984,85.300000,316.390000C85.198466,316.416366,85.094674,316.433107,84.990000,316.440000C84.967623,316.449446,84.942377,316.449446,84.920000,316.440000C84.786851,316.449927,84.653149,316.449927,84.520000,316.440000C84.103632,316.452628,83.690833,316.359749,83.320000,316.170000C82.437711,315.507970,81.832050,314.542475,81.620000,313.460000L69,247.890000C68.985216,247.747048,68.985216,247.602952,69,247.460000C68.990120,247.340203,68.990120,247.219797,69,247.100000L69,247.100000C69.019737,246.916088,69.059988,246.734962,69.120000,246.560000C69.183016,246.385733,69.256483,246.215424,69.340000,246.050000C69.400000,245.950000,69.460000,245.840000,69.530000,245.740000C69.605625,245.627887,69.692765,245.523989,69.790000,245.430000C69.863911,245.334343,69.951519,245.250104,70.050000,245.180000C70.141803,245.103518,70.238692,245.033357,70.340000,244.970000L149.780000,199.110000L150,199L150.230000,198.900000C150.263082,198.894210,150.296918,198.894210,150.330000,198.900000C150.426153,198.885909,150.523847,198.885909,150.620000,198.900000C151.133672,199.016579,151.615183,199.245382,152.030000,199.570000L153.790000,200.570000L153.790000,200.570000C153.927010,200.625687,154.049963,200.711071,154.150000,200.820000C154.296445,200.973246,154.405902,201.157955,154.470000,201.360000C154.500282,201.448054,154.523685,201.538325,154.540000,201.630000L167.160000,267.200000C167.297828,268.339181,166.773761,269.457189,165.810000,270.080000Z" fill="rgb(197,63,63)" stroke="none" stroke-width="1"/><path id="transfer-files-amico-path56" d="M165.810000,270.080000L90.920000,313.320000L86.370000,316L86.160000,316.110000C86.036889,316.168577,85.909928,316.218693,85.780000,316.260000C85.624484,316.318454,85.463760,316.361984,85.300000,316.390000C85.198466,316.416366,85.094674,316.433107,84.990000,316.440000C84.967623,316.449446,84.942377,316.449446,84.920000,316.440000C84.786851,316.449927,84.653149,316.449927,84.520000,316.440000C84.103632,316.452628,83.690833,316.359749,83.320000,316.170000C82.437711,315.507970,81.832050,314.542475,81.620000,313.460000L69,247.890000C68.985216,247.747048,68.985216,247.602952,69,247.460000C68.990120,247.340203,68.990120,247.219797,69,247.100000L69,247.100000C69.019737,246.916088,69.059988,246.734962,69.120000,246.560000C69.183016,246.385733,69.256483,246.215424,69.340000,246.050000C69.400000,245.950000,69.460000,245.840000,69.530000,245.740000C69.605625,245.627887,69.692765,245.523989,69.790000,245.430000C69.863911,245.334343,69.951519,245.250104,70.050000,245.180000C70.141803,245.103518,70.238692,245.033357,70.340000,244.970000L149.780000,199.110000L150,199L150.230000,198.900000C150.263082,198.894210,150.296918,198.894210,150.330000,198.900000C150.426153,198.885909,150.523847,198.885909,150.620000,198.900000C151.133672,199.016579,151.615183,199.245382,152.030000,199.570000L153.790000,200.570000L153.790000,200.570000C153.927010,200.625687,154.049963,200.711071,154.150000,200.820000C154.296445,200.973246,154.405902,201.157955,154.470000,201.360000C154.500282,201.448054,154.523685,201.538325,154.540000,201.630000L167.160000,267.200000C167.297828,268.339181,166.773761,269.457189,165.810000,270.080000Z" fill="rgb(197,63,63)" stroke="none" stroke-width="1"/><path id="transfer-files-amico-path57" d="M86.160000,316.060000C85.274012,316.509004,84.235375,316.545576,83.320000,316.160000C82.437711,315.497970,81.832050,314.532475,81.620000,313.450000L69,247.890000C68.909037,247.253906,69.024714,246.605412,69.330000,246.040000L72,247.580000C71.684270,248.141763,71.564641,248.792685,71.660000,249.430000L84.290000,315C84.325165,315.428848,84.570252,315.812512,84.944582,316.024699C85.318913,316.236886,85.773985,316.250104,86.160000,316.060000Z" fill="rgb(224,224,224)" stroke="none" stroke-width="1"/><path id="transfer-files-amico-path58" d="M152,199.490000L153.760000,200.490000L153.760000,200.490000C153.329295,200.296383,152.828729,200.341889,152.440000,200.610000L73,246.510000C72.570668,246.763033,72.223451,247.134555,72,247.580000L69.330000,246C69.390000,245.900000,69.450000,245.790000,69.520000,245.690000C69.595625,245.577887,69.682765,245.473989,69.780000,245.380000C69.939265,245.199991,70.124667,245.044928,70.330000,244.920000L149.770000,199.060000C149.911681,198.979999,150.058694,198.909834,150.210000,198.850000C150.243082,198.844210,150.276918,198.844210,150.310000,198.850000C150.406153,198.835909,150.503847,198.835909,150.600000,198.850000C151.107655,198.958987,151.585427,199.177397,152,199.490000Z" fill="rgb(250,250,250)" stroke="none" stroke-width="1"/><path id="transfer-files-amico-path59" d="M84.290000,315L71.670000,249.430000C71.511847,248.281439,72.029672,247.144561,73,246.510000L152.430000,200.640000C152.821625,200.357687,153.336130,200.311691,153.771622,200.520060C154.207114,200.728429,154.494113,201.157921,154.520000,201.640000L167.130000,267.210000C167.288153,268.358561,166.770328,269.495439,165.800000,270.130000L86.370000,316C85.978597,316.276864,85.467850,316.319740,85.035766,316.112007C84.603681,315.904275,84.318201,315.478596,84.290000,315Z" fill="rgb(245,245,245)" stroke="none" stroke-width="1"/><g id="transfer-files-amico-freepik-document-inject-2102" transform="matrix(1 0 0 1 -5.35441589499996 20.98449402000003)"><path id="transfer-files-amico-path60" d="M143,250.800000C142.393387,250.384846,142.021751,249.704751,142,248.970000L142,129.740000C142.038609,128.979340,142.440436,128.283584,143.080000,127.870000L218,84.630000C218.633928,84.210125,219.451113,84.186039,220.108670,84.567846C220.766227,84.949654,221.150403,85.671305,221.100000,86.430000L221.100000,205.660000C221.061391,206.420660,220.659564,207.116416,220.020000,207.530000L145.150000,250.770000C144.481508,251.131552,143.678320,251.142759,143,250.800000Z" fill="rgb(235,235,235)" stroke="none" stroke-width="1"/><path id="transfer-files-amico-path61" d="M221.090000,86.240000C220.990000,85.690000,220.550000,85.500000,220.020000,85.810000L145.130000,129C144.809488,129.198034,144.547238,129.477537,144.370000,129.810000L142.370000,128.640000C142.556175,128.308124,142.820477,128.026659,143.140000,127.820000L218,84.640000C218.659933,84.305056,219.440067,84.305056,220.100000,84.640000C220.631465,85.018754,220.988242,85.595365,221.090000,86.240000Z" fill="rgb(250,250,250)" stroke="none" stroke-width="1"/><path id="transfer-files-amico-path62" d="M145,250.840000C144.367235,251.140673,143.632765,251.140673,143,250.840000C142.393387,250.424846,142.021751,249.744751,142,249.010000L142,129.740000C142.012821,129.366263,142.119424,129.001752,142.310000,128.680000L144.310000,129.850000C144.112189,130.169142,144.001828,130.534712,143.990000,130.910000L143.990000,250.140000C144.050000,250.770000,144.470000,251.070000,145,250.840000Z" fill="rgb(224,224,224)" stroke="none" stroke-width="1"/><path id="transfer-files-amico-path63" d="M145.140000,250.770000L220,207.530000C220.639564,207.116416,221.041391,206.420660,221.080000,205.660000L221.080000,86.430000C221.080000,85.740000,220.600000,85.430000,220,85.810000L145.140000,129C144.500436,129.413584,144.098609,130.109340,144.060000,130.870000L144.060000,250.140000C144.060000,250.830000,144.540000,251.110000,145.140000,250.770000Z" fill="rgb(245,245,245)" stroke="none" stroke-width="1"/><g id="transfer-files-amico-g10" opacity="0.3"><path id="transfer-files-amico-path64" d="M149.520000,183.350000C149.520000,184.270000,150.350000,184.540000,151.360000,183.950000L213.790000,147.950000C214.793055,147.378921,215.473174,146.373527,215.630000,145.230000C215.630000,144.310000,214.800000,144.040000,213.790000,144.630000L151.360000,180.630000C150.356945,181.201079,149.676826,182.206473,149.520000,183.350000Z" fill="rgb(69,90,100)" stroke="none" stroke-width="1"/><path id="transfer-files-amico-path65" d="M149.520000,193.310000C149.520000,194.220000,150.350000,194.490000,151.360000,193.910000L213.790000,157.910000C214.796296,157.342430,215.477637,156.335230,215.630000,155.190000C215.630000,154.270000,214.800000,154.010000,213.790000,154.590000L151.360000,190.640000C150.366481,191.197250,149.687034,192.183188,149.520000,193.310000Z" fill="rgb(69,90,100)" stroke="none" stroke-width="1"/><path id="transfer-files-amico-path66" d="M149.520000,203.260000C149.520000,204.180000,150.350000,204.450000,151.360000,203.860000L213.790000,167.860000C214.793055,167.288921,215.473174,166.283527,215.630000,165.140000C215.630000,164.220000,214.800000,163.950000,213.790000,164.540000L151.360000,200.540000C150.356945,201.111079,149.676826,202.116473,149.520000,203.260000Z" fill="rgb(69,90,100)" stroke="none" stroke-width="1"/><path id="transfer-files-amico-path67" d="M149.520000,213.220000C149.520000,214.140000,150.350000,214.400000,151.360000,213.820000L213.790000,177.820000C214.796296,177.252430,215.477637,176.245230,215.630000,175.100000C215.630000,174.190000,214.800000,173.920000,213.790000,174.500000L151.360000,210.500000C150.353704,211.067570,149.672363,212.074770,149.520000,213.220000Z" fill="rgb(69,90,100)" stroke="none" stroke-width="1"/><path id="transfer-files-amico-path68" d="M149.520000,153.480000C149.520000,154.400000,150.350000,154.670000,151.360000,154.080000L213.790000,118.080000C214.793055,117.508921,215.473174,116.503527,215.630000,115.360000C215.630000,114.440000,214.800000,114.170000,213.790000,114.760000L151.360000,150.760000C150.356945,151.331079,149.676826,152.336473,149.520000,153.480000Z" fill="rgb(69,90,100)" stroke="none" stroke-width="1"/><path id="transfer-files-amico-path69" d="M149.520000,163.440000C149.520000,164.360000,150.350000,164.620000,151.360000,164.040000L213.790000,128.040000C214.796296,127.472430,215.477637,126.465230,215.630000,125.320000C215.630000,124.410000,214.800000,124.140000,213.790000,124.730000L151.360000,160.730000C150.358432,161.297852,149.678286,162.299588,149.520000,163.440000Z" fill="rgb(69,90,100)" stroke="none" stroke-width="1"/><path id="transfer-files-amico-path70" d="M149.520000,143.540000C149.520000,144.460000,150.350000,144.730000,151.360000,144.140000L213.790000,108.140000C214.793055,107.568921,215.473174,106.563527,215.630000,105.420000C215.630000,104.500000,214.800000,104.230000,213.790000,104.820000L151.360000,140.820000C150.356945,141.391079,149.676826,142.396473,149.520000,143.540000Z" fill="rgb(69,90,100)" stroke="none" stroke-width="1"/><path id="transfer-files-amico-path71" d="M149.520000,173.400000C149.520000,174.310000,150.350000,174.580000,151.360000,173.990000L213.790000,137.990000C214.794129,137.420083,215.474652,136.414092,215.630000,135.270000C215.630000,134.350000,214.800000,134.080000,213.790000,134.670000L151.360000,170.670000C150.354382,171.243145,149.673886,172.252794,149.520000,173.400000Z" fill="rgb(69,90,100)" stroke="none" stroke-width="1"/><path id="transfer-files-amico-path72" d="M149.520000,223.180000C149.520000,224.090000,150.350000,224.360000,151.360000,223.770000L213.790000,187.770000C214.793055,187.198921,215.473174,186.193527,215.630000,185.050000C215.630000,184.130000,214.800000,183.860000,213.790000,184.450000L151.360000,220.450000C150.354382,221.023145,149.673886,222.032794,149.520000,223.180000Z" fill="rgb(69,90,100)" stroke="none" stroke-width="1"/><path id="transfer-files-amico-path73" d="M149.520000,233.130000C149.520000,234.050000,150.350000,234.320000,151.360000,233.730000L213.790000,197.730000C214.796296,197.162430,215.477637,196.155230,215.630000,195.010000C215.630000,194.100000,214.800000,193.830000,213.790000,194.420000L151.360000,230.420000C150.358432,230.987852,149.678286,231.989588,149.520000,233.130000Z" fill="rgb(69,90,100)" stroke="none" stroke-width="1"/></g></g><path id="transfer-files-amico-path74" d="M199.880000,187.050000C199.938451,186.447381,199.681262,185.857360,199.200000,185.490000C199.146678,185.448406,199.089791,185.411597,199.030000,185.380000L195.450000,183.300000L195.450000,183.300000C194.880155,183.040747,194.214707,183.109587,193.710000,183.480000L122.140000,224.750000L120,216.330000C119.850625,215.763916,119.493615,215.274813,119,214.960000L119,214.960000L115.280000,212.790000L115.280000,212.790000C114.573779,212.389552,113.703978,212.412645,113.020000,212.850000L82.590000,230.440000C81.125879,231.392095,80.204408,232.986090,80.110000,234.730000L80.110000,336.270000C80.051181,336.870467,80.304040,337.459214,80.780000,337.830000L80.780000,337.830000L84.610000,340.060000L84.610000,340.060000C85.172446,340.281505,85.808870,340.202423,86.300000,339.850000L197.450000,275.680000C198.914121,274.727905,199.835592,273.133910,199.930000,271.390000Z" fill="rgb(197,63,63)" stroke="none" stroke-width="1"/><path id="transfer-files-amico-path75" d="M119,214.930000C118.296790,214.557525,117.446873,214.595810,116.780000,215.030000L86.300000,232.600000C85.572351,233.062091,84.970985,233.697821,84.550000,234.450000L80.840000,232.290000C81.253886,231.532630,81.856773,230.895292,82.590000,230.440000L113,212.870000C113.687749,212.433065,114.560129,212.410006,115.270000,212.810000L115.270000,212.810000Z" opacity="0.4" fill="rgb(255,255,255)" stroke="none" stroke-width="1"/><path id="transfer-files-amico-path76" d="M199,185.380000C198.448555,185.206507,197.848036,185.294927,197.370000,185.620000L125.770000,227C125.178517,227.391728,124.432899,227.469593,123.773244,227.208521C123.113589,226.947449,122.623205,226.380411,122.460000,225.690000L122.130000,224.790000L193.700000,183.510000C194.026646,183.303106,194.403449,183.189028,194.790000,183.180000C195.013437,183.178306,195.233647,183.233358,195.430000,183.340000L195.430000,183.340000Z" opacity="0.4" fill="rgb(255,255,255)" stroke="none" stroke-width="1"/><path id="transfer-files-amico-path77" d="M199.880000,187.060000L199.930000,271.390000C199.835592,273.133910,198.914121,274.727905,197.450000,275.680000L86,340C85.547407,340.261310,84.989661,340.260778,84.537567,339.998605C84.085473,339.736432,83.807992,339.252608,83.810000,338.730000L83.810000,236.890000C83.837322,236.031607,84.085288,235.194722,84.530000,234.460000C84.951324,233.708070,85.552619,233.072416,86.280000,232.610000L116.740000,215C117.408862,214.572036,118.255370,214.533905,118.960000,214.900000L119.030000,214.900000L119.030000,214.900000C119.524996,215.213341,119.882448,215.703051,120.030000,216.270000L122.120000,224.670000L122.450000,225.580000C122.610256,226.270004,123.098651,226.837579,123.757042,227.098940C124.415433,227.360301,125.160131,227.282227,125.750000,226.890000L197.390000,185.560000C197.862671,185.230852,198.462200,185.142033,199.010000,185.320000L199.110000,185.380000L199.170000,185.380000L199.170000,185.380000C199.699180,185.765576,199.972280,186.411784,199.880000,187.060000Z" fill="rgb(197,63,63)" stroke="none" stroke-width="1"/><path id="transfer-files-amico-path78" d="M135.810000,265.470000C135.967293,265.540770,136.137529,265.578222,136.310000,265.580000C136.762584,265.578428,137.174393,265.318133,137.370000,264.910000L140.700000,257.860000L140.700000,270.360000C140.756064,270.967069,141.265347,271.431487,141.875000,271.431487C142.484653,271.431487,142.993936,270.967069,143.050000,270.360000L143.050000,255.360000L146.620000,258.800000C147.086681,259.250112,147.829888,259.236681,148.280000,258.770000C148.730112,258.303319,148.716681,257.560112,148.250000,257.110000L142.690000,251.760000C142.417106,251.498312,142.035340,251.383240,141.663287,251.450526C141.291233,251.517812,140.973953,251.759308,140.810000,252.100000L135.250000,263.880000C135.107188,264.164134,135.086185,264.494159,135.191826,264.794105C135.297468,265.094051,135.520651,265.338074,135.810000,265.470000Z" fill="rgb(38,50,56)" stroke="none" stroke-width="1"/><path id="transfer-files-amico-path79" d="M149.860000,261.790000C149.549697,261.790000,149.252103,261.913268,149.032685,262.132685C148.813268,262.352103,148.690000,262.649697,148.690000,262.960000L148.690000,270L135.060000,277.870000L135.060000,272.150000C135.003936,271.542931,134.494653,271.078513,133.885000,271.078513C133.275347,271.078513,132.766064,271.542931,132.710000,272.150000L132.710000,279.900000C132.715731,280.314287,132.940144,280.694647,133.300000,280.900000C133.660858,281.113215,134.109142,281.113215,134.470000,280.900000L150.470000,271.670000C150.827489,271.463608,151.048365,271.082787,151.050000,270.670000L151.050000,263C151.061020,262.679324,150.939858,262.368194,150.714870,262.139425C150.489883,261.910656,150.180815,261.784326,149.860000,261.790000Z" fill="rgb(38,50,56)" stroke="none" stroke-width="1"/><path id="transfer-files-amico-path80" d="M84.720000,340.090000C84.683873,340.098897,84.646127,340.098897,84.610000,340.090000L80.780000,337.870000C80.306786,337.488298,80.055416,336.895515,80.110000,336.290000L80.110000,234.730000C80.138637,233.867289,80.390129,233.026686,80.840000,232.290000L84.550000,234.450000L84.550000,234.450000C84.100129,235.186686,83.848637,236.027289,83.820000,236.890000L83.820000,338.750000C83.817923,339.338632,84.174318,339.869265,84.720000,340.090000Z" opacity="0.2" fill="rgb(0,0,0)" stroke="none" stroke-width="1"/></g></g><g id="transfer-files-amico-freepik-arrow-inject-210"><g id="transfer-files-amico-freepik-arrow-inject-2102"><polygon id="transfer-files-amico-polygon53" points="304.120000,315.250000 304.120000,322.870000 333.470000,354.690000 333.470000,347.070000 304.120000,315.250000" fill="rgb(197,63,63)" stroke="none" stroke-width="1"/><polygon id="transfer-files-amico-polygon54" points="304.120000,315.250000 304.120000,322.870000 333.470000,354.690000 333.470000,347.070000 304.120000,315.250000" opacity="0.15" fill="rgb(0,0,0)" stroke="none" stroke-width="1"/><polygon id="transfer-files-amico-polygon55" points="336.310000,321.040000 336.310000,313.420000 333.470000,347.070000 333.470000,354.690000 336.310000,321.040000" fill="rgb(197,63,63)" stroke="none" stroke-width="1"/><polygon id="transfer-files-amico-polygon56" points="336.310000,321.040000 336.310000,313.420000 333.470000,347.070000 333.470000,354.690000 336.310000,321.040000" opacity="0.2" fill="rgb(0,0,0)" stroke="none" stroke-width="1"/><path id="transfer-files-amico-path81" d="M237.450000,366.630000C203.230000,363.760000,171.830000,350,156.370000,330L156.960000,323L168.960000,320.230000C184.700000,340.580000,223.190000,353.460000,260.500000,350.850000C282.570000,349.300000,301.630000,342.520000,312.770000,332.240000L324.200000,337L323.620000,344C309.620000,356.880000,287.620000,365,261.620000,366.800000C253.570884,367.362889,245.490402,367.306055,237.450000,366.630000Z" fill="rgb(197,63,63)" stroke="none" stroke-width="1"/><g id="transfer-files-amico-g11" opacity="0.15"><path id="transfer-files-amico-path82" d="M237.450000,366.630000C203.230000,363.760000,171.830000,350,156.370000,330L156.960000,323L168.960000,320.230000C184.700000,340.580000,223.190000,353.460000,260.500000,350.850000C282.570000,349.300000,301.630000,342.520000,312.770000,332.240000L324.200000,337L323.620000,344C309.620000,356.880000,287.620000,365,261.620000,366.800000C253.570884,367.362889,245.490402,367.306055,237.450000,366.630000Z" fill="rgb(0,0,0)" stroke="none" stroke-width="1"/></g><path id="transfer-files-amico-path83" d="M336.310000,313.420000L304.120000,315.250000L313.390000,325.300000C302.240000,335.580000,283.190000,342.360000,261.110000,343.910000C223.810000,346.520000,185.310000,333.640000,169.580000,313.290000L157,323.050000C172.460000,343.050000,203.860000,356.770000,238.080000,359.640000C246.126777,360.320452,254.213988,360.380630,262.270000,359.820000C288.270000,358,310.270000,349.900000,324.270000,337.020000L333.540000,347.070000Z" fill="rgb(197,63,63)" stroke="none" stroke-width="1"/></g></g><script><![CDATA[!function(t,n){"object"==typeof exports&&"undefined"!=typeof module?module.exports=n():"function"==typeof define&&define.amd?define(n):(t=t||self).__SVGATOR_PLAYER__=n()}(this,(function(){"use strict";function t(n){return(t="function"==typeof Symbol&&"symbol"==typeof Symbol.iterator?function(t){return typeof t}:function(t){return t&&"function"==typeof Symbol&&t.constructor===Symbol&&t!==Symbol.prototype?"symbol":typeof t})(n)}function n(t,n){if(!(t instanceof n))throw new TypeError("Cannot call a class as a function")}function r(t,n){for(var r=0;r<n.length;r++){var e=n[r];e.enumerable=e.enumerable||!1,e.configurable=!0,"value"in e&&(e.writable=!0),Object.defineProperty(t,e.key,e)}}function e(t,n,e){return n&&r(t.prototype,n),e&&r(t,e),t}function i(t){return(i=Object.setPrototypeOf?Object.getPrototypeOf:function(t){return t.__proto__||Object.getPrototypeOf(t)})(t)}function o(t,n){return(o=Object.setPrototypeOf||function(t,n){return t.__proto__=n,t})(t,n)}function u(t,n){return!n||"object"!=typeof n&&"function"!=typeof n?function(t){if(void 0===t)throw new ReferenceError("this hasn't been initialised - super() hasn't been called");return t}(t):n}function a(t){var n=function(){if("undefined"==typeof Reflect||!Reflect.construct)return!1;if(Reflect.construct.sham)return!1;if("function"==typeof Proxy)return!0;try{return Date.prototype.toString.call(Reflect.construct(Date,[],(function(){}))),!0}catch(t){return!1}}();return function(){var r,e=i(t);if(n){var o=i(this).constructor;r=Reflect.construct(e,arguments,o)}else r=e.apply(this,arguments);return u(this,r)}}function l(t,n,r){return(l="undefined"!=typeof Reflect&&Reflect.get?Reflect.get:function(t,n,r){var e=function(t,n){for(;!Object.prototype.hasOwnProperty.call(t,n)&&null!==(t=i(t)););return t}(t,n);if(e){var o=Object.getOwnPropertyDescriptor(e,n);return o.get?o.get.call(r):o.value}})(t,n,r||t)}var f=Math.abs;function s(t){return t}function c(t,n,r){var e=1-r;return 3*r*e*(t*e+n*r)+r*r*r}function h(){var t=arguments.length>0&&void 0!==arguments[0]?arguments[0]:0,n=arguments.length>1&&void 0!==arguments[1]?arguments[1]:0,r=arguments.length>2&&void 0!==arguments[2]?arguments[2]:1,e=arguments.length>3&&void 0!==arguments[3]?arguments[3]:1;return t<0||t>1||r<0||r>1?null:f(t-n)<=1e-5&&f(r-e)<=1e-5?s:function(i){if(i<=0)return t>0?i*n/t:0===n&&r>0?i*e/r:0;if(i>=1)return r<1?1+(i-1)*(e-1)/(r-1):1===r&&t<1?1+(i-1)*(n-1)/(t-1):1;for(var o,u=0,a=1;u<a;){var l=c(t,r,o=(u+a)/2);if(f(i-l)<1e-5)break;l<i?u=o:a=o}return c(n,e,o)}}function v(){return 1}function y(t){return 1===t?1:0}function d(){var t=arguments.length>0&&void 0!==arguments[0]?arguments[0]:1,n=arguments.length>1&&void 0!==arguments[1]?arguments[1]:0;if(1===t){if(0===n)return y;if(1===n)return v}var r=1/t;return function(t){return t>=1?1:(t+=n*r)-t%r}}function g(t){var n=arguments.length>1&&void 0!==arguments[1]?arguments[1]:2;if(Number.isInteger(t))return t;var r=Math.pow(10,n);return Math.round(t*r)/r}var p=Math.PI/180;function m(t,n,r){return t>=.5?r:n}function b(t,n,r){return 0===t||n===r?n:t*(r-n)+n}function w(t,n,r){var e=b(t,n,r);return e<=0?0:e}function k(t,n,r){return 0===t?n:1===t?r:{x:b(t,n.x,r.x),y:b(t,n.y,r.y)}}function x(t,n,r){var e=function(t,n,r){return Math.round(b(t,n,r))}(t,n,r);return e<=0?0:e>=255?255:e}function A(t,n,r){return 0===t?n:1===t?r:{r:x(t,n.r,r.r),g:x(t,n.g,r.g),b:x(t,n.b,r.b),a:b(t,null==n.a?1:n.a,null==r.a?1:r.a)}}function _(t,n,r){if(0===t)return n;if(1===t)return r;var e=n.length;if(e!==r.length)return m(t,n,r);for(var i=[],o=0;o<e;o++)i.push(A(t,n[o],r[o]));return i}function S(t,n){for(var r=[],e=0;e<t;e++)r.push(n);return r}function O(t,n){if(--n<=0)return t;var r=(t=Object.assign([],t)).length;do{for(var e=0;e<r;e++)t.push(t[e])}while(--n>0);return t}var M,j=function(){function t(r){n(this,t),this.list=r,this.length=r.length}return e(t,[{key:"setAttribute",value:function(t,n){for(var r=this.list,e=0;e<this.length;e++)r[e].setAttribute(t,n)}},{key:"removeAttribute",value:function(t){for(var n=this.list,r=0;r<this.length;r++)n[r].removeAttribute(t)}},{key:"style",value:function(t,n){for(var r=this.list,e=0;e<this.length;e++)r[e].style[t]=n}}]),t}(),F=/-./g,P=function(t,n){return n.toUpperCase()};function q(t){return"function"==typeof t?t:m}function B(t){return t?"function"==typeof t?t:Array.isArray(t)?function(t){var n=arguments.length>1&&void 0!==arguments[1]?arguments[1]:s;if(!Array.isArray(t))return n;switch(t.length){case 1:return d(t[0])||n;case 2:return d(t[0],t[1])||n;case 4:return h(t[0],t[1],t[2],t[3])||n}return n}(t,null):function(t,n){var r=arguments.length>2&&void 0!==arguments[2]?arguments[2]:s;switch(t){case"linear":return s;case"steps":return d(n.steps||1,n.jump||0)||r;case"bezier":case"cubic-bezier":return h(n.x1||0,n.y1||0,n.x2||0,n.y2||0)||r}return r}(t.type,t.value,null):null}function I(t,n,r){var e=arguments.length>3&&void 0!==arguments[3]&&arguments[3],i=n.length-1;if(t<=n[0].t)return e?[0,0,n[0].v]:n[0].v;if(t>=n[i].t)return e?[i,1,n[i].v]:n[i].v;var o,u=n[0],a=null;for(o=1;o<=i;o++){if(!(t>n[o].t)){a=n[o];break}u=n[o]}return null==a?e?[i,1,n[i].v]:n[i].v:u.t===a.t?e?[o,1,a.v]:a.v:(t=(t-u.t)/(a.t-u.t),u.e&&(t=u.e(t)),e?[o,t,r(t,u.v,a.v)]:r(t,u.v,a.v))}function R(t,n){var r=arguments.length>2&&void 0!==arguments[2]?arguments[2]:null;return t&&t.length?"function"!=typeof n?null:("function"!=typeof r&&(r=null),function(e){var i=I(e,t,n);return null!=i&&r&&(i=r(i)),i}):null}function E(t,n){return t.t-n.t}function T(n,r,e,i,o){var u,a="@"===e[0],l="#"===e[0],f=M[e],s=m;switch(a?(u=e.substr(1),e=u.replace(F,P)):l&&(e=e.substr(1)),t(f)){case"function":if(s=f(i,o,I,B,e,a,r,n),l)return s;break;case"string":s=R(i,q(f));break;case"object":if((s=R(i,q(f.i),f.f))&&"function"==typeof f.u)return f.u(r,s,e,a,n)}return s?function(t,n,r){var e=arguments.length>3&&void 0!==arguments[3]&&arguments[3];if(e)return t instanceof j?function(e){return t.style(n,r(e))}:function(e){return t.style[n]=r(e)};if(Array.isArray(n)){var i=n.length;return function(e){var o=r(e);if(null==o)for(var u=0;u<i;u++)t[u].removeAttribute(n);else for(var a=0;a<i;a++)t[a].setAttribute(n,o)}}return function(e){var i=r(e);null==i?t.removeAttribute(n):t.setAttribute(n,i)}}(r,e,s,a):null}function z(n,r,e,i){if(!i||"object"!==t(i))return null;var o=null,u=null;return Array.isArray(i)?u=function(t){if(!t||!t.length)return null;for(var n=0;n<t.length;n++)t[n].e&&(t[n].e=B(t[n].e));return t.sort(E)}(i):(u=i.keys,o=i.data||null),u?T(n,r,e,u,o):null}function C(t,n,r){if(!r)return null;var e=[];for(var i in r)if(r.hasOwnProperty(i)){var o=z(t,n,i,r[i]);o&&e.push(o)}return e.length?e:null}function D(t,n){if(!n.duration||n.duration<0)return null;var r=function(t,n){if(!n)return null;var r=[];if(Array.isArray(n))for(var e=n.length,i=0;i<e;i++){var o=n[i];if(2===o.length){var u=null;if("string"==typeof o[0])u=t.getElementById(o[0]);else if(Array.isArray(o[0])){u=[];for(var a=0;a<o[0].length;a++)if("string"==typeof o[0][a]){var l=t.getElementById(o[0][a]);l&&u.push(l)}u=u.length?1===u.length?u[0]:new j(u):null}if(u){var f=C(t,u,o[1]);f&&(r=r.concat(f))}}}else for(var s in n)if(n.hasOwnProperty(s)){var c=t.getElementById(s);if(c){var h=C(t,c,n[s]);h&&(r=r.concat(h))}}return r.length?r:null}(t,n.elements);return r?function(t,n){var r=arguments.length>2&&void 0!==arguments[2]?arguments[2]:1/0,e=arguments.length>3&&void 0!==arguments[3]?arguments[3]:1,i=arguments.length>4&&void 0!==arguments[4]&&arguments[4],o=arguments.length>5&&void 0!==arguments[5]?arguments[5]:1,u=t.length,a=e>0?n:0;i&&r%2==0&&(a=n-a);var l=null;return function(f,s){var c=f%n,h=1+(f-c)/n;s*=e,i&&h%2==0&&(s=-s);var v=!1;if(h>r)c=a,v=!0,-1===o&&(c=e>0?0:n);else if(s<0&&(c=n-c),c===l)return!1;l=c;for(var y=0;y<u;y++)t[y](c);return v}}(r,n.duration,n.iterations||1/0,n.direction||1,!!n.alternate,n.fill||1):null}function N(t,n){if(M=n,!t||!t.root||!Array.isArray(t.animations))return null;for(var r=document.getElementsByTagName("svg"),e=!1,i=0;i<r.length;i++)if(r[i].id===t.root&&!r[i].svgatorAnimation){(e=r[i]).svgatorAnimation=!0;break}if(!e)return null;var o=t.animations.map((function(t){return D(e,t)})).filter((function(t){return!!t}));return o.length?{element:e,animations:o,animationSettings:t.animationSettings,options:t.options||void 0}:null}var L=function(){function t(r,e){var i=arguments.length>2&&void 0!==arguments[2]?arguments[2]:{};n(this,t),this._id=0,this._running=!1,this._rollingBack=!1,this._animations=r,this.duration=e.duration,this.alternate=e.alternate,this.fill=e.fill,this.iterations=e.iterations,this.direction=i.direction||1,this.speed=i.speed||1,this.fps=i.fps||100,this.offset=i.offset||0,this.rollbackStartOffset=0}return e(t,[{key:"_rollback",value:function(){var t=this,n=1/0,r=null;this.rollbackStartOffset=this.offset,this._rollingBack||(this._rollingBack=!0,this._running=!0);this._id=window.requestAnimationFrame((function e(i){if(t._rollingBack){null==r&&(r=i);var o=i-r,u=t.rollbackStartOffset-o,a=Math.round(u*t.speed);if(a>t.duration&&n!=1/0){var l=!!t.alternate&&a/t.duration%2>1,f=a%t.duration;a=(f+=l?t.duration:0)||t.duration}var s=t.fps?1e3/t.fps:0,c=Math.max(0,a);if(c<n-s){t.offset=c,n=c;for(var h=t._animations,v=h.length,y=0;y<v;y++)h[y](c,t.direction)}var d=!1;if(t.iterations>0&&-1===t.fill){var g=t.iterations*t.duration,p=g==a;a=p?0:a,t.offset=p?0:t.offset,d=a>g}a>0&&t.offset>=a&&!d?t._id=window.requestAnimationFrame(e):t.stop()}}))}},{key:"_start",value:function(){var t=this,n=arguments.length>0&&void 0!==arguments[0]?arguments[0]:0,r=-1/0,e=null,i={},o=function o(u){t._running=!0,null==e&&(e=u);var a=Math.round((u-e+n)*t.speed),l=t.fps?1e3/t.fps:0;if(a>r+l&&!t._rollingBack){t.offset=a,r=a;for(var f=t._animations,s=f.length,c=0,h=0;h<s;h++)i[h]?c++:(i[h]=f[h](a,t.direction),i[h]&&c++);if(c===s)return void t._stop()}t._id=window.requestAnimationFrame(o)};this._id=window.requestAnimationFrame(o)}},{key:"_stop",value:function(){this._id&&window.cancelAnimationFrame(this._id),this._running=!1,this._rollingBack=!1}},{key:"play",value:function(){!this._rollingBack&&this._running||(this._rollingBack=!1,this.rollbackStartOffset>this.duration&&(this.offset=this.rollbackStartOffset-(this.rollbackStartOffset-this.offset)%this.duration,this.rollbackStartOffset=0),this._start(this.offset))}},{key:"stop",value:function(){this._stop(),this.offset=0,this.rollbackStartOffset=0;var t=this.direction,n=this._animations;window.requestAnimationFrame((function(){for(var r=0;r<n.length;r++)n[r](0,t)}))}},{key:"reachedToEnd",value:function(){return this.iterations>0&&this.offset>=this.iterations*this.duration}},{key:"restart",value:function(){this._stop(),this.offset=0,this._start()}},{key:"pause",value:function(){this._stop()}},{key:"reverse",value:function(){this.direction=-this.direction}}],[{key:"build",value:function(n,r){return(n=N(n,r))?{el:n.element,options:n.options||{},player:new t(n.animations,n.animationSettings,n.options)}:null}}]),t}();!function(){for(var t=0,n=["ms","moz","webkit","o"],r=0;r<n.length&&!window.requestAnimationFrame;++r)window.requestAnimationFrame=window[n[r]+"RequestAnimationFrame"],window.cancelAnimationFrame=window[n[r]+"CancelAnimationFrame"]||window[n[r]+"CancelRequestAnimationFrame"];window.requestAnimationFrame||(window.requestAnimationFrame=function(n){var r=Date.now(),e=Math.max(0,16-(r-t)),i=window.setTimeout((function(){n(r+e)}),e);return t=r+e,i},window.cancelAnimationFrame=window.clearTimeout)}();var V=/\.0+$/g;function $(t){return Number.isInteger(t)?t+"":t.toFixed(6).replace(V,"")}function G(t){var n=arguments.length>1&&void 0!==arguments[1]?arguments[1]:" ";return t&&t.length?t.map($).join(n):""}function H(t){return t?null==t.a||t.a>=1?"rgb("+t.r+","+t.g+","+t.b+")":"rgba("+t.r+","+t.g+","+t.b+","+t.a+")":"transparent"}var Q={f:null,i:function(t,n,r){return 0===t?n:1===t?r:{x:w(t,n.x,r.x),y:w(t,n.y,r.y)}},u:function(t,n){return function(r){var e=n(r);t.setAttribute("rx",$(e.x)),t.setAttribute("ry",$(e.y))}}},U={f:null,i:function(t,n,r){return 0===t?n:1===t?r:{width:w(t,n.width,r.width),height:w(t,n.height,r.height)}},u:function(t,n){return function(r){var e=n(r);t.setAttribute("width",$(e.width)),t.setAttribute("height",$(e.height))}}},Y=Math.sin,Z=Math.cos,J=Math.acos,K=Math.asin,W=Math.tan,X=Math.atan2,tt=Math.PI/180,nt=180/Math.PI,rt=Math.sqrt,et=function(){function t(){var r=arguments.length>0&&void 0!==arguments[0]?arguments[0]:1,e=arguments.length>1&&void 0!==arguments[1]?arguments[1]:0,i=arguments.length>2&&void 0!==arguments[2]?arguments[2]:0,o=arguments.length>3&&void 0!==arguments[3]?arguments[3]:1,u=arguments.length>4&&void 0!==arguments[4]?arguments[4]:0,a=arguments.length>5&&void 0!==arguments[5]?arguments[5]:0;n(this,t),this.m=[r,e,i,o,u,a],this.i=null,this.w=null,this.s=null}return e(t,[{key:"point",value:function(t,n){var r=this.m;return{x:r[0]*t+r[2]*n+r[4],y:r[1]*t+r[3]*n+r[5]}}},{key:"translateSelf",value:function(){var t=arguments.length>0&&void 0!==arguments[0]?arguments[0]:0,n=arguments.length>1&&void 0!==arguments[1]?arguments[1]:0;if(!t&&!n)return this;var r=this.m;return r[4]+=r[0]*t+r[2]*n,r[5]+=r[1]*t+r[3]*n,this.w=this.s=this.i=null,this}},{key:"rotateSelf",value:function(){var t=arguments.length>0&&void 0!==arguments[0]?arguments[0]:0;if(t%=360){var n=Y(t*=tt),r=Z(t),e=this.m,i=e[0],o=e[1];e[0]=i*r+e[2]*n,e[1]=o*r+e[3]*n,e[2]=e[2]*r-i*n,e[3]=e[3]*r-o*n,this.w=this.s=this.i=null}return this}},{key:"scaleSelf",value:function(){var t=arguments.length>0&&void 0!==arguments[0]?arguments[0]:1,n=arguments.length>1&&void 0!==arguments[1]?arguments[1]:1;if(1!==t||1!==n){var r=this.m;r[0]*=t,r[1]*=t,r[2]*=n,r[3]*=n,this.w=this.s=this.i=null}return this}},{key:"skewSelf",value:function(t,n){if(n%=360,(t%=360)||n){var r=this.m,e=r[0],i=r[1],o=r[2],u=r[3];t&&(t=W(t*tt),r[2]+=e*t,r[3]+=i*t),n&&(n=W(n*tt),r[0]+=o*n,r[1]+=u*n),this.w=this.s=this.i=null}return this}},{key:"resetSelf",value:function(){var t=arguments.length>0&&void 0!==arguments[0]?arguments[0]:1,n=arguments.length>1&&void 0!==arguments[1]?arguments[1]:0,r=arguments.length>2&&void 0!==arguments[2]?arguments[2]:0,e=arguments.length>3&&void 0!==arguments[3]?arguments[3]:1,i=arguments.length>4&&void 0!==arguments[4]?arguments[4]:0,o=arguments.length>5&&void 0!==arguments[5]?arguments[5]:0,u=this.m;return u[0]=t,u[1]=n,u[2]=r,u[3]=e,u[4]=i,u[5]=o,this.w=this.s=this.i=null,this}},{key:"recomposeSelf",value:function(){var t=arguments.length>0&&void 0!==arguments[0]?arguments[0]:null,n=arguments.length>1&&void 0!==arguments[1]?arguments[1]:null,r=arguments.length>2&&void 0!==arguments[2]?arguments[2]:null,e=arguments.length>3&&void 0!==arguments[3]?arguments[3]:null,i=arguments.length>4&&void 0!==arguments[4]?arguments[4]:null;return this.isIdentity||this.resetSelf(),t&&(t.x||t.y)&&this.translateSelf(t.x,t.y),n&&this.rotateSelf(n),r&&(r.x&&this.skewSelf(r.x,0),r.y&&this.skewSelf(0,r.y)),!e||1===e.x&&1===e.y||this.scaleSelf(e.x,e.y),i&&(i.x||i.y)&&this.translateSelf(i.x,i.y),this}},{key:"decompose",value:function(){var t=arguments.length>0&&void 0!==arguments[0]?arguments[0]:0,n=arguments.length>1&&void 0!==arguments[1]?arguments[1]:0,r=this.m,e=r[0]*r[0]+r[1]*r[1],i=[[r[0],r[1]],[r[2],r[3]]],o=rt(e);if(0===o)return{origin:{x:r[4],y:r[5]},translate:{x:t,y:n},scale:{x:0,y:0},skew:{x:0,y:0},rotate:0};i[0][0]/=o,i[0][1]/=o;var u=r[0]*r[3]-r[1]*r[2]<0;u&&(o=-o);var a=i[0][0]*i[1][0]+i[0][1]*i[1][1];i[1][0]-=i[0][0]*a,i[1][1]-=i[0][1]*a;var l=rt(i[1][0]*i[1][0]+i[1][1]*i[1][1]);if(0===l)return{origin:{x:r[4],y:r[5]},translate:{x:t,y:n},scale:{x:o,y:0},skew:{x:0,y:0},rotate:0};i[1][0]/=l,i[1][1]/=l,a/=l;var f=0;return i[1][1]<0?(f=J(i[1][1])*nt,i[0][1]<0&&(f=360-f)):f=K(i[0][1])*nt,u&&(f=-f),a=X(a,rt(i[0][0]*i[0][0]+i[0][1]*i[0][1]))*nt,{origin:{x:r[4],y:r[5]},translate:{x:t,y:n},scale:{x:o,y:l},skew:{x:a,y:0},rotate:f}}},{key:"toString",value:function(){return null===this.s&&(this.s="matrix("+this.m.map(ot).join(" ")+")"),this.s}},{key:"determinant",get:function(){var t=this.m;return t[0]*t[3]-t[1]*t[2]}},{key:"isIdentity",get:function(){if(null===this.i){var t=this.m;this.i=1===t[0]&&0===t[1]&&0===t[2]&&1===t[3]&&0===t[4]&&0===t[5]}return this.i}}]),t}(),it=/\.0+$/;function ot(t){return Number.isInteger(t)?t:t.toFixed(14).replace(it,"")}Object.freeze({M:2,L:2,Z:0,H:1,V:1,C:6,Q:4,T:2,S:4,A:7});function ut(t,n,r){return t+(n-t)*r}function at(t,n,r){var e=arguments.length>3&&void 0!==arguments[3]&&arguments[3],i={x:ut(t.x,n.x,r),y:ut(t.y,n.y,r)};return e&&(i.a=lt(t,n)),i}function lt(t,n){return Math.atan2(n.y-t.y,n.x-t.x)}function ft(t,n,r,e){var i=1-e;return i*i*t+2*i*e*n+e*e*r}function st(t,n,r,e){return 2*(1-e)*(n-t)+2*e*(r-n)}function ct(t,n,r,e){var i=arguments.length>4&&void 0!==arguments[4]&&arguments[4],o={x:ft(t.x,n.x,r.x,e),y:ft(t.y,n.y,r.y,e)};return i&&(o.a=ht(t,n,r,e)),o}function ht(t,n,r,e){return Math.atan2(st(t.y,n.y,r.y,e),st(t.x,n.x,r.x,e))}function vt(t,n,r,e,i){var o=i*i;return i*o*(e-t+3*(n-r))+3*o*(t+r-2*n)+3*i*(n-t)+t}function yt(t,n,r,e,i){var o=1-i;return 3*(o*o*(n-t)+2*o*i*(r-n)+i*i*(e-r))}function dt(t,n,r,e,i){var o=arguments.length>5&&void 0!==arguments[5]&&arguments[5],u={x:vt(t.x,n.x,r.x,e.x,i),y:vt(t.y,n.y,r.y,e.y,i)};return o&&(u.a=gt(t,n,r,e,i)),u}function gt(t,n,r,e,i){return Math.atan2(yt(t.y,n.y,r.y,e.y,i),yt(t.x,n.x,r.x,e.x,i))}function pt(t,n,r){var e=arguments.length>3&&void 0!==arguments[3]&&arguments[3];if(bt(n)){if(wt(r))return ct(n,r.start,r,t,e)}else if(bt(r)){if(n.end)return ct(n,n.end,r,t,e)}else{if(n.end)return r.start?dt(n,n.end,r.start,r,t,e):ct(n,n.end,r,t,e);if(r.start)return ct(n,r.start,r,t,e)}return at(n,r,t,e)}function mt(t,n,r){var e=pt(t,n,r,!0);return e.a=function(t){var n=arguments.length>1&&void 0!==arguments[1]&&arguments[1];return n?t+Math.PI:t}(e.a)/p,e}function bt(t){return!t.type||"corner"===t.type}function wt(t){return null!=t.start&&!bt(t)}var kt=new et;var xt={f:$,i:b},At={f:$,i:function(t,n,r){var e=b(t,n,r);return e<=0?0:e>=1?1:e}};function _t(t,n,r,e,i,o,u,a){return n=function(t,n,r){for(var e,i,o,u=t.length-1,a={},l=0;l<=u;l++)(e=t[l]).e&&(e.e=n(e.e)),e.v&&"g"===(i=e.v).t&&i.r&&(o=r.getElementById(i.r))&&(a[i.r]=o.querySelectorAll("stop"));return a}(t,e,a),function(e){var i,o=r(e,t,St);return o?"c"===o.t?H(o.v):"g"===o.t?(n[o.r]&&function(t,n){for(var r=0,e=t.length;r<e;r++)t[r].setAttribute("stop-color",H(n[r]))}(n[o.r],o.v),(i=o.r)?"url(#"+i+")":"none"):"none":"none"}}function St(t,n,r){if(0===t)return n;if(1===t)return r;if(n&&r){var e=n.t;if(e===r.t)switch(n.t){case"c":return{t:e,v:A(t,n.v,r.v)};case"g":if(n.r===r.r)return{t:e,v:_(t,n.v,r.v),r:n.r}}}return m(t,n,r)}var Ot={fill:_t,"fill-opacity":At,stroke:_t,"stroke-opacity":At,"stroke-width":xt,"stroke-dashoffset":{f:$,i:b},"stroke-dasharray":{f:function(t){var n=arguments.length>1&&void 0!==arguments[1]?arguments[1]:" ";return t&&t.length>0&&(t=t.map((function(t){return Math.floor(1e4*t)/1e4}))),G(t,n)},i:function(t,n,r){var e,i,o,u=n.length,a=r.length;if(u!==a)if(0===u)n=S(u=a,0);else if(0===a)a=u,r=S(u,0);else{var l=(o=(e=u)*(i=a)/function(t,n){for(var r;n;)r=n,n=t%n,t=r;return t||1}(e,i))<0?-o:o;n=O(n,Math.floor(l/u)),r=O(r,Math.floor(l/a)),u=a=l}for(var f=[],s=0;s<u;s++)f.push(g(w(t,n[s],r[s]),6));return f}},opacity:At,transform:function(n,r,e,i){if(!(n=function(n,r){if(!n||"object"!==t(n))return null;var e=!1;for(var i in n)n.hasOwnProperty(i)&&(n[i]&&n[i].length?(n[i].forEach((function(t){t.e&&(t.e=r(t.e))})),e=!0):delete n[i]);return e?n:null}(n,i)))return null;var o=function(t,i,o){var u=arguments.length>3&&void 0!==arguments[3]?arguments[3]:null;return n[t]?e(i,n[t],o):r&&r[t]?r[t]:u};return r&&r.a&&n.o?function(t){var r=e(t,n.o,mt);return kt.recomposeSelf(r,o("r",t,b,0)+r.a,o("k",t,k),o("s",t,k),o("t",t,k)).toString()}:function(t){return kt.recomposeSelf(o("o",t,pt,null),o("r",t,b,0),o("k",t,k),o("s",t,k),o("t",t,k)).toString()}},r:xt,"#size":U,"#radius":Q,_:function(t,n){if(Array.isArray(t))for(var r=0;r<t.length;r++)this[t[r]]=n;else this[t]=n}};return function(t){!function(t,n){if("function"!=typeof n&&null!==n)throw new TypeError("Super expression must either be null or a function");t.prototype=Object.create(n&&n.prototype,{constructor:{value:t,writable:!0,configurable:!0}}),n&&o(t,n)}(u,t);var r=a(u);function u(){return n(this,u),r.apply(this,arguments)}return e(u,null,[{key:"build",value:function(t){var n=l(i(u),"build",this).call(this,t,Ot),r=(n.el,n.options,n.player);return function(t){t.play()}(r),r}}]),u}(L)}));
__SVGATOR_PLAYER__.build({"root":"transfer-files-amico","animations":[{"duration":3000,"direction":1,"iterations":0,"fill":1,"alternate":false,"elements":{"transfer-files-amico-freepik-document-inject-210":{"transform":{"data":{"t":{"x":-318.4477996826172,"y":-167.67562103271484}},"keys":{"o":[{"t":0,"v":{"x":321.3100152576172,"y":222.00000762271517,"type":"corner"}},{"t":1500,"v":{"x":320.4170002576172,"y":192.80181854271518,"type":"corner"}},{"t":3000,"v":{"x":320.4170002576172,"y":220.75966126271524,"type":"corner"}}]}}},"transfer-files-amico-freepik-document-inject-2102":{"transform":{"data":{"t":{"x":-181.5522003173828,"y":-167.68146514892578}},"keys":{"o":[{"t":0,"v":{"x":176.19778442238285,"y":188.6659591689258,"type":"corner"}},{"t":1500,"v":{"x":175.62778442738357,"y":237.7766743439261,"type":"corner"}},{"t":3000,"v":{"x":175.62778442738357,"y":188.63948871892669,"type":"corner"}}]}}}}}],"options":{"start":"load","hover":"freeze","click":"freeze","scroll":25,"exportedIds":"names","title":"Transfer files-amico"},"animationSettings":{"duration":3000,"direction":1,"iterations":0,"fill":1,"alternate":false}})]]></script></svg>